<mxfile host="app.diagrams.net" modified="2024-05-30T10:36:52.134Z" agent="Mozilla/5.0 (Windows NT 10.0; Win64; x64) AppleWebKit/537.36 (KHTML, like Gecko) Chrome/124.0.0.0 Safari/537.36 OPR/110.0.0.0" etag="I9KVjHDqT-ZLPe_IpbI8" version="24.4.10" type="github">
  <diagram name="Page-1" id="C-d5LhA2ZBHkKCzj_EJW">
    <mxGraphModel dx="1870" dy="411" grid="1" gridSize="10" guides="1" tooltips="1" connect="1" arrows="1" fold="1" page="1" pageScale="1" pageWidth="827" pageHeight="1169" math="0" shadow="0">
      <root>
        <mxCell id="0" />
        <mxCell id="1" parent="0" />
        <mxCell id="z0Dh-hGaxNwlBLqKizht-12" style="edgeStyle=orthogonalEdgeStyle;rounded=0;orthogonalLoop=1;jettySize=auto;html=1;entryX=0.5;entryY=0;entryDx=0;entryDy=0;" edge="1" parent="1" source="z0Dh-hGaxNwlBLqKizht-3" target="z0Dh-hGaxNwlBLqKizht-5">
          <mxGeometry relative="1" as="geometry" />
        </mxCell>
        <mxCell id="z0Dh-hGaxNwlBLqKizht-3" value="" style="shape=image;verticalLabelPosition=bottom;labelBackgroundColor=default;verticalAlign=top;aspect=fixed;imageAspect=0;image=data:image/png,iVBORw0KGgoAAAANSUhEUgAAC7gAAAu4CAYAAABxFfV5AAAACXBIWXMAABYlAAAWJQFJUiTwAAAAAXNSR0IArs4c6QAAAARnQU1BAACxjwv8YQUAAQDESURBVHgB7NpBAQAQAAAxBNBQ/xjEcI8tx+bc5w4AAAAAAAAAAAAAAPhsDQAAAAAAAAAAAAAACBDcAQAAAAAAAAAAAABIENwBAAAAAAAAAAAAAEgQ3AEAAAAAAAAAAAAASBDcAQAAAAAAAAAAAABIENwBAAAAAAAAAAAAAEgQ3AEAAAAAAAAAAAAASBDcAQAAAAAAAAAAAABIENwBAAAAAAAAAAAAAEgQ3AEAAAAAAAAAAAAASBDcAQAAAAAAAAAAAABIENwBAAAAAAAAAAAAAEgQ3AEAAAAAAAAAAAAASBDcAQAAAAAAAAAAAABIENwBAAAAAAAAAAAAAEgQ3AEAAAAAAAAAAAAASBDcAQAAAAAAAAAAAABIENwBAAAAAAAAAAAAAEgQ3AEAAAAAAAAAAAAASBDcAQAAAAAAAAAAAABIENwBAAAAAAAAAAAAAEgQ3AEAAAAAAAAAAAAASBDcAQAAAAAAAAAAAABIENwBAAAAAAAAAAAAAEgQ3AEAAAAAAAAAAAAASBDcAQAAAAAAAAAAAABIENwBAAAAAAAAAAAAAEgQ3AEAAAAAAAAAAAAASBDcAQAAAAAAAAAAAABIENwBAAAAAAAAAAAAAEgQ3AEAAAAAAAAAAAAASBDcAQAAAAAAAAAAAABIENwBAAAAAAAAAAAAAEgQ3AEAAAAAAAAAAAAASBDcAQAAAAAAAAAAAABIENwBAAAAAAAAAAAAAEgQ3AEAAAAAAAAAAAAASBDcAQAAAAAAAAAAAABIENwBAAAAAAAAAAAAAEgQ3AEAAAAAAAAAAAAASBDcAQAAAAAAAAAAAABIENwBAAAAAAAAAAAAAEgQ3AEAAAAAAAAAAAAASBDcAQAAAAAAAAAAAABIENwBAAAAAAAAAAAAAEgQ3AEAAAAAAAAAAAAASBDcAQAAAAAAAAAAAABIENwBAAAAAAAAAAAAAEgQ3AEAAAAAAAAAAAAASBDcAQAAAAAAAAAAAABIENwBAAAAAAAAAAAAAEgQ3AEAAAAAAAAAAAAASBDcAQAAAAAAAAAAAABIENwBAAAAAAAAAAAAAEgQ3AEAAAAAAAAAAAAASBDcAQAAAAAAAAAAAABIENwBAAAAAAAAAAAAAEgQ3AEAAAAAAAAAAAAASBDcAQAAAAAAAAAAAABIENwBAAAAAAAAAAAAAEgQ3AEAAAAAAAAAAAAASBDcAQAAAAAAAAAAAABIENwBAAAAAAAAAAAAAEgQ3AEAAAAAAAAAAAAASBDcAQAAAAAAAAAAAABIENwBAAAAAAAAAAAAAEgQ3AEAAAAAAAAAAAAASBDcAQAAAAAAAAAAAABIENwBAAAAAAAAAAAAAEgQ3AEAAAAAAAAAAAAASBDcAQAAAAAAAAAAAABIENwBAAAAAAAAAAAAAEgQ3AEAAAAAAAAAAAAASBDcAQAAAAAAAAAAAABIENwBAAAAAAAAAAAAAEgQ3AEAAAAAAAAAAAAASBDcAQAAAAAAAAAAAABIENwBAAAAAAAAAAAAAEgQ3AEAAAAAAAAAAAAASBDcAQAAAAAAAAAAAABIENwBAAAAAAAAAAAAAEgQ3AEAAAAAAAAAAAAASBDcAQAAAAAAAAAAAABIENwBAAAAAAAAAAAAAEgQ3AEAAAAAAAAAAAAASBDcAQAAAAAAAAAAAABIENwBAAAAAAAAAAAAAEgQ3AEAAAAAAAAAAAAASBDcAQAAAAAAAAAAAABIENwBAAAAAAAAAAAAAEgQ3AEAAAAAAAAAAAAASBDcAQAAAAAAAAAAAABIENwBAAAAAAAAAAAAAEgQ3AEAAAAAAAAAAAAASBDcAQAAAAAAAAAAAABIENwBAAAAAAAAAAAAAEgQ3AEAAAAAAAAAAAAASBDcAQAAAAAAAAAAAABIENwBAAAAAAAAAAAAAEgQ3AEAAAAAAAAAAAAASBDcAQAAAAAAAAAAAABIENwBAAAAAAAAAAAAAEgQ3AEAAAAAAAAAAAAASBDcAQAAAAAAAAAAAABIENwBAAAAAAAAAAAAAEgQ3AEAAAAAAAAAAAAASBDcAQAAAAAAAAAAAABIENwBAAAAAAAAAAAAAEgQ3AEAAAAAAAAAAAAASBDcAQAAAAAAAAAAAABIENwBAAAAAAAAAAAAAEgQ3AEAAAAAAAAAAAAASBDcAQAAAAAAAAAAAABIENwBAAAAAAAAAAAAAEgQ3AEAAAAAAAAAAAAASBDcAQAAAAAAAAAAAABIENwBAAAAAAAAAAAAAEgQ3AEAAAAAAAAAAAAASBDcAQAAAAAAAAAAAABIENwBAAAAAAAAAAAAAEgQ3AEAAAAAAAAAAAAASBDcAQAAAAAAAAAAAABIENwBAAAAAAAAAAAAAEgQ3AEAAAAAAAAAAAAASBDcAQAAAAAAAAAAAABIENwBAAAAAAAAAAAAAEgQ3AEAAAAAAAAAAAAASBDcAQAAAAAAAAAAAABIENwBAAAAAAAAAAAAAEgQ3AEAAAAAAAAAAAAASBDcAQAAAAAAAAAAAABIENwBAAAAAAAAAAAAAEgQ3AEAAAAAAAAAAAAASBDcAQAAAAAAAAAAAABIENwBAAAAAAAAAAAAAEgQ3AEAAAAAAAAAAAAASBDcAQAAAAAAAAAAAABIENwBAAAAAAAAAAAAAEgQ3AEAAAAAAAAAAAAASBDcAQAAAAAAAAAAAABIENwBAAAAAAAAAAAAAEgQ3AEAAAAAAAAAAAAASBDcAQAAAAAAAAAAAABIENwBAAAAAAAAAAAAAEgQ3AEAAAAAAAAAAAAASBDcAQAAAAAAAAAAAABIENwBAAAAAAAAAAAAAEgQ3AEAAAAAAAAAAAAASBDcAQAAAAAAAAAAAABIENwBAAAAAAAAAAAAAEgQ3AEAAAAAAAAAAAAASBDcAQAAAAAAAAAAAABIENwBAAAAAAAAAAAAAEgQ3AEAAAAAAAAAAAAASBDcAQAAAAAAAAAAAABIENwBAAAAAAAAAAAAAEgQ3AEAAAAAAAAAAAAASBDcAQAAAAAAAAAAAABIENwBAAAAAAAAAAAAAEgQ3AEAAAAAAAAAAAAASBDcAQAAAAAAAAAAAABIENwBAAAAAAAAAAAAAEgQ3AEAAAAAAAAAAAAASBDcAQAAAAAAAAAAAABIENwBAAAAAAAAAAAAAEgQ3AEAAAAAAAAAAAAASBDcAQAAAAAAAAAAAABIENwBAAAAAAAAAAAAAEgQ3AEAAAAAAAAAAAAASBDcAQAAAAAAAAAAAABIENwBAAAAAAAAAAAAAEgQ3AEAAAAAAAAAAAAASBDcAQAAAAAAAAAAAABIENwBAAAAAAAAAAAAAEgQ3AEAAAAAAAAAAAAASBDcAQAAAAAAAAAAAABIENwBAAAAAAAAAAAAAEgQ3AEAAAAAAAAAAAAASBDcAQAAAAAAAAAAAABIENwBAAAAAAAAAAAAAEgQ3AEAAAAAAAAAAAAASBDcAQAAAAAAAAAAAABIENwBAAAAAAAAAAAAAEgQ3AEAAAAAAAAAAAAASBDcAQAAAAAAAAAAAABIENwBAAAAAAAAAAAAAEgQ3AEAAAAAAAAAAAAASBDcAQAAAAAAAAAAAABIENwBAAAAAAAAAAAAAEgQ3AEAAAAAAAAAAAAASBDcAQAAAAAAAAAAAABIENwBAAAAAAAAAAAAAEgQ3AEAAAAAAAAAAAAASBDcAQAAAAAAAAAAAABIENwBAAAAAAAAAAAAAEgQ3AEAAAAAAAAAAAAASBDcAQAAAAAAAAAAAABIENwBAAAAAAAAAAAAAEgQ3AEAAAAAAAAAAAAASBDcAQAAAAAAAAAAAABIENwBAAAAAAAAAAAAAEgQ3AEAAAAAAAAAAAAASBDcAQAAAAAAAAAAAABIENwBAAAAAAAAAAAAAEgQ3AEAAAAAAAAAAAAASBDcAQAAAAAAAAAAAABIENwBAAAAAAAAAAAAAEgQ3AEAAAAAAAAAAAAASBDcAQAAAAAAAAAAAABIENwBAAAAAAAAAAAAAEgQ3AEAAAAAAAAAAAAASBDcAQAAAAAAAAAAAABIENwBAAAAAAAAAAAAAEgQ3AEAAAAAAAAAAAAASBDcAQAAAAAAAAAAAABIENwBAAAAAAAAAAAAAEgQ3AEAAAAAAAAAAAAASBDcAQAAAAAAAAAAAABIENwBAAAAAAAAAAAAAEgQ3AEAAAAAAAAAAAAASBDcAQAAAAAAAAAAAABIENwBAAAAAAAAAAAAAEgQ3AEAAAAAAAAAAAAASBDcAQAAAAAAAAAAAABIENwBAAAAAAAAAAAAAEgQ3AEAAAAAAAAAAAAASBDcAQAAAAAAAAAAAABIENwBAAAAAAAAAAAAAEgQ3AEAAAAAAAAAAAAASBDcAQAAAAAAAAAAAABIENwBAAAAAAAAAAAAAEgQ3AEAAAAAAAAAAAAASBDcAQAAAAAAAAAAAABIENwBAAAAAAAAAAAAAEgQ3AEAAAAAAAAAAAAASBDcAQAAAAAAAAAAAABIENwBAAAAAAAAAAAAAEgQ3AEAAAAAAAAAAAAASBDcAQAAAAAAAAAAAABIENwBAAAAAAAAAAAAAEgQ3AEAAAAAAAAAAAAASBDcAQAAAAAAAAAAAABIENwBAAAAAAAAAAAAAEgQ3AEAAAAAAAAAAAAASBDcAQAAAAAAAAAAAABIENwBAAAAAAAAAAAAAEgQ3AEAAAAAAAAAAAAASBDcAQAAAAAAAAAAAABIENwBAAAAAAAAAAAAAEgQ3AEAAAAAAAAAAAAASBDcAQAAAAAAAAAAAABIENwBAAAAAAAAAAAAAEgQ3AEAAAAAAAAAAAAASBDcAQAAAAAAAAAAAABIENwBAAAAAAAAAAAAAEgQ3AEAAAAAAAAAAAAASBDcAQAAAAAAAAAAAABIENwBAAAAAAAAAAAAAEgQ3AEAAAAAAAAAAAAASBDcAQAAAAAAAAAAAABIENwBAAAAAAAAAAAAAEgQ3AEAAAAAAAAAAAAASBDcAQAAAAAAAAAAAABIENwBAAAAAAAAAAAAAEgQ3AEAAAAAAAAAAAAASBDcAQAAAAAAAAAAAABIENwBAAAAAAAAAAAAAEgQ3AEAAAAAAAAAAAAASBDcAQAAAAAAAAAAAABIENwBAAAAAAAAAAAAAEgQ3AEAAAAAAAAAAAAASBDcAQAAAAAAAAAAAABIENwBAAAAAAAAAAAAAEgQ3AEAAAAAAAAAAAAASBDcAQAAAAAAAAAAAABIENwBAAAAAAAAAAAAAEgQ3AEAAAAAAAAAAAAASBDcAQAAAAAAAAAAAABIENwBAAAAAAAAAAAAAEgQ3AEAAAAAAAAAAAAASBDcAQAAAAAAAAAAAABIENwBAAAAAAAAAAAAAEgQ3AEAAAAAAAAAAAAASBDcAQAAAAAAAAAAAABIENwBAAAAAAAAAAAAAEgQ3AEAAAAAAAAAAAAASBDcAQAAAAAAAAAAAABIENwBAAAAAAAAAAAAAEgQ3AEAAAAAAAAAAAAASBDcAQAAAAAAAAAAAABIENwBAAAAAAAAAAAAAEgQ3AEAAAAAAAAAAAAASBDcAQAAAAAAAAAAAABIENwBAAAAAAAAAAAAAEgQ3AEAAAAAAAAAAAAASBDcAQAAAAAAAAAAAABIENwBAAAAAAAAAAAAAEgQ3AEAAAAAAAAAAAAASBDcAQAAAAAAAAAAAABIENwBAAAAAAAAAAAAAEgQ3AEAAAAAAAAAAAAASBDcAQAAAAAAAAAAAABIENwBAAAAAAAAAAAAAEgQ3AEAAAAAAAAAAAAASBDcAQAAAAAAAAAAAABIENwBAAAAAAAAAAAAAEgQ3AEAAAAAAAAAAAAASBDcAQAAAAAAAAAAAABIENwBAAAAAAAAAAAAAEgQ3AEAAAAAAAAAAAAASBDcAQAAAAAAAAAAAABIENwBAAAAAAAAAAAAAEgQ3AEAAAAAAAAAAAAASBDcAQAAAAAAAAAAAABIENwBAAAAAAAAAAAAAEgQ3AEAAAAAAAAAAAAASBDcAQAAAAAAAAAAAABIENwBAAAAAAAAAAAAAEgQ3AEAAAAAAAAAAAAASBDcAQAAAAAAAAAAAABIENwBAAAAAAAAAAAAAEgQ3AEAAAAAAAAAAAAASBDcAQAAAAAAAAAAAABIENwBAAAAAAAAAAAAAEgQ3AEAAAAAAAAAAAAASBDcAQAAAAAAAAAAAABIENwBAAAAAAAAAAAAAEgQ3AEAAAAAAAAAAAAASBDcAQAAAAAAAAAAAABIENwBAAAAAAAAAAAAAEgQ3AEAAAAAAAAAAAAASBDcAQAAAAAAAAAAAABIENwBAAAAAAAAAAAAAEgQ3AEAAAAAAAAAAAAASBDcAQAAAAAAAAAAAABIENwBAAAAAAAAAAAAAEgQ3AEAAAAAAAAAAAAASBDcAQAAAAAAAAAAAABIENwBAAAAAAAAAAAAAEgQ3AEAAAAAAAAAAAAASBDcAQAAAAAAAAAAAABIENwBAAAAAAAAAAAAAEgQ3AEAAAAAAAAAAAAASBDcAQAAAAAAAAAAAABIENwBAAAAAAAAAAAAAEgQ3AEAAAAAAAAAAAAASBDcAQAAAAAAAAAAAABIENwBAAAAAAAAAAAAAEgQ3AEAAAAAAAAAAAAASBDcAQAAAAAAAAAAAABIENwBAAAAAAAAAAAAAEgQ3AEAAAAAAAAAAAAASBDcAQAAAAAAAAAAAABIENwBAAAAAAAAAAAAAEgQ3AEAAAAAAAAAAAAASBDcAQAAAAAAAAAAAABIENwBAAAAAAAAAAAAAEgQ3AEAAAAAAAAAAAAASBDcAQAAAAAAAAAAAABIENwBAAAAAAAAAAAAAEgQ3AEAAAAAAAAAAAAASBDcAQAAAAAAAAAAAABIENwBAAAAAAAAAAAAAEgQ3AEAAAAAAAAAAAAASBDcAQAAAAAAAAAAAABIENwBAAAAAAAAAAAAAEgQ3AEAAAAAAAAAAAAASBDcAQAAAAAAAAAAAABIENwBAAAAAAAAAAAAAEgQ3AEAAAAAAAAAAAAASBDcAQAAAAAAAAAAAABIENwBAAAAAAAAAAAAAEgQ3AEAAAAAAAAAAAAASBDcAQAAAAAAAAAAAABIENwBAAAAAAAAAAAAAEgQ3AEAAAAAAAAAAAAASBDcAQAAAAAAAAAAAABIENwBAAAAAAAAAAAAAEgQ3AEAAAAAAAAAAAAASBDcAQAAAAAAAAAAAABIENwBAAAAAAAAAAAAAEgQ3AEAAAAAAAAAAAAASBDcAQAAAAAAAAAAAABIENwBAAAAAAAAAAAAAEgQ3AEAAAAAAAAAAAAASBDcAQAAAAAAAAAAAABIENwBAAAAAAAAAAAAAEgQ3AEAAAAAAAAAAAAASBDcAQAAAAAAAAAAAABIENwBAAAAAAAAAAAAAEgQ3AEAAAAAAAAAAAAASBDcAQAAAAAAAAAAAABIENwBAAAAAAAAAAAAAEgQ3AEAAAAAAAAAAAAASBDcAQAAAAAAAAAAAABIENwBAAAAAAAAAAAAAEgQ3AEAAAAAAAAAAAAASBDcAQAAAAAAAAAAAABIENwBAAAAAAAAAAAAAEgQ3AEAAAAAAAAAAAAASBDcAQAAAAAAAAAAAABIENwBAAAAAAAAAAAAAEgQ3AEAAAAAAAAAAAAASBDcAQAAAAAAAAAAAABIENwBAAAAAAAAAAAAAEgQ3AEAAAAAAAAAAAAASBDcAQAAAAAAAAAAAABIENwBAAAAAAAAAAAAAEgQ3AEAAAAAAAAAAAAASBDcAQAAAAAAAAAAAABIENwBAAAAAAAAAAAAAEgQ3AEAAAAAAAAAAAAASBDcAQAAAAAAAAAAAABIENwBAAAAAAAAAAAAAEgQ3AEAAAAAAAAAAAAASBDcAQAAAAAAAAAAAABIENwBAAAAAAAAAAAAAEgQ3AEAAAAAAAAAAAAASBDcAQAAAAAAAAAAAABIENwBAAAAAAAAAAAAAEgQ3AEAAAAAAAAAAAAASBDcAQAAAAAAAAAAAABIENwBAAAAAAAAAAAAAEgQ3AEAAAAAAAAAAAAASBDcAQAAAAAAAAAAAABIENwBAAAAAAAAAAAAAEgQ3AEAAAAAAAAAAAAASBDcAQAAAAAAAAAAAABIENwBAAAAAAAAAAAAAEgQ3AEAAAAAAAAAAAAASBDcAQAAAAAAAAAAAABIENwBAAAAAAAAAAAAAEgQ3AEAAAAAAAAAAAAASBDcAQAAAAAAAAAAAABIENwBAAAAAAAAAAAAAEgQ3AEAAAAAAAAAAAAASBDcAQAAAAAAAAAAAABIENwBAAAAAAAAAAAAAEgQ3AEAAAAAAAAAAAAASBDcAQAAAAAAAAAAAABIENwBAAAAAAAAAAAAAEgQ3AEAAAAAAAAAAAAASBDcAQAAAAAAAAAAAABIENwBAAAAAAAAAAAAAEgQ3AEAAAAAAAAAAAAASBDcAR67diwAAAAAMMjfeho7iiMAAAAAAAAAAAAAFgR3AAAAAAAAAAAAAAAWBHcAAAAAAAAAAAAAABYEdwAAAAAAAAAAAAAAFgR3AAAAAAAAAAAAAAAWBHcAAAAAAAAAAAAAABYEdwAAAAAAAAAAAAAAFgR3AAAAAAAAAAAAAAAWBHcAAAAAAAAAAAAAABYEdwAAAAAAAAAAAAAAFgR3AAAAAAAAAAAAAAAWBHcAAAAAAAAAAAAAABYEdwAAAAAAAAAAAAAAFgR3AAAAAAAAAAAAAAAWBHcAAAAAAAAAAAAAABYEdwAAAAAAAAAAAAAAFgR3AAAAAAAAAAAAAAAWBHcAAAAAAAAAAAAAABYEdwAAAAAAAAAAAAAAFgR3AAAAAAAAAAAAAAAWBHcAAAAAAAAAAAAAABYEdwAAAAAAAAAAAAAAFgR3AAAAAAAAAAAAAAAWBHcAAAAAAAAAAAAAABYEdwAAAAAAAAAAAAAAFgR3AAAAAAAAAAAAAAAWBHcAAAAAAAAAAAAAABYEdwAAAAAAAAAAAAAAFgR3AAAAAAAAAAAAAAAWBHcAAAAAAAAAAAAAABYEdwAAAAAAAAAAAAAAFgR3AAAAAAAAAAAAAAAWBHcAAAAAAAAAAAAAABYEdwAAAAAAAAAAAAAAFgR3AAAAAAAAAAAAAAAWBHcAAAAAAAAAAAAAABYEdwAAAAAAAAAAAAAAFgR3AAAAAAAAAAAAAAAWBHcAAAAAAAAAAAAAABYEdwAAAAAAAAAAAAAAFgR3AAAAAAAAAAAAAAAWBHcAAAAAAAAAAAAAABYEdwAAAAAAAAAAAAAAFgR3AAAAAAAAAAAAAAAWBHcAAAAAAAAAAAAAABYEdwAAAAAAAAAAAAAAFgR3AAAAAAAAAAAAAAAWBHcAAAAAAAAAAAAAABYEdwAAAAAAAAAAAAAAFgR3AAAAAAAAAAAAAAAWBHcAAAAAAAAAAAAAABYEdwAAAAAAAAAAAAAAFgR3AAAAAAAAAAAAAAAWBHcAAAAAAAAAAAAAABYEdwAAAAAAAAAAAAAAFgR3AAAAAAAAAAAAAAAWBHcAAAAAAAAAAAAAABYEdwAAAAAAAAAAAAAAFgR3AAAAAAAAAAAAAAAWBHcAAAAAAAAAAAAAABYEdwAAAAAAAAAAAAAAFgR3AAAAAAAAAAAAAAAWBHcAAAAAAAAAAAAAABYEdwAAAAAAAAAAAAAAFgR3AAAAAAAAAAAAAAAWBHcAAAAAAAAAAAAAABYEdwAAAAAAAAAAAAAAFgR3AAAAAAAAAAAAAAAWBHcAAAAAAAAAAAAAABYEdwAAAAAAAAAAAAAAFgR3AAAAAAAAAAAAAAAWBHcAAAAAAAAAAAAAABYEdwAAAAAAAAAAAAAAFgR3AAAAAAAAAAAAAAAWBHcAAAAAAAAAAAAAABYEdwAAAAAAAAAAAAAAFgR3AAAAAAAAAAAAAAAWBHcAAAAAAAAAAAAAABYEdwAAAAAAAAAAAAAAFgR3AAAAAAAAAAAAAAAWBHcAAAAAAAAAAAAAABYEdwAAAAAAAAAAAAAAFgR3AAAAAAAAAAAAAAAWBHcAAAAAAAAAAAAAABYEdwAAAAAAAAAAAAAAFgR3AAAAAAAAAAAAAAAWBHcAAAAAAAAAAAAAABYEdwAAAAAAAAAAAAAAFgR3AAAAAAAAAAAAAAAWBHcAAAAAAAAAAAAAABYEdwAAAAAAAAAAAAAAFgR3AAAAAAAAAAAAAAAWBHcAAAAAAAAAAAAAABYEdwAAAAAAAAAAAAAAFgR3AAAAAAAAAAAAAAAWBHcAAAAAAAAAAAAAABYEdwAAAAAAAAAAAAAAFgR3AAAAAAAAAAAAAAAWBHcAAAAAAAAAAAAAABYEdwAAAAAAAAAAAAAAFgR3AAAAAAAAAAAAAAAWBHcAAAAAAAAAAAAAABYEdwAAAAAAAAAAAAAAFgR3AAAAAAAAAAAAAAAWBHcAAAAAAAAAAAAAABYEdwAAAAAAAAAAAAAAFgR3AAAAAAAAAAAAAAAWBHcAAAAAAAAAAAAAABYEdwAAAAAAAAAAAAAAFgR3AAAAAAAAAAAAAAAWBHcAAAAAAAAAAAAAABYEdwAAAAAAAAAAAAAAFgR3AAAAAAAAAAAAAAAWBHcAAAAAAAAAAAAAABYEdwAAAAAAAAAAAAAAFgR3AAAAAAAAAAAAAAAWBHcAAAAAAAAAAAAAABYEdwAAAAAAAAAAAAAAFgR3AAAAAAAAAAAAAAAWBHcAAAAAAAAAAAAAABYEdwAAAAAAAAAAAAAAFgR3AAAAAAAAAAAAAAAWBHcAAAAAAAAAAAAAABYEdwAAAAAAAAAAAAAAFgR3AAAAAAAAAAAAAAAWBHcAAAAAAAAAAAAAABYEdwAAAAAAAAAAAAAAFgR3AAAAAAAAAAAAAAAWBHcAAAAAAAAAAAAAABYEdwAAAAAAAAAAAAAAFgR3AAAAAAAAAAAAAAAWBHcAAAAAAAAAAAAAABYEdwAAAAAAAAAAAAAAFgR3AAAAAAAAAAAAAAAWBHcAAAAAAAAAAAAAABYEdwAAAAAAAAAAAAAAFgR3AAAAAAAAAAAAAAAWBHcAAAAAAAAAAAAAABYEdwAAAAAAAAAAAAAAFgR3AAAAAAAAAAAAAAAWBHcAAAAAAAAAAAAAABYEdwAAAAAAAAAAAAAAFgR3AAAAAAAAAAAAAAAWBHcAAAAAAAAAAAAAABYEdwAAAAAAAAAAAAAAFgR3AAAAAAAAAAAAAAAWBHcAAAAAAAAAAAAAABYEdwAAAAAAAAAAAAAAFgR3AAAAAAAAAAAAAAAWBHcAAAAAAAAAAAAAABYEdwAAAAAAAAAAAAAAFgR3AAAAAAAAAAAAAAAWBHcAAAAAAAAAAAAAABYEdwAAAAAAAAAAAAAAFgR3AAAAAAAAAAAAAAAWBHcAAAAAAAAAAAAAABYEdwAAAAAAAAAAAAAAFgR3AAAAAAAAAAAAAAAWBHcAAAAAAAAAAAAAABYEdwAAAAAAAAAAAAAAFgR3AAAAAAAAAAAAAAAWBHcAAAAAAAAAAAAAABYEdwAAAAAAAAAAAAAAFgR3AAAAAAAAAAAAAAAWBHcAAAAAAAAAAAAAABYEdwAAAAAAAAAAAAAAFgR3AAAAAAAAAAAAAAAWBHcAAAAAAAAAAAAAABYEdwAAAAAAAAAAAAAAFgR3AAAAAAAAAAAAAAAWBHcAAAAAAAAAAAAAABYEdwAAAAAAAAAAAAAAFgR3AAAAAAAAAAAAAAAWBHcAAAAAAAAAAAAAABYEdwAAAAAAAAAAAAAAFgR3AAAAAAAAAAAAAAAWBHcAAAAAAAAAAAAAABYEdwAAAAAAAAAAAAAAFgR3AAAAAAAAAAAAAAAWBHcAAAAAAAAAAAAAABYEdwAAAAAAAAAAAAAAFgR3AAAAAAAAAAAAAAAWBHcAAAAAAAAAAAAAABYEdwAAAAAAAAAAAAAAFgR3AAAAAAAAAAAAAAAWBHcAAAAAAAAAAAAAABYEdwAAAAAAAAAAAAAAFgR3AAAAAAAAAAAAAAAWBHcAAAAAAAAAAAAAABYEdwAAAAAAAAAAAAAAFgR3AAAAAAAAAAAAAAAWBHcAAAAAAAAAAAAAABYEdwAAAAAAAAAAAAAAFgR3AAAAAAAAAAAAAAAWBHcAAAAAAAAAAAAAABYEdwAAAAAAAAAAAAAAFgR3AAAAAAAAAAAAAAAWBHcAAAAAAAAAAAAAABYEdwAAAAAAAAAAAAAAFgR3AAAAAAAAAAAAAAAWBHcAAAAAAAAAAAAAABYEdwAAAAAAAAAAAAAAFgR3AAAAAAAAAAAAAAAWBHcAAAAAAAAAAAAAABYEdwAAAAAAAAAAAAAAFgR3AAAAAAAAAAAAAAAWBHcAAAAAAAAAAAAAABYEdwAAAAAAAAAAAAAAFgR3AAAAAAAAAAAAAAAWBHcAAAAAAAAAAAAAABYEdwAAAAAAAAAAAAAAFgR3AAAAAAAAAAAAAAAWBHcAAAAAAAAAAAAAABYEdwAAAAAAAAAAAAAAFgR3AAAAAAAAAAAAAAAWBHcAAAAAAAAAAAAAABYEdwAAAAAAAAAAAAAAFgR3AAAAAAAAAAAAAAAWBHcAAAAAAAAAAAAAABYEdwAAAAAAAAAAAAAAFgR3AAAAAAAAAAAAAAAWBHcAAAAAAAAAAAAAABYEdwAAAAAAAAAAAAAAFgR3AAAAAAAAAAAAAAAWBHcAAAAAAAAAAAAAABYEdwAAAAAAAAAAAAAAFgR3AAAAAAAAAAAAAAAWBHcAAAAAAAAAAAAAABYEdwAAAAAAAAAAAAAAFgR3AAAAAAAAAAAAAAAWBHcAAAAAAAAAAAAAABYEdwAAAAAAAAAAAAAAFgR3AAAAAAAAAAAAAAAWBHcAAAAAAAAAAAAAABYEdwAAAAAAAAAAAAAAFgR3AAAAAAAAAAAAAAAWBHcAAAAAAAAAAAAAABYEdwAAAAAAAAAAAAAAFgR3AAAAAAAAAAAAAAAWBHcAAAAAAAAAAAAAABYEdwAAAAAAAAAAAAAAFgR3AAAAAAAAAAAAAAAWBHcAAAAAAAAAAAAAABYEdwAAAAAAAAAAAAAAFgR3AAAAAAAAAAAAAAAWBHcAAAAAAAAAAAAAABYEdwAAAAAAAAAAAAAAFgR3AAAAAAAAAAAAAAAWBHcAAAAAAAAAAAAAABYEdwAAAAAAAAAAAAAAFgR3AAAAAAAAAAAAAAAWBHcAAAAAAAAAAAAAABYEdwAAAAAAAAAAAAAAFgR3AAAAAAAAAAAAAAAWBHcAAAAAAAAAAAAAABYEdwAAAAAAAAAAAAAAFgR3AAAAAAAAAAAAAAAWBHcAAAAAAAAAAAAAABYEdwAAAAAAAAAAAAAAFgR3AAAAAAAAAAAAAAAWBHcAAAAAAAAAAAAAABYEdwAAAAAAAAAAAAAAFgR3AAAAAAAAAAAAAAAWBHcAAAAAAAAAAAAAABYEdwAAAAAAAAAAAAAAFgR3AAAAAAAAAAAAAAAWBHcAAAAAAAAAAAAAABYEdwAAAAAAAAAAAAAAFgR3AAAAAAAAAAAAAAAWBHcAAAAAAAAAAAAAABYEdwAAAAAAAAAAAAAAFgR3AAAAAAAAAAAAAAAWBHcAAAAAAAAAAAAAABYEdwAAAAAAAAAAAAAAFgR3AAAAAAAAAAAAAAAWBHcAAAAAAAAAAAAAABYEdwAAAAAAAAAAAAAAFgR3AAAAAAAAAAAAAAAWBHcAAAAAAAAAAAAAABYEdwAAAAAAAAAAAAAAFgR3AAAAAAAAAAAAAAAWBHcAAAAAAAAAAAAAABYEdwAAAAAAAAAAAAAAFgR3AAAAAAAAAAAAAAAWBHcAAAAAAAAAAAAAABYEdwAAAAAAAAAAAAAAFgR3AAAAAAAAAAAAAAAWBHcAAAAAAAAAAAAAABYEdwAAAAAAAAAAAAAAFgR3AAAAAAAAAAAAAAAWBHcAAAAAAAAAAAAAABYEdwAAAAAAAAAAAAAAFgR3AAAAAAAAAAAAAAAWBHcAAAAAAAAAAAAAABYEdwAAAAAAAAAAAAAAFgR3AAAAAAAAAAAAAAAWBHcAAAAAAAAAAAAAABYEdwAAAAAAAAAAAAAAFgR3AAAAAAAAAAAAAAAWBHcAAAAAAAAAAAAAABYEdwAAAAAAAAAAAAAAFgR3AAAAAAAAAAAAAAAWBHcAAAAAAAAAAAAAABYEdwAAAAAAAAAAAAAAFgR3AAAAAAAAAAAAAAAWBHcAAAAAAAAAAAAAABYEdwAAAAAAAAAAAAAAFgR3AAAAAAAAAAAAAAAWBHcAAAAAAAAAAAAAABYEdwAAAAAAAAAAAAAAFgR3AAAAAAAAAAAAAAAWBHcAAAAAAAAAAAAAABYEdwAAAAAAAAAAAAAAFgR3AAAAAAAAAAAAAAAWBHcAAAAAAAAAAAAAABYEdwAAAAAAAAAAAAAAFgR3AAAAAAAAAAAAAAAWBHcAAAAAAAAAAAAAABYEdwAAAAAAAAAAAAAAFgR3AAAAAAAAAAAAAAAWBHcAAAAAAAAAAAAAABYEdwAAAAAAAAAAAAAAFgR3AAAAAAAAAAAAAAAWBHcAAAAAAAAAAAAAABYEdwAAAAAAAAAAAAAAFgR3AAAAAAAAAAAAAAAWBHcAAAAAAAAAAAAAABYEdwAAAAAAAAAAAAAAFgR3AAAAAAAAAAAAAAAWBHcAAAAAAAAAAAAAABYEdwAAAAAAAAAAAAAAFgR3AAAAAAAAAAAAAAAWBHcAAAAAAAAAAAAAABYEdwAAAAAAAAAAAAAAFgR3AAAAAAAAAAAAAAAWBHcAAAAAAAAAAAAAABYEdwAAAAAAAAAAAAAAFgR3AAAAAAAAAAAAAAAWBHcAAAAAAAAAAAAAABYEdwAAAAAAAAAAAAAAFgR3AAAAAAAAAAAAAAAWBHcAAAAAAAAAAAAAABYEdwAAAAAAAAAAAAAAFgR3AAAAAAAAAAAAAAAWBHcAAAAAAAAAAAAAABYEdwAAAAAAAAAAAAAAFgR3AAAAAAAAAAAAAAAWBHcAAAAAAAAAAAAAABYEdwAAAAAAAAAAAAAAFgR3AAAAAAAAAAAAAAAWBHcAAAAAAAAAAAAAABYEdwAAAAAAAAAAAAAAFgR3AAAAAAAAAAAAAAAWBHcAAAAAAAAAAAAAABYEdwAAAAAAAAAAAAAAFgR3AAAAAAAAAAAAAAAWBHcAAAAAAAAAAAAAABYEdwAAAAAAAAAAAAAAFgR3AAAAAAAAAAAAAAAWBHcAAAAAAAAAAAAAABYEdwAAAAAAAAAAAAAAFgR3AAAAAAAAAAAAAAAWBHcAAAAAAAAAAAAAABYEdwAAAAAAAAAAAAAAFgR3AAAAAAAAAAAAAAAWBHcAAAAAAAAAAAAAABYEdwAAAAAAAAAAAAAAFgR3AAAAAAAAAAAAAAAWBHcAAAAAAAAAAAAAABYEdwAAAAAAAAAAAAAAFgR3AAAAAAAAAAAAAAAWBHcAAAAAAAAAAAAAABYEdwAAAAAAAAAAAAAAFgR3AAAAAAAAAAAAAAAWBHcAAAAAAAAAAAAAABYEdwAAAAAAAAAAAAAAFgR3AAAAAAAAAAAAAAAWBHcAAAAAAAAAAAAAABYEdwAAAAAAAAAAAAAAFgR3AAAAAAAAAAAAAAAWBHcAAAAAAAAAAAAAABYEdwAAAAAAAAAAAAAAFgR3AAAAAAAAAAAAAAAWBHcAAAAAAAAAAAAAABYEdwAAAAAAAAAAAAAAFgR3AAAAAAAAAAAAAAAWBHcAAAAAAAAAAAAAABYEdwAAAAAAAAAAAAAAFgR3AAAAAAAAAAAAAAAWBHcAAAAAAAAAAAAAABYEdwAAAAAAAAAAAAAAFgR3AAAAAAAAAAAAAAAWBHcAAAAAAAAAAAAAABYEdwAAAAAAAAAAAAAAFgR3AAAAAAAAAAAAAAAWBHcAAAAAAAAAAAAAABYEdwAAAAAAAAAAAAAAFgR3AAAAAAAAAAAAAAAWBHcAAAAAAAAAAAAAABYEdwAAAAAAAAAAAAAAFgR3AAAAAAAAAAAAAAAWBHcAAAAAAAAAAAAAABYEdwAAAAAAAAAAAAAAFgR3AAAAAAAAAAAAAAAWBHcAAAAAAAAAAAAAABYEdwAAAAAAAAAAAAAAFgR3AAAAAAAAAAAAAAAWBHcAAAAAAAAAAAAAABYEdwAAAAAAAAAAAAAAFgR3AAAAAAAAAAAAAAAWBHcAAAAAAAAAAAAAABYEdwAAAAAAAAAAAAAAFgR3AAAAAAAAAAAAAAAWBHcAAAAAAAAAAAAAABYEdwAAAAAAAAAAAAAAFgR3AAAAAAAAAAAAAAAWBHcAAAAAAAAAAAAAABYEdwAAAAAAAAAAAAAAFgR3AAAAAAAAAAAAAAAWBHcAAAAAAAAAAAAAABYEdwAAAAAAAAAAAAAAFgR3AAAAAAAAAAAAAAAWBHcAAAAAAAAAAAAAABYEdwAAAAAAAAAAAAAAFgR3AAAAAAAAAAAAAAAWBHcAAAAAAAAAAAAAABYEdwAAAAAAAAAAAAAAFgR3AAAAAAAAAAAAAAAWBHcAAAAAAAAAAAAAABYEdwAAAAAAAAAAAAAAFgR3AAAAAAAAAAAAAAAWBHcAAAAAAAAAAAAAABYEdwAAAAAAAAAAAAAAFgR3AAAAAAAAAAAAAAAWBHcAAAAAAAAAAAAAABYEdwAAAAAAAAAAAAAAFgR3AAAAAAAAAAAAAAAWBHcAAAAAAAAAAAAAABYEdwAAAAAAAAAAAAAAFgR3AAAAAAAAAAAAAAAWBHcAAAAAAAAAAAAAABYEdwAAAAAAAAAAAAAAFgR3AAAAAAAAAAAAAAAWBHcAAAAAAAAAAAAAABYEdwAAAAAAAAAAAAAAFgR3AAAAAAAAAAAAAAAWBHcAACD27ia2qjs/+PifaauOiBRYkOVjo1nBwgHB5lnYYxQ9CpWMhpdn8wiSkERPpjKVxiRVJYgmQ5OJQlZh3AVUGSmB0eDuIIygKlUVQe1lQaRewGqEvY1VwSLpMr2/Yw5xGF5tX/t3zv18pKt7fePRzMTnvpxzvv/fAQAAAAAAAACAFATuAAAAAAAAAAAAAACkIHAHAAAAAAAAAAAAACAFgTsAAAAAAAAAAAAAACkI3AEAAAAAAAAAAAAASEHgDgAAAAAAAAAAAABACgJ3AAAAAAAAAAAAAABSELgDAAAAAAAAAAAAAJCCwB0AAAAAAAAAAAAAgBQE7gAAAAAAAAAAAAAApCBwBwAAAAAAAAAAAAAgBYE7AAAAAAAAAAAAAAApCNwBAAAAAAAAAAAAAEhB4A4AAAAAAAAAAAAAQAoCdwAAAAAAAAAAAAAAUhC4AwAAAAAAAAAAAACQgsAdAAAAAAAAAAAAAIAUBO4AAAAAAAAAAAAAAKQgcAcAAAAAAAAAAAAAIAWBOwAAAAAAAAAAAAAAKQjcAQAAAAAAAAAAAABIQeAOAAAAAAAAAAAAAEAKAncAAAAAAAAAAAAAAFIQuAMAAAAAAAAAAAAAkILAHQAAAAAAAAAAAACAFATuAAAAAAAAAAAAAACkIHAHAAAAAAAAAAAAACAFgTsAAAAAAAAAAAAAACkI3AEAAAAAAAAAAAAASEHgDgAAAAAAAAAAAABACgJ3AAAAAAAAAAAAAABSELgDAAAAAAAAAAAAAJCCwB0AAAAAAAAAAAAAgBQE7gAAAAAAAAAAAAAApCBwBwAAAAAAAAAAAAAgBYE7AAAAAAAAAAAAAAApCNwBAAAAAAAAAAAAAEhB4A4AAAAAAAAAAAAAQAoCdwAAAAAAAAAAAAAAUhC4AwAAAAAAAAAAAACQgsAdAAAAAAAAAAAAAIAUBO4AAAAAAAAAAAAAAKQgcAcAAAAAAAAAAAAAIAWBOwAAAAAAAAAAAAAAKQjcAQAAAAAAAAAAAABIQeAOAAAAAAAAAAAAAEAKAncAAAAAAAAAAAAAAFIQuAMAAAAAAAAAAAAAkILAHQAAAAAAAAAAAACAFATuAAAAAAAAAAAAAACkIHAHAAAAAAAAAAAAACAFgTsAAAAAAAAAAAAAACkI3AEAAAAAAAAAAAAASEHgDgAAAAAAAAAAAABACgJ3AAAAAAAAAAAAAABSELgDAAAAAAAAAAAAAJCCwB0AAAAAAAAAAAAAgBQE7gAAAAAAAAAAAAAApCBwBwAAAAAAAAAAAAAgBYE7AAAAAAAAAAAAAAApCNwBAAAAAAAAAAAAAEhB4A4AAAAAAAAAAAAAQAoCdwAAAAAAAAAAAAAAUhC4AwAAAAAAAAAAAACQgsAdAAAAAAAAAAAAAIAUBO4AAAAAAAAAAAAAAKQgcAcAAAAAAAAAAAAAIAWBOwAAAAAAAAAAAAAAKQjcAQAAAAAAAAAAAABIQeAOAAAAAAAAAAAAAEAKAncAAAAAAAAAAAAAAFIQuAMAAAAAAAAAAAAAkILAHQAAAAAAAAAAAACAFATuAAAAAAAAAAAAAACkIHAHAAAAAAAAAAAAACAFgTsAAAAAAAAAAAAAACkI3AEAAAAAAAAAAAAASEHgDgAAAAAAAAAAAABACgJ3AAAAAAAAAAAAAABSELgDAAAAAAAAAAAAAJCCwB0AAAAAAAAAAAAAgBQE7gAAAAAAAAAAAAAApCBwBwAAAAAAAAAAAAAgBYE7AAAAAAAAAAAAAAApCNwBAAAAAAAAAAAAAEhB4A4AAAAAAAAAAAAAQAoCdwAAAAAAAAAAAAAAUhC4AwAAAAAAAAAAAACQgsAdAAAAAAAAAAAAAIAUBO4AAAAAAAAAAAAAAKQgcAcAAAAAAAAAAAAAIAWBOwAAAAAAAAAAAAAAKQjcAQAAAAAAAAAAAABIQeAOAAAAAAAAAAAAAEAKAncAAAAAAAAAAAAAAFIQuAMAAAAAAAAAAAAAkILAHQAAAAAAAAAAAACAFATuAAAAAAAAAAAAAACkIHAHAAAAAAAAAAAAACAFgTsAAAAAAAAAAAAAACkI3AEAAAAAAAAAAAAASEHgDgAAAAAAAAAAAABACgJ3AAAAAAAAAAAAAABSELgDAAAAAAAAAAAAAJCCwB0AAAAAAAAAAAAAgBQE7gAAAAAAAAAAAAAApCBwBwAAAAAAAAAAAAAgBYE7AAAAAAAAAAAAAAApCNwBAAAAAAAAAAAAAEhB4A4AAAAAAAAAAAAAQAoCdwAAAAAAAAAAAAAAUhC4AwAAAAAAAAAAAACQgsAdAAAAAAAAAAAAAIAUBO4AAAAAAAAAAAAAAKQgcAcAAAAAAAAAAAAAIAWBOwAAAAAAAAAAAAAAKQjcAQAAAAAAAAAAAABIQeAOAAAAAAAAAAAAAEAKAncAAAAAAAAAAAAAAFIQuAMAAAAAAAAAAAAAkILAHQAAAAAAAAAAAACAFATuAAAAAAAAAAAAAACkIHAHAAAAAAAAAAAAACAFgTsAAAAAAAAAAAAAACkI3AEAAAAAAAAAAAAASEHgDgAAAAAAAAAAAABACgJ3AAAAAAAAAAAAAABSELgDAAAAAAAAAAAAAJCCwB0AAAAAAAAAAAAAgBQE7gAAAAAAAAAAAAAApCBwBwAAAAAAAAAAAAAgBYE7AAAAAAAAAAAAAAApCNwBAAAAAAAAAAAAAEhB4A4AAAAAAAAAAAAAQAoCdwAAAAAAAAAAAAAAUhC4AwAAAAAAAAAAAACQgsAdAAAAAAAAAAAAAIAUBO4AAAAAAAAAAAAAAKQgcAcAAAAAAAAAAAAAIAWBOwAAAAAAAAAAAAAAKQjcAQAAAAAAAAAAAABIQeAOAAAAAAAAAAAAAEAKAncAAAAAAAAAAAAAAFIQuAMAAAAAAAAAAAAAkILAHQAAAAAAAAAAAACAFATuAAAAAAAAAAAAAACkIHAHAAAAAAAAAAAAACAFgTsAAAAAAAAAAAAAACkI3AEAAAAAAAAAAAAASEHgDgAAAAAAAAAAAABACgJ3AAAAAAAAAAAAAABSELgDAAAAAAAAAAAAAJCCwB0AAAAAAAAAAAAAgBQE7gAAAAAAAAAAAAAApCBwBwAAAAAAAAAAAAAgBYE7AAAAAAAAAAAAAAApCNwBAAAAAAAAAAAAAEhB4A4AAAAAAAAAAAAAQAoCdwAAAAAAAAAAAAAAUhC4AwAAAAAAAAAAAACQgsAdAAAAAAAAAAAAAIAUBO4AAAAAAAAAAAAAAKQgcAcAAAAAAAAAAAAAIAWBOwAAAAAAAAAAAAAAKQjcAQAAAAAAAAAAAABIQeAOAAAAAAAAAAAAAEAKAncAAAAAAAAAAAAAAFIQuAMAAAAAAAAAAAAAkILAHQAAAAAAAAAAAACAFATuAAAAAAAAAAAAAACkIHAHAAAAAAAAAAAAACAFgTsAAAAAAAAAAAAAACkI3AEAAAAAAAAAAAAASEHgDgAAAAAAAAAAAABACgJ3AAAAAAAAAAAAAABSELgDAAAAAAAAAAAAAJCCwB0AAAAAAAAAAAAAgBQE7gAAAAAAAAAAAAAApCBwBwAAAAAAAAAAAAAgBYE7AAAAAAAAAAAAAAApCNwBAAAAAAAAAAAAAEhB4A4AAAAAAAAAAAAAQAoCdwAAAAAAAAAAAAAAUhC4AwAAAAAAAAAAAACQgsAdAAAAAAAAAAAAAIAUBO4AAAAAAAAAAAAAAKQgcAcAAAAAAAAAAAAAIAWBOwAAAAAAAAAAAAAAKQjcAQAAAAAAAAAAAABIQeAOAAAAAAAAAAAAAEAKAncAAAAAAAAAAAAAAFIQuAMAAAAAAAAAAAAAkILAHQAAAAAAAAAAAACAFATuAAAAAAAAAAAAAACkIHAHAAAAAAAAAAAAACAFgTsAAAAAAAAAAAAAACkI3AEAAAAAAAAAAAAASEHgDgAAAAAAAAAAAABACgJ3AAAAAAAAAAAAAABSELgDAAAAAAAAAAAAAJCCwB0AAAAAAAAAAAAAgBQE7gAAAAAAAAAAAAAApCBwBwAAAAAAAAAAAAAgBYE7AAAAAAAAAAAAAAApCNwBAAAAAAAAAAAAAEhB4A4AAAAAAAAAAAAAQAoCdwAAAAAAAAAAAAAAUhC4AwAAAAAAAAAAAACQgsAdAAAAAAAAAAAAAIAUBO4AAAAAAAAAAAAAAKQgcAcAAAAAAAAAAAAAIAWBOwAAAAAAAAAAAAAAKQjcAQAAAAAAAAAAAABIQeAOAAAAAAAAAAAAAEAKAncAAAAAAAAAAAAAAFIQuAMAAAAAAAAAAAAAkILAHQAAAAAAAAAAAACAFATuAAAAAAAAAAAAAACkIHAHAAAAAAAAAAAAACAFgTsAAAAAAAAAAAAAACkI3AEAAAAAAAAAAAAASEHgDgAAAAAAAAAAAABACgJ3AAAAAAAAAAAAAABSELgDAAAAAAAAAAAAAJCCwB0AAAAAAAAAAAAAgBQE7gAAAAAAAAAAAAAApCBwBwAAAAAAAAAAAAAgBYE7AAAAAAAAAAAAAAApCNwBAAAAAAAAAAAAAEhB4A4AAAAAAAAAAAAAQAoCdwAAAAAAAAAAAAAAUhC4AwAAAAAAAAAAAACQgsAdAAAAAAAAAAAAAIAUBO4AAAAAAAAAAAAAAKQgcAcAAAAAAAAAAAAAIAWBOwAAAAAAAAAAAAAAKQjcAQAAAAAAAAAAAABIQeAOAAAAAAAAAAAAAEAKAncAAAAAAAAAAAAAAFIQuAMAAAAAAAAAAAAAkILAHQAAAAAAAAAAAACAFATuAAAAAAAAAAAAAACkIHAHAAAAAAAAAAAAACAFgTsAAAAAAAAAAAAAACkI3AEAAAAAAAAAAAAASEHgDgAAAAAAAAAAAABACgJ3AAAAAAAAAAAAAABSELgDAAAAAAAAAAAAAJCCwB0AAAAAAAAAAAAAgBQE7gAAAAAAAAAAAAAApCBwBwAAAAAAAAAAAAAgBYE7AAAAAAAAAAAAAAApCNwBAAAAAAAAAAAAAEhB4A4AAAAAAAAAAAAAQAoCdwAAAAAAAAAAAAAAUhC4AwAAAAAAAAAAAACQgsAdAAAAAAAAAAAAAIAUBO4AAAAAAAAAAAAAAKQgcAcAAAAAAAAAAAAAIAWBOwAAAAAAAAAAAAAAKQjcAQAAAAAAAAAAAABIQeAOAAAAAAAAAAAAAEAKAncAAAAAAAAAAAAAAFIQuAMAAAAAAAAAAAAAkILAHQAAAAAAAAAAAACAFATuAAAAAAAAAAAAAACkIHAHAAAAAAAAAAAAACAFgTsAAAAAAAAAAAAAACkI3AEAAAAAAAAAAAAASEHgDgAAAAAAAAAAAABACgJ3AAAAAAAAAAAAAABSELgDAAAAAAAAAAAAAJCCwB0AAAAAAAAAAAAAgBQE7gAAAAAAAAAAAAAApCBwBwAAAAAAAAAAAAAgBYE7AAAAAAAAAAAAAAApCNwBAAAAAAAAAAAAAEhB4A4AAAAAAAAAAAAAQAoCdwAAAAAAAAAAAAAAUhC4AwAAAAAAAAAAAACQgsAdAAAAAAAAAAAAAIAUBO4AAAAAAAAAAAAAAKQgcAcAAAAAAAAAAAAAIAWBOwAAAAAAAAAAAAAAKQjcAQAAAAAAAAAAAABIQeAOAAAAAAAAAAAAAEAKAncAAAAAAAAAAAAAAFIQuAMAAAAAAAAAAAAAkILAHQAAAAAAAAAAAACAFATuAAAAAAAAAAAAAACkIHAHAAAAAAAAAAAAACAFgTsAAAAAAAAAAAAAACkI3AEAAAAAAAAAAAAASEHgDgAAAAAAAAAAAABACgJ3AAAAAAAAAAAAAABSELgDAAAAAAAAAAAAAJCCwB0AAAAAAAAAAAAAgBQE7gAAAAAAAAAAAAAApCBwBwAAAAAAAAAAAAAgBYE7AAAAAAAAAAAAAAApCNwBAAAAAAAAAAAAAEhB4A4AAAAAAAAAAAAAQAoCdwAAAAAAAAAAAAAAUhC4AwAAAAAAAAAAAACQgsAdAAAAAAAAAAAAAIAUBO4AAAAAAAAAAAAAAKQgcAcAAAAAAAAAAAAAIAWBOwAAAAAAAAAAAAAAKQjcAQAAAAAAAAAAAABIQeAOAAAAAAAAAAAAAEAKAncAAAAAAAAAAAAAAFIQuAMAAAAAAAAAAAAAkILAHQAAAAAAAAAAAACAFATuAAAAAAAAAAAAAACkIHAHAAAAAAAAAAAAACAFgTsAAAAAAAAAAAAAACkI3AEAAAAAAAAAAAAASEHgDgAAAAAAAAAAAABACgJ3AAAAAAAAAAAAAABSELgDAAAAAAAAAAAAAJCCwB0AAAAAAAAAAAAAgBQE7gAAAAAAAAAAAAAApCBwBwAAAAAAAAAAAAAgBYE7AAAAAAAAAAAAAAApCNwBAAAAAAAAAAAAAEhB4A4AAAAAAAAAAAAAQAoCdwAAAAAAAAAAAAAAUhC4AwAAAAAAAAAAAACQgsAdAAAAAAAAAAAAAIAU/rwAAEBLrF+3trqFjX0b7t2/8IPf6b/3/JPcufttudu51W7Pfn3/+YU3AAAAAAAAAABg+QjcAQBIrY7WI1iPWD0C9fXr15Z11XMvLAjZny5cX2516H57du7e42/KzMxcmen8HFH8wn8GAAAAAAAAAAA83po1z7/6XQEAgFVUB+xbB/qrgL2/f/5x/Xwb1KF73GZmvy63Z+bKV9Mz5cb0rPgdAAAAAAAAAADuEbgDALBiFobsW17sK/19L3Qe97UmYl+sCNwjdI/gXfgOAAAAAAAAAEAvE7gDANA1Ea8PD26uYvaI2uNnnl5E7jHx/erkTdE7AAAAAAAAAAA9QeAOAMCyiOnsOwY3l+GhTWXLvZg9nmN5ReR+Y3qmXJ28Va5O3awCeAAAAAAAAAAAaAuBOwAAixLx+p6R7dV09t2d+419GworLwL3K1M3Be8AAAAAAAAAALSCwB0AgKe2Y3BT2b1rezWhPR6TTx28/+Hi9er+zt1vCwAAAAAAAAAANIXAHQCAR6qntP9s1/YqaI+faZYrU7fKmbOTprsDAAAAAAAAANAIAncAAH4gIvaD+4eqSe2mtLfLjenZcuHitXLh0rXqMQAAAAAAAAAAZCNwBwCgitrHDu0sw4ObRe09Iqa5R+ge093F7gAAAAAAAAAAZCFwBwDoUSa1U4vYffzk5Sp4j8cAAAAAAAAAALBaBO4AAD0mYvZfHd1Xtg70VZE7LHRl6lY11f3MxGQBAAAAAAAAAICVJnAHAOgBEbKPHdpZxkZ3itp5KjHJ/crUzfLB8fOmugMAAAAAAAAAsGIE7gAALVZPa497WCxT3QEAAAAAAAAAWCkCdwCAlokJ7Qf3D5WDB4bK1oG+AsslJrlfuHStjJ+8bKo7AAAAAAAAAABdIXAHAGiJCNvHDu0sY6M7q8fQTacnJssHx88L3QEAAAAAAAAAWFYCdwCAhtvYt6EK22Nqu7CdlRah++/OTpYrU7cKAAAAAAAAAAAslcAdAKChImw/dnRvFbbDaovA/YPj54TuAAAAAAAAAAAsicAdAKBhhO1kJnQHAAAAAAAAAGApBO4AAA0hbKdJvrh0rbxz5Gy5PTtXAAAAAAAAAADgaQncAQCSW79ubRk7tLOMje6sHkOTnJ6YLB8cPy90BwAAAAAAAADgqQjcAQASGzv0cjl2ZJ+wncYbP3W5jJ+8LHQHAAAAAAAAAOCxBO4AAAntGNxUPjv187Kxb0OBtoi4/f3j58uZickCAAAAAAAAAAAPI3AHAEgkgvYI2yNwh7aK0P2lkY9McwcAAAAAAAAA4E/8qAAAkMKxo3vL9akPxe20Xizk+OP0J+WzU2+5SgEAAAAAAAAAAD/wZ2v+csvfFwAAVk0E7ecmDpf/93//d/nxj/+iQK/YOtBfdu/aXu7c/bZ8NT1bAAAAAAAAAABgzZrnX/2uAACw4tavW1tNbR8b3Vmg152emCwfHD9fbs/OFQAAAAAAAAAAepcJ7gAAqyCmtv/zub8rf/V/XiyAae4AAAAAAAAAAMwTuAMArLATHx8op068UU1wB74Xr4k9u7aX/v4NVeQesTsAAAAAAAAAAL1lzZrnX/2uAADQdRv7NpRzE4fL1oG+Ajze7dm58ubop+XK1K0CAAAAAAAAAEDvMMEdAGAFHDwwWM5PHK4id+DJYpr7wQNDpawp5arIHQAAAAAAAACgZ5jgDgDQRRHpHju6t4yN7izA4sQU95jmHlPdAQAAAAAAAABoN4E7AECXxLT2cxOHy9aBvgIsTcTt+/b/ptyYni0AAAAAAAAAALTXn635yy1/XwAAWFY7BjeVLy+9W0XuwNLF1RD++s2XSllTytWpWwUAAAAAAAAAgHYSuAMALLOxQy+Xf/rsb8qPf/wXBVheOwY3l/Xr15bL/zZdAAAAAAAAAABonzVrnn/1uwIAwLI48fGBMja6swDddWN6tuzb/5tye3auAAAAAAAAAADQHgJ3AIBlsH7d2nJu4nDZMbipACsj4vaXRj4SuQMAAAAAAAAAtMiPCgAAS7Kxb0P58tK74nZYYfVrL+4BAAAAAAAAAGgHgTsAwBLUge3Wgb4CrLx4DV6f+tBrEAAAAAAAAACgJdasef7V7woAAM/M9OjVc+fut/dvt2e/ru7v3pn/eWZ27t7vfFP9HG7fe+7B//yjPPg3Xfjzxr4Xqvv+e8/1928o69et7dyeq+7jd+OelffG6KflzMRUAQAAAAAAAACguQTuAACLENOiz00cFrd3SQTpEaDfmJ4pMzNzVbQewfqN6dknxulZxLZRx+5bBvrn71+cvzdtvHtE7gAAAAAAAAAAzSZwBwB4RhEnx+R2U7qXZn76+lwVsX/1nzPl7t3/LlembjYmYF+q2I7m4/e+aip8xO/1cyyNyB0AAAAAAAAAoLkE7gAAzyAmcl+f+lCE/IwiWI94PaaxfzU9Wz2OuJ0/VU94j/B9eGhzFb+b+P7sRO4AAAAAAAAAAM0kcAcAeEoRt8fk9rjn0SJmvzE9W01lvzp1s3osZl+aOnofHtxctrzYV3Z07i2yeDKROwAAAAAAAABA8wjcAQCegrj90erp7Fcnb96bzn6r0H0RvNfR+/ykd9vmg2LbfGnko2qRBQAAAAAAAAAAzSBwBwB4AnH7D9UT2i9c/A9BeyKxfe4Y3FR+tmu7Ce8LiNwBAAAAAAAAAJpF4A4A8BgRCUfcHpOye9nt2bly4eK1cuHStSoUjmiY3CJ2j+nuu3dtt/12tt+I3OMeAAAAAAAAAIDcBO4AAI9xbmKs7BnZXnpRTGaPKe0XLl0XBjfcwunuvbo9xza8bfC9cufuNwUAAAAAAAAAgLwE7gAAj3Ds6N5y7Mje0kvqqP3MxJQp7S0VVyXYM7Lt/nT3+LlXxPYdk9wBAAAAAAAAAMhL4A4A8BBjh14uJ46/UnqBqL23vb5/sKcmu4+fulzePnK2AAAAAAAAAACQk8AdAOABG/s2lOtTH7Z6snWE7OMnL5czE5Pl9uxcgdjudwxuKq8d+Gl132ZvjH5aLegAAAAAAAAAACAfgTsAwAIR+X556d3qvm0iaj9zdrJcuHStmtoOjxLb/7Eje8vw0ObWvha2Df7S4g4AAAAAAAAAgIQE7gAAC3x+6q1ycP9QaZMb07PlzNl/ryZWR9gLz+L1/YOtnOoecfu2wfc6r4lvCgAAAAAAAAAAeQjcAQDuGTv0cjlx/JXSFjGl/YPj50xrZ1nUU91379pe1q9bW9pg/NTl8vaRswUAAAAAAAAAgDwE7gAAZT7e/eP0J6XpYkL7+MnLVbhrWjvdEK+VmOb+q6P7qsdNt2//ePni0rUCAAAAAAAAAEAOAncAgI6I25sc6wrbWQ2v7x9sfOger5efDPxt5/6bAtBtcQWMeN9ZeCWMhz1Xqz/TfbYDAAA0V+zvPW7f72Hid+0LAgAA0MsE7gBAzzt2dG85dmRvaaLbs3Nl/OS/lDMTU054sGoidH/twE+rye5NFBPcY5I7wLOoA4VY5LN+3XOlv3O/sX9+wc/w4Ob74UK9COhpI4YnWRg5LHx8e/brcjd+vjP/XDyO5+5U93O+JwAAACyD7/cD11b7gus691tf7OvsE75w/5/XvxP7YvXvPkvc/jA/3P+bu3f//X5gmOk8H8/Vv1P/HgAAADSRwB0A6GlxgiGmtzdNnJx4//i5KmyHLCJwj4nuTQzdI3CP0B3gQXtGtt0P2Le82F99d6gDhSZZGLpH8DAzM3c/frgxPSuABwAAKD8M2LcM9FcLmSNerxcvN21/sA7dY59vprP/d7uzL/jV9IwAHgAAgPQE7gBAT7s+9WHZOtBXmkLYThPERPcI3esTf00Qr61tg+91TvZ9U4DeFN8HNva9UIaHNt2PF5r0HWGpInaI0L0KHe4FD8J3AACgzeb3+/rLlmoC+4ayY3Dz/QnsvSL2++K42Ff/OdPZD5y9vwgaAAAAVpvAHQDoWa/vHyqfnXqrNEHEZeMnL5fxU5eFZjRG00L3eH29feRsAdovYoXdI9urSXwxka++8kQvRQxPq47cr07eLFenboreAQCARor9vVjEPDy0+X7M3qThDCtp4QLoq5O3Oo9nTHsHAABgxQncAYCeFCcvvrz0bvqTGMJ22qBJoftPBt5xwg5aKN5/hgc3V9PZRQxLF6HDjXuhQz3pHQAAIJsI2g8eGKr2B3vpCl3dEMfLYt8vFj/HfuCVqVsFAAAAukngDgD0pGNH95ZjR/aWzL64eK28c/Ss2JZWiJj04P6h6rWXWZyce2nkowI0W7znxIT2uMy8oL374rvKlamb5Q8Xr1f3FuUBAAArLfb7ImJ/7cBQtR/oCl3dFfuBcTtzdrK62pdj2AAAACw3gTsA0HPiZMcfpz8pWcUknHeO/N4UHFopXn+xuCSmZ2UVgbvXHzRPhAwRtcf7i6B9dVVT/aZuVqGD6e4AAEA3RMAe+37VAudd26v9QVH76qkXPv+usx/ouBoAAADLQeAOAPScz0+9VU2Sziamnb5//HwZP3W58GRxwur7E1kvVM/1dx6vX7+2rKv+2XP3f2fhya0Hf67Fv/+FE2cX/nx79utyN36+M//cTOeEzZ2731SPhXuL8/r+wfKro/tSRqimuENzxHvI2KGdVcggas9J5NAer3e+P3/W+R4N5HC687765qHfltXmvaE3vDH623JmYrLwbHYMbipfXnq3sPp+MvCO6dItEoubYz9w2NW60opjpl9culZd5Svuaa7sw4Kg18T3mfheAwDQK/68AAD0kDggmzFu/+LitfLO0bNOtj2gDti3DvSXLS/2VeF6PK6fX+7/rkdPedr02P9sHbrPx+9fl9szc+Wr6Zn7z/GnTk9MdU5wXS9jozvLsaN7SyYRIcRNiAk5idqbJf5GET/GrY7d/+HkZQvEAKBBhjv7RwJ3YDVF1B5B+/BQHLPZbFJ7cvH3qfcDxe4AAAAslsAdAOgp2ULaCL3eOfL7KvTtZQ+G7Fs693Hiqiknq+J/ZwTRD1PH7xG81+G7cHpeddWCj89XoURMtcsUqsZ0+SumuEMa8f4QMUN8jovam+vB2D2uXHN16qYFfgCQ3J5d21NcMaBpLHiHpYug/diRfY887kZ+C2P3etHzB519QfuBAAAAPInAHQDoGdmmt4+fvFzFvb14wjP+FjFtKWL2CBYjZm+rOn5/8ERcRO83pmfK1clb96e996r6sprHjuxNswjFFHdYffXip18c2ln2jGw3oa9l4m/7+am3qsenJybL785Oes8FgKTq/Vqf1c9G4A6LE8cJ46pd9QAM2mPhouc4FhrHx10hBAAAgEcRuAMAPSNLOBsnON8c/bSnprbHyYvdI9uroF2kOC9O0MXt9XuLLiLyjhM7Fy5e69ngPds0d1PcYXVUAdXQpvLa/p92PjO2FdrvwanuFzrfke7c/aYAAHnE4nSBO9BNddi+27HDnhB/71j0HMfsL1y6VsXuproDAACwkMAdAOgJWaa3x8ngiNvbfrA+TkLFSYrdu7ZXJ6UyxMrZxb+juNUxZ33J3j9cvF7d98rkt3qa+4njB6qTmqvJFHdYWfHZcfDAUBkb3elzo0fVU93js0DgAAC5DA9tLuXj8wVgOdVXiHitsy8YV3sUtvee2A+M4wBxi6t7fXD8vP1AAAAAKgJ3AKAnxAmS1RRxckwkHT91ubRVFSbuH6qi9ojbnZBamoWX7A0RWZ85O1muTt3siZM8bx89W02yjynqqxm6/uLQToE7dJmwnQcJHAAgnwhQ1697zlVWgGUR+4F7dm0rvxj9q+o4IoT6WKj9QAAAAILAHQDoCb86uresljgQv2//b8qN6dnSNguj9jjZTffU08RDr8Tupyemqv+v5ybGOic7+8tqmJ8eJuKAbhC28zQEDgCQx+6RbeVM5zMZYLHqY4nDQ5vKnpHtBR6m3g/84tK18s6Rs/YDAQAAepTAHQBovYiCVyuc++LitfLmod9WE9zbopqw1DkBNX/pYFH7auil2D3+P20bfK8cO7K3HFuFhSqxvY+Nvlze//h8AZaHsJ3FiLghFh1FVBefewIHAFh5w539UIE7sFh7RraVTz5+xX4gTy2OQcfNgmcAAIDe9KMCANByEdGthvc7B933HRhvTdweQfWJjw+UP05/Uj479Za4PYn4O3ze+Xu0/e8Sgfmbo5+uyutpeGhzAZZHRMpfXnq3nDh+QNTAM4ttJhY8xTYUUx8BgJW1Z5dpy8Czi2NV8R3+3MRh+4EsShxLiGOfMfwirrQIAABAbxC4AwCtVl/2diVFgPvSyEetmPg8P716Z3USKm7xOJ4jpzocjRM+sd237aTh6Ympsm3wlys+rWnhxHxgceqgIRbibB3oK7AU8flWL+6KaX4AwMqI4wH2jYCnVe8Hxs17B8shFjxfn/q1Bc8AAAA9QuAOALTaSkdPEd5GgHtl6lZpsjhpHRNxIhyLqe1OQjVLHf5dn/qwiknbFLrHaywWkNyYnikraXjQFHdYjPj8ODcxJmigK+LzLbavtn3WAUBm9o2AJ6mPS9kPpBsWLni2HwgAANBuAncAoNV+tmtbWSk3pmdXZbr0coqTTnGC4L9m/7GaiGNae7PF36++hG+b4r/5hSTvlfGTl8tKOXjAZCh4FguDBhO26bb4rItFXXGlGQCgu4aHBO7Aw1VXgjz08v0rC0I3xXGH+pinY9gAAADtJHAHAFptpaK6M2cnq7j9zt1vSxMtvGSwE1DtVIfubZqe9fbRs+X94+fLSoiTZlsH+grwZHEFEJ8nrLQIGuKqM6b4AUB3xf7k+nXPFYCF4hhs7AeeOP5KgZU0v+D51+XggcECAABAuwjcAYDW2r1CcXsEtm8c+m1pooVhu0sG94a2/c3f//h8efvI78tK2G0KNTxWLAKJKdpxBRCBMaulnuIXCy0AgO44uF9ECMyrF5qemxgzGIBVs7HvhfL5yZ93tsPDZXjQlUYAAADaQuAOALTWnl3bSrdF3B6BbdNE/CVs72116B6X8W16iDp+6l/Lm6Oflm4bHnKCDB4m3kMiJo64XdBAFrHQwjYJAN3hOAIQYnL2f83+Yxkb3Vkggz0j28rnp/5/teACAACA5hO4AwCttWWgv3RTE+P2eqpSTDZ1QpoQJyNje2h66H56YqpsG/xluXP329It8ZpZv+65Anwv4uFYLBMxMWRTb5+CGwBYXhb/Qm+L40dxfPGTzg2yiWnue0a2O/4NAADQAgJ3AKCV4kRLNyd2NjFuHzv0cnVgX+TFw0ToHpNuYwpzU92Yni0vjXzU1ch968D/KsD8gql6anvTrwJBu9WL+2yrALB84vNVNAi96eCBwXJu4nB1fDHeCyCr2P+LbfWEhRgAAACNJXAHAFqpm9Pbmxa3x0nniLpOHH/FiSceqwpWj+ytFkLEpKMm6nbkPjxoUiGY2k4T1dutGA8Alsfuhu4zAosTx4w+P/VW+fzkz7s6VASWU2y3sRgjrlxpuwUAAGgegTsA0ErdipeaFLfXE0sj5nIAn2cxP+ForDr508Rpt92M3IeHBO70tnpan88Vmig+06rFGQ2+WgkAZLF7l8AdekW9WPTg/qECTRRXroxjGRY8AwAANIvAHQBopS0vLv8E9ybF7fXU9phQA4sVJ3+aegIzIvc3Rz8ty03US6+Kbb+e1tfEhS+wUFx9IBZxrV/3XAEAFie+E/peCO1nkTNtMT/Q43AZO/RyAQAAoBkE7gBAKy33SZemxO0Lp7Y70cxyiO0ootYmTnP/4tL1ZY/c4zXmtUWvafJiF3iU2K6vT/3aezoALMHuEVPcoc3+h727ianrTPNF/6hUk7IHcE4nw4DVk7YHVJC5Q7hYGZRbAjXYQygdEuskOnhQxBmZKB1EVSlmFIceGCmRkrgVGAbTMtJ1BhE0exgsUgzsUV9DD5NWwyDu4b1+N01VUvEHX3vvtdb7+0m7y+kudaWq9l57vWv/n/+TtvsZcqZK0nO9ifG/L+3WSgAAgNwIuAMAlZMeVKfXSZm9da8U4Xat7TTSfsC1bKt8P1+o1QdUTpLWMnIyNXkp3n/yOsnvVSiKFGgwFAgARzc0KOAOVZSe/Xy9PBnDhliooHT+S+/tiasXS/ecEwAAIDcC7gBA5Zxk+HSl9jCuTc5H0aXVqgJaNNp+EDAFXsskDaicZMi9s+PlgKpL36Vpe8PU9Uu+W6i09P5OA4JjI70BABxOumdsbzsdQHWM/bng4FxAVaUh/vReT4NaQu4AAADFJeAOAFTOqycUcH+0/X1cHvkoiiw9jE8/Ot288duAZkmB1xQGLFPoNYXc7yyvx0kQ9qXq0nv807m36j/2Qg7S/dRn9fe8kDsAHEb6Du3ueiWAakjPe9KgM+QgfYelTahjo32efwAAABSUgDsAUDkn0R6Wwu2vDXwQO7uPo6hSU1oKGWuZoRXS+y8NV5zkxoRGuzL+Sf2zfVwC7lTZ3ir6cn224aSkkHvZtpQAQKsNDfQEUG57BRqT7oXJ0l6T+/n6cxDP/AAAAIpFwB0AqJyTeBB9ZfzjEwnCNsrYaG89gOihO62U3n9pyCK1HZVBGlg5icGVzs6XA6oohRm+XHjbdwtZS62Vgj0AcHBDgwLuUHbpGeOF3nMBuRoe6Kk/D+nu6gwAAACKQ8AdAKic44ZPp28sxkrtYRRVCl19duutersSFMHNmdHShAHT4MrlkY/iOHz2qJr0nn59pK8e7PX+BiF3ADiMNBxpQBLKKX12v1yYsMELYu/z8P6Tc+DE1XIUeQAAAORAwB0AqJzjhPPu3F2P6ZnFKKp6kPi6wBXFk96Xn869GWWQBlhmb92LoxLeoGrSj7dl+fxCswi5A8DBDQ1ocYey2Qu3v11vrgb2pGGPsZG+mBj/zZPfGE4HAAAArSXgDgBUzlED7qnZ+Z3J+Sii9O/ps7k3nzxc1yBDcaUG6Pu1P5biB6BrTz7rx9nU4EcuqiIFeA1OwdOVaXgLAFppaFBAFsokhXhTuF1zO/xc+lwMD/5fcaH375RcAAAAtJiAOwBQOUcNuF8Z/7geci+a9O/n6+V36+0xUHTpR6CvlydLEQBPn/md3cdxFO1tvwooO1tB4MXS8JYmdwB4vnQONAQM5ZACu6mcQLgdnq2/92y8P3lZwB0AAKDFBNwBgMo5SsB9+sbisdqcG2U/3O5HJ8okvV/v1/5Q+B+B6lsbrn8RkJv02UyBXVtB4GDSIIiQOwA8W3p20d31SgDFNjxwvv6cEXix9Hzzw5nfxthIbwAAANAaAu4AQPZSyHV6ZjGKRridMksB2vT+LXqL3+cLtbizvB6Qi/TZHBvt09wOhyTkDgDPNzTQE0BxXeg9Ww/raqSGg0vP5T+be0tBAAAAQIsIuAMA2Xtt4IMoIuF2ym4v5D5Z+JD7lfFPYmf3cUAOhgbPC7fDEaXPzrDwHgA81dCg70goqvR88dO5t4Tb4Yhe/XVH/XNU9GecAAAAVSPgDgBkbfbWvXqDe9F8NvemcDuVkN7HXy5MRJGlcPv0jS8Dqi61T9+88dsAju5T92gA8FQpOCs8C8WTmtu/XHjb5xOO4ULvueh/8mpv+1UAAADQPALuAEC2UrB9emYxiiYFEMdG+gKqIv2YmgKBRTY791Ws1B4GVNXE1d9obocT0N52SkAIAJ5hyKYTKJR0z6q5HY4vfYZuzozG+56rAAAANJWAOwBQOamN+SBSY/NB/7nNksLtAohU0esjffX3d5G9c/2LgCpKn7+J8b8P4GSkcMPXy+8GAPBTQ4MC7lAU+/eswu1wcl4f7YsPZ0ajve10AAAA0HgC7gBA5RwktJ6amm8v1KJIhgd6hNuptPT+HhvpjaLa2NyO2Vv3DvTP3dn9r4AySGGG9ycvCTXACdtrwyz2dhIAaLburg6hPyiA9DnU3A6NkZ7hp+ebPl8AAACNJ+AOAFTOQQLuV8Y/jiJJD8RT+wtU3c2Z3xb6B6DpmcUDXUN2dn8IKDqNfdBYe9sRLgYAsKe97VRc6P27AFrrw5mRJ5/FswGcvPSMZWy0z7MWAACAJhBwBwAq50Xh1M/n1+LR9vdRJAKI5CIFHtL7vaitfun68aIW94ME4KHV9tqlNfZBo01NXqq31QIAe/p7zwXQOml7XhrEBBonnQE/nPmtsyAAAECDCbgDAJWztfXdc//vv59ZjCK5OTMqgEhW9jYWjERRzc7de26IvWgDMvDX0iDJxNWLGvugCYo+uAUAzZZabYHWSOH2NIAJNF56vvm/nnznOQsCAAA0joA7AFA5zwufFq29PTUqTYxfDMhNeu+PjfRGEb2oxV2DO0WXwu2+W6B5Usj907n/HQDA3veiRltovjTgLNwOzbP3fdf55PVKAAAA0BgC7gBA5Ww9J8BepPb21PLyvh+eyNjNmd8WdnvB81rcv/3TVkBR1UMN1323QLMND/QYLAGA/9bfey6A5kkN0h8+ecYCNFd6BpM+ezboAQAANIaAOwBQOf/5jFBq0drbU6tSUcO90Ax7jbdvRRE9r8W9SNcR+LH0g6rBKWgd93YAsGdosCeA5kj3n/drf7A5AVokffY6O18OAAAATp6AOwBQOd9uPr1duUjt7a+P9MXYkxfkLgVyU+ttET2rxf1Z1xhotfS9ckFbJrRMGtz6cuHtAIDcpXNeapQGGivdfxqyhNb77NabWtwBAAAaQMAdAKic1K7816HUldrDQrUua9iFv/hwZrSQ4YdntbhrcKeIpq5firFRg1PQaqm9b2L8YgBA7oYGzgfQWMOD5xVoQEF8OvemYRMAAIATJuAOAFTSxub2T/769vy/RlFoVoKfSp+HifHfRBEtLa//5K9T6F3AnaJJgdopg1NQGDdnRt3rAZC9fk220FDpHPjprbcCKIYzHS/Hq7/uCAAAAE6OgDsAUEnf/mnrz39OYdTbC7UoghR20qwEPzdx9WIhW9zTsEzaAPHjv4aiSVsQgGL5dE7YCIC8DQ/2BNA4Xy68HUCxLM6/XR8+AQAA4GQIuAMAlfTjQOrK2oMoCu3t8HTtbafiw5mRKKJ/nl/7859XC3Q9gWTq+qW40HsugGK50HvWUCMAWUtnvAta3KEhPF+E4nrfhj0AAIATI+AOAFTSau0vIdTfzyxGEWhvh+d7/cnno4g/0N5ZXo+d3cf1P//42gKtlgJDU344hcJKn88ibicBgGbpN4gJJ87zRSi21OBuwAsAAOBkCLgDAJWUwqiPtr+Pjc3t+j8WgRAivNjE+MUomnQ9Wbq7Xv/zxua/BxTFp3NvBVBcKXw0Mf6bAIBc9fcJuMNJ094OxXam4+X43dXiPd8EAAAoIwF3AKCyUiD19vxaFEH64UlzGbzY2GhfIdtuby+sxUrtYezs/hBQBEXdeAD81MTVi1rcAchWarD1PQgnJzVDa2+H4hse6Km/AAAAOB4BdwCgspaW12O19iCK4ELvOUFEOID2tlOFbLtN2yBuz/9rQBGk75MPZ0YDKL70vfbhzEgAQK6GBs4HcDK+XHg7gHJ43zZXAACAYxNwBwAqKwVS06sIPNCGg5so4Brfnd3HcXuhFlAEaSV9Cs0C5WDjAgA56+89G8DxuaeEckmfVy3uAAAAxyPgDgBUVgqkFkFaye0HKDi4FNy9IAQBT5W+T6ykh/Ix7AhAroYHhfvguNI50P0klEt6vulzCwAAcDwC7gAADTY2KogIh/X+5OUAfu7r5XcDKJ/UuGl4C4AcGWCG40tbvJRnQPl0d3VocQcAADgGAXcAgAYb8hAbDi39ANTedjqAv7CSHsrN8BYAuervPRc5KspmQcrNFi8otw9nRgMAAICjEXAHAGig1FKW2sqAw0mfm6GB8wHssZIeyi/dF2qwBSBH/X0C7nBUXy68HUB5GVIBAAA4OgF3AIAGGhv18BqOql8IEP7MSnqoBi3uAORob/jfhi44rLTFK224A8ptSmEBAADAkQi4AwA0UK5ruOEkDA/2BKDtC6pEizsAubKhCw4nbbazxQuqIT3XGR7wnBMAAOCwBNwBABokNSxp24WjSz/mCgFCxKdzbwVQHVrcAciRDV1wOGOjvZ4rQoX87urFAAAA4HAE3AEAGqS7qzOA43nV54jMDQ+cN+gBFaPFHYAc2dAFB5cG/qeuG4qEKnEOBAAAODwBdwCABunv88AajuvVro6AnP3u6t8HUD1a3AHIjQ1dcHBTk5fqnxmgWpwDAQAADkfAHQCgQTRPw/Fd6DsXkCvtXlBd3V0dcabjpQCAnAwNaHGHF0n3iGMjfQFUT3rG063MAwAA4MAE3AEAGsTDaji+9MNue9vpgBz97urFAKopNXIKLgGQm34DzPBC2tuh2gx7AQAAHJyAOwBAAwi3w8k50/E3AblJ3yMXegWAoMrGRgXcAchLusc1wAzPloLt/c6BUGkTVy/6LgQAADggAXcAgAbQtAQn59WuzoDc7P3g6bsEqixtKRkeOB8AkJOxkd4Anm54oKd+jwhU1942L9+FAAAAByHgDgDQAK9qcIcTI+RLblKgYWxEszPk4HdX/z4AICcXes8G8HTvT14KoPqGBnsCAACAFxNwBwBoAGtG4eRoLyM3E+MXA8hDd1eH7zkAstLfd84zE3iK10f63BdCJtKwV7eCHAAAgBcScAcAaAA/SMHJadPgTkbSxgJNXpCPvfX0NjYAkI/03dfd9UoAP6W9HfIyNODZDwAAwIsIuAMAAIV2pvPlgFxoc4b8pCZbAMiJUB/8VGpzdg6EvExctb0PAADgRQTcAQAaoK1d4zQAh/fhzGgAebGeHoDc2FgEPzU2aqMP5CZtNElnQQAAAJ5NwB0AoAHa204HABxGCrh2d3UGkB9NtgDkJDVVa6uGPSnkOjYi4A45cg4EAAB4PgF3AAAAKABNlpAvn38AciPUB3uE2yFftjcAAAA8n4A7AEAD7Oz+EABwUFr7IG97Gxw6AgByYbgL9vgsQL7Ss6ALvWcDAACApxNwBwBogN2dxwEAB9Xfey7OdLwUQL7SdQAAcpEGu9rbTgfkLJ0BhVshbzaaAAAAPJuAOwAAUGi7OzYiUH3Dg+cDyJtwEwA5Sa213V2vBORsYvxiAHkbG7XNDwAA4FkE3AEAGuDR9vcBnAyfJ3KgsQsYGuzRZAtAVtwDk7t0/wfkLQ18GXYGAAB4OgF3AIAG2NnVOA0nZWf3cUCV9feeq/+gCSDYAEBOhHvJ2ZmOl+ovgPRcCAAAgJ8TcAcAaIBH2/8RwMnQ4E7VvT7aGwDJPwycDwDIhYAvObPBANjX3yfgDgAA8DQC7gAADfDt5lYAJ2Nr+7uAKhNsAPa9PtoXAJAT98LkauLqxQBI0iav9rbTAQAAwE8JuAMANIDGaTg5G5v/HlBVaQ11e9upANinyRaAnAwNCriTn+6uDvd8wE8M2eYFAADwMwLuAAANIuQOx7ez+/jJ64eAqurueiUAfqy/92wAQC5S0FdrLbnp7uoMgB9L34cAAAD8lIA7AECDrK49COB4Nja3A6ps4urfB8CPpc0OAJCLtM3I0Ce5+YdBTc3AT9loAgAA8HMC7gAADbKxuRXA8RgUoeqspQf+2uujfQEAORkaEOojH2moY9h7Hvgr6fmQjSYAAAA/JeAOANAgq7WHARzPak3AneoS5AGexfALADnRWktOhNuBZxkasN0BAADgxwTcAQAaZGNzO3Z2HwdwdCsGRaiwYWvpgWfo7z0bAJCLNNhluItcvNrVEQBP0+36AAAA8BMC7gAADbR0dz2AoxFup+r6e88FwNO4PgCQG9uNyIWNBcCz9Pc5BwIAAPzYLwMAgIZZrT2MsdG+AA7v9vy/BlRVauXSUpm3R9vfx0rtQXz7p63Y3f2vJ3/93VP/eWc6Xo7OJ++V9rZT8eqvO+OCZu8sdD/57xoAcpJCv7Nz9wKqLN3TOwfmLW37vLO8Hltb38fWkzPhs86B6b3SWd9u8XL9HJieIaT/HdW299/z6Sfvkx8CAAAAAXcAgIZKP1h8uDvqBwg4glUN7lRYd5fwao7SZoqlu9/E7YVaPdhwMD+/FqaQ+9hIX73dTUCmms7Uwywv1QchACAH6f5GqI+qG7apIEvp7Dd7696T51wPjrWtMIWf0zkwDQQ5B1ZXd9crtloCAAD8t18EAAANk37AWFl7EMDhpB9yhPqosn4t3FlJ17TXBj6ov2bnvjpEuP3Z///euPpJ/G3XO3Fl/GPXywrS7glAji70/l1AlXW6v8tKOqe98eS89j87/k9MzyweO7S8sbkd1ybn6+fAdLZMf031vKoQAQAA4M8E3AEAGuyfrNiGQ7s9/68BVdbZ+XJQfSnIfu36fD180KgGts8XavWAw/SNxaBaBBsAyE1/77mAKksbmMhDamw/3/tefXtXI6TzZfr/b+C5el7t6ggAAAD2CLgDADRY+sHhuE2tkJP0w1yjfgCEIkitzBc0uFdeatNLgYPZJg26pUbAFHQXbqiO/j7XCQDyMjbaF1BVaUOPc2D1pfNYGnBOTevNeB6cBp4bOVBN83X/2qAzAADAPgF3AIAmSK09wMGsrD0IqLILmikr7/b8Wj1k0Oyw+X6YQsi9Gro1uAOQGQFgqqxbK3Pl7Z/Hmh023//X9fy5GlIpAgAAAHsE3AEAmiC1t2pxh4P5/cxiQJV1+rGy0lK4/Y2rn7Tsez+FG1Jz/MbmVlBuKeTX3nY6ACAn/YZBqagzHS8H1bW/wauVw8apNV7IvfzSOVDIHQAAYI+AOwBAE6SQWwq8Ac/3+ZPPieZhqu5Mpx8qq+rO3fV6uL3V0n3H5ZFZ19OSS8EGAMhNf5+AO9XUbztBZaVz1+WRjwpRbpJC7s1ukOfkGfYCAADYI+AOANAkqcUdeD7t7eTAD5XVlEINVwoQbt+3H7Kg3C4IQgGQmfTdZ4MJVdTZqcG9ilKo/bWBDwo1XJzOgYady02DOwAAwJ5fBgAATZF+WEgt7mOjfQH8nPZ2cuGHympKoYYiNPb92MbmdkzfWIypyUtBOb3a1RF3ltcDGmH21r1Y8v4qLffNVNnQwPm4vWALHtVicLGarl3/onDfyelcemX84/h6+d2gnDo9N6KBVtcexLSSmdIq2rNHAIBGE3AHAGii9OBwaLAn2ttOBfBT2tvJgVBDNaUQeVGDhnv3Hueju6szKB/3jDRSGoJZqT0MgKLpf3LPLOBOlRhyrqZU1HB7oRZFlO7x0jDjxNWLQfl0/9r5ncb5f588v3IOBACgLH4RAAA0TQq/pR8XgJ/S3k4uUhsz1ZKuXUVvvnrn+nxQTq8KNgCQoeHBnoAqudB7Lqieohc1pHOqpt9yMhQDAACwR8AdAKDJZufu+XEBfiSFQ7W3k4v2ttNBtUzf+DKKLjVzaecqp25DMQBkKG0wsfmIKmlr+1VQLWUoakjPnxWtlFP6HvT8CAAAQMAdAKDp0o8L71z/IoA96cc27e3kor9Pc1+VpGtXUVfS/7XflyCIz8+lYAMA5Khf4zUV0t1lK0/VlKWoIRWtUE5nOv4mAAAAcifgDgDQAp8v1DSpQuyFQ/3YRk6EVaulDO3t+9J9hw0y5aTFHYAcGQylStranQOrZOnuemmKGtIZ8M6Tv1/K51WDMQAAAALuAACtcmX8Y0EzsvfawAcBORFUrZbVkg2rWU9fTgZjAMjRhd6zT74DTwdUgQb3arm9sBZl8k+KJUrJORAAAEDAHQCgZVLTT5maX+GkTd9YLE3jFZyEMx0vBdWRGtHLdg1brT0IykdzHwC5Gho4H1B2KaQqqFod9Ub05ftRJrZ5lZNnSAAAAALuAAAtNTv31ZMfRayJJT/px7XpmcWAnAg1VMtSCde8lzGUj2sHAPnq7z0bUHYC7tWyulbOoeEynl9z1+a6AQAAIOAOANBqV8Y/ETYjK+n9fmX844DcWEtfLd9ubkUZCTYAAGUxPNgTUHbC7dWShobLaLWkf985O9P5cgAAAOROwB0AoMXSitjLIx9ZFUs2UrjdUAc56rReulLKGmwo6993zrq7OgIAcpSCwRe0uFNyAu7VUtZBZxtEy+eMZ0gAAAAC7gAARbCxuR3TN74MqLrpG4vClWRLsKE60vd2Wa3WHgTl0qm5D4CM9feeCygz7+Fq2dj89yijVKyibKJcPEMCAAAQcAcAKIzZua/q4V+oqtlb92J6xnscKL8yb10RbCgfwQYActbfJxxMuWlhro50ltrZ/SHKanXNsHOZOAcCAAAIuAMAFEoK/95eWAuomtR2fG1yPiBnnZ2CDVXxaOu7KDPBBgCgLC70no32ttNRVgYLoTrK/nne2NwKysWADAAAkDsBdwCAgrl2fd4PDlRK+gHw8shHAbk70/FyUA1bgg00UWruK3OwDwCOa2jgfAC0Wpk3eSXfbm4HAAAAlImAOwBAwaQfS14buKHli0pI7+PXBj7wfoYnurs6Aorg0fZ/BOVhNT0AuevvPRtQVp2dBp0phg0B99LR4A4AAOROwB0AoID2Qu5CwZSbcDtAMX2rwR0AKJHhwZ6AsjKsWB2Ptr6LMkvPm8veQg8AAEBeBNwBAApKOJgy8/4FKC6hhvJpb/tVAECuUkD4ghZ3SkrAnSLxnK5cOjtsgAAAAPIm4A4AUGBCwpSR9y1AsWnuKx/BKAByNzSgxZ1yOtPxUkBRPNoudws9AAAAeRFwBwAouP2w8MbmVkDRCbfD0wmnUjQC7gBAmfT3nQsoG+dAimZ3xzkQAACA8hBwBwAogb3Q8I24s7weUFQbm9vC7fAMgg0UjWt1ubiGAJC77q6OJ9+HpwOAo3MOLBcbIAAAgNwJuAMAlERqWr08Mhuzt+4FFM3t+TXhdngO4VTgOFxDACBibKQ3AAAAAIA8CLgDAJTMtcn5mL6xGFAU6f34xtVP6kMYwNN1drwcAADA0Q0N9gSUiSFFAAAAgKMTcAcAKKHpmcW4PPKRtmxaKgXar12fr78fgef7H4INAABwLN1dHdHedjoAAAAAgOoTcAcAKKk7y/fjtYEPhNxpifS+S++/2bl7AbzYf9pwAAAAx5LasLu7XgkAAAAAoPoE3AEASiyFjM/3vhezt4SMaZ47d9fr77uNze0ADkaDO3AcbdpqAaBuaKAnAAAAAIDqE3AHACi5nd3HcW1yPq6Mf6zNnYaqv9euz8fl0dn6nwEAAKCZhgYF3AHIQ7uyBAAAIHMC7gAAFfH5Qi1eG/ggVmoPA05aamuvbwuYsy0AAACA1jjT8VL9BQBV1ybgDgAAZE7AHQCgQlKDewq5X7v+hYZtTsz0jcV6uN2GAAAAAFptaECLO9B8ZzpfDgAAAKB5BNwBACpodu6reiD5zt31gKNK2wDS+2h6ZjEAAACgCIYGBdwBAAAAoOoE3AEAKiq1bV8enY0r4x9r3uZQUvv/tevz9W0AG5vbAcBPtVsTDgDQMt1dHU/ux04HAAAAAFBdAu4AABX3+UKtHlSevXUv4EU+n1+Lv+16J2bnvF8AnqVNwB0AoGXSsGF31ysB0ExnOl4KAAAAoHkE3AEAMpAa3K9NzteDy7fn1wL+2krtYX0Q4srVT+oN7gA82/8QcAcAaKmhgZ4AaCabvAAAAKC5BNwBADKSgu5vXP2kHmROf4b0Prg88lH9PZFC7gC8WGfnywEAQOsMDQq4A80l4A4AAADNJeAOAJChFGRObe5Xxj8WdM9Uamm/dn2v1f/O8v0AGmtn94egOgQbAABa60zHS/UXQDO57gAAAEDzCLgDAGTs84WaoHtmUrB9+sZi/b/32bl7ATRH+uxRHSnU0N52OqBZBGkA4OeGBrS4A83V3dURAAAAQHMIuAMA8JOge2p3p5o+n1+L/9nxf2J6ZlHYFuCYznT8TQAA0DpDgwLuQHO1GXSmic50vhwAAAA5E3AHAODPUtD9tYEP6q87y+tBtWxp6YeWsSWjel7t6gwAAFonNSnbqgM0kwZ3AAAAaB4BdwAAfia1uP/TrXsBwMk40/FSUC2CDQAArdXedurJPdkrAUVl0Ll6Xv21QWcAAABoFgF3AAAAgEMSbAAAaL2hgZ6AItvZfRxUh0FnAAAAaB4BdwAAAIBDEmwAAGi9oUEBd4pNwL1a0uYIG9oAAACgOQTcAQAAoMGspq+eFGwQcgcAaK0UNHVPBjSTzREAAADQHALuAAAA0GCvdnUG1dPfey4AAGgt92QUmbbv6rnQezYAAACAxhNwBwAAgAb7dnMrqJ6hQc19NEfaGAAAPJ17MqCZ+vsM1QAAAEAzCLgDAAAAHEFq7mtvOx3QaG0C7gDwTO7JgGZKw6da3AEAAKDxBNwBAAAAjmhspDcAAGitC71/FwDNMjRgcwSNd6bjpQAAAMiZgDsAAAA02KPt74NqGhoUbAAAaLX+3nMBRbSz+zionrHRPpsjAAAAoMEE3AEAAACOKK2mF2wAAGitFDaFItrY3A6qp73tVP0sCAAAADSOgDsAAAA0WForrcW9uibGfxMAALSOsClFtbX1XVBNv7t6MQAAAIDGEXAHAACABkvh9hRyp5omrl7U4g4A0GL9vecCimZn93FQTWmoxmANAAAANM4vAwAAAGg4IffqSo2hqcV9emYxyuL3N76Mf+54OSiHR9uaPwHgRfr7zkWU6H6MPAi4V9v7k5djZeCDKIul5fXYsl2uNFw/AACA3Am4AwAAQBMIuFdbanGfnfvqyQ/QP0QZrNQePvmfDwMAoCpSk3LaqlOW+zGg/PZb3PfOV8W3sbldfwEAAEAZ/CIAAAAAOJb9FncAAFpnaOB8QJFoy66+1OIOAAAAnDwBdwAAAGiK/y+ottTirqUfAKB1+nvPBhTJo+3vgmrbb3EHAAAATpaAOwAAADTBaklWlnN0qcX907m3AgCA1hge7Akokp3dx0H1pXNge9vpAAAAAE6OgDsAAAA0wdaW1fQ5SM19YyO9AQBA86WBQ03KFMmjbefAHKRNXlOTwwEAAACcHAF3AAAAgBN0c+a39YADAADN1997LqAoUoO7kHseJsYvGrABAACAEyTgDgAAAE2wUnsQ5CE1h3658HYAANB8/X0C7hSLgHs+Pp17y7AzAAAAnBABdwAAAGiCFGrY2NwO8tDd1RE3Z0YDAIDmSg3K7W2nA4pidc2wcy5SuN2wMwAAAJwMAXcAAABokkfb3wX5SCvq0wsAgOYaGjgfAK1g2BkAAABOhoA7AAAANMnu7uMgLynYMDbSGwAANE9/79mAotja/j7ISxp0npq8FAAAAMDRCbgDAABAk8zeuhfk5+bMb+stfgAANMfwYE9AUdjklaep65eE3AEAAOAYBNwBAACgSTo7Xg7y0952Kr5eflfIHQCgSdL91wUt7hTESu1h7NjmlaUUcrfRCwAAAI5GwB0AAACa5NvNLcGGTAm5AwA0V3/vuYCicA7M12dzbwm5AwAAwBEIuAMAAECTPNr+PpaW14M8CbkDADRPf5+AO8Wx8aetIF8p5D41eSkAAACAgxNwBwAAAGiS/ZD7hd6zAQBA46T7rfa20wFF8C/L94O8TV2/JOQOAAAAhyDgDgAAAE20uvYwyNt+yH1i/GIAANA4YyO9AUXwaPu7ACF3AAAAODgBdwAAAGii/9x9HJDcnBkVbgAAaKBWb815tP19QLJSM+jMnhRyT2dBAAAA4PkE3AEAAKCJvt3cCtgn3AAA0Dj9fecCimLHsDP/LW3zul/7Y5zpeCkAAACApxNwBwAAgCZqbzulyZGfEG4AAGiMdO/d6hZ32OccyI91d3XE18vvOgcCAADAMwi4AwAAQBNtbG7H0vJ6wI8JNwAANMbQQE9AEdye/9eAH0vnvzTsnIaeAQAAgJ8ScAcAAIAmW7or4M7PpXDDv21+KNwAAHCC+vvOBRTBlgZ3niJtmrg5MxpTk5cCAAAA+AsBdwAAAGiynd3HAc+Swg2fzr0Z7W2nAwCA40mbcmzJoQjuLN93FuSZpq5fqg88u14BAADAHgF3AAAAaLJH298LNvBcr4/0xf3aH4QbAABOwNBAT0ARbGxuBzxLOv99vfxujD05DwIAAEDuBNwBAAAACiiFG1KDn1X1AADHMzQo4E4xrK49CHiedA78bO7N+mYvW70AAADImYA7AAAAQIGlVfWpxU+bOwDA0XR3dQiKUghb298HHMTE+EVbvQAAAMiagDsAAAA02c7u45i+sRhwUBd6z1pVDwBwRO1tp6K765WAVruzvB5wULZ6AQAAkDMBdwAAAGiBpeX1etAdDmp/Vf2nT15a/AAADmdooCeg1dIZcKX2MOAw0lavFHR3DgQAACAnAu4AAADQAo+2v4+Nze2Aw3p9pE+bOwDAIQ0NCrhTDKtrDwIOS5s7AAAAuRFwBwAAgBb55/m1gKPQ5g4AcDjpnsl9E0Vwe8E5kKPT5g4AAEAuBNwBAACgRTY2twKOI7W536/9MSbGLwYAAM83NKDFndZL27x2dh8HHNV+m/vNmVFBdwAAACpLwB0AAABaZGNzW7CBY2tvO1UPNmjxAwB4vqFBAXeK4bZtXpyANOj89fK7MTbSFwAAAFA1Au4AAADQQpdHPgo4Cfstfp/OvSnoDgDwFN1dHdHedjqg1R5tfxdwEtLZ77MnZ0DnQAAAAKpGwB0AAABaKAVstLhzkl4f6dPiBwDwFGnzTXfXKwGtNjv3lXMgJyqdA9PA89TkJUF3AAAAKkHAHQAAAFpopfYgHm1/H3CS9lv8UsDhQu/ZAABgz9BAT0ARbGxuB5y0qeuXDDwDAABQCQLuAAAA0EKptW/6xmJAI6Sgewo3WFcPALBnaFDAnWKYvXUvoBF+PPDsHAgAAEBZCbgDAABAAVhPTyP9eF09AEDOUthT4JMiWK09cA6kodK1Lp0DDTwDAABQRgLuAAAA0GJLy+sBzZDW1aeAg3X1AEDOhga0uNN6Kdy+dNdZkMZLA8/3a3808AwAAECpCLgDAABAAUzf+DKgGfbX1aeAgxY/ACBHQ4MC7hTD7Ny9gGZobztl4BkAAIBSEXAHAACAAlhavm89PU3V3dVhXT0AkKV0H9Tedjqg1TY2t50Daar9gecvFyacAwEAACi0XwYAAADQcn5YplXSuvoLvedi9tY9DZKQkTOdLz357J8Niu/R9vf1F3ByUpNxd9crsVJ7GNBqaZvXzZnfBjTT8EBP/fX5wlr8/saiew3IRHv7KefAkkgDcGkQDgAgZwLuAAAAUAApXLOy9iCGB3sCmi0NWNycGY2Jqxdj+sZi3F5YC6Dapq5fikgvCi9dl6dnFgM4WUMDPQLuFELa5jU1ebk+eAHNtj/w7BwIedgfbqH40n3qawMfBABAzn4RAAAAQMulMMO/LK8HtNL+uvpPn7xsFQCAchDSPpqx0b6AIkjN2RpaaaX9c+C/bX6o2RkAAIDCEHAHAACAAkhrZ1M4SbCBIkgtfinckFrdBd0BoNhW1x4Eh5cGTLu7OgKK4Mr4xwGtls5+Xy+/a+AZAACAQhBwBwAAgIJIzX2/v7EYUBQT4xfrAYexEQ2nAFBUqzUB96Pq7z0XUATpLJheUAT7A89Tk5eive10AAAAQCsIuAMAAECBPNr+LlbWHgYUxY/X1Ws5BYDiSVuA0jYgDm9osCegKLS4UzRT1y/F/dofDDwDAADQEgLuAAAAUCAbm9uxs/tDQNGkoPv92h+tqweAAlq6ux4c3oXes9qJKYw0rJJeUCQ/Hnh2DgQAAKCZBNwBAACgYH4/s2g9PYX143X1AEAxrArFHtnQwPmAoli6+01AEaVwezoHGngGAACgWQTcAQAAoGBSi/vsrXsBRZbW1aeAg3X1ANB6d5Y1uB9Vf+/ZgKKYnfsqdnYfBxRVGnj+evldA88AAAA0nIA7AAAAFNC3m1ta3Cm8/XX1KeCgxQ8AWicFYle0uB/J8GBPQJFcGf84oMjS2c/AMwAAAI0m4A4AAAAFlAJKS3c1cVIOF3rPWlcPAC22dPeb4PDa207V72WgKO4s3zfsTCnsDzw7BwIAANAIAu4AAABQUEvL69bTUyr76+q1+AFA8y0t3w+Opr/3XECR/P7GlwFlkc6BaeB5avJStLedDgAAADgJAu4AAABQUBub2/HO9S+E3CmV/Ra/FHDQ4gcAzZMan7U+H01/n4A7xZJa3NN5EMpk6vqluF/7g4FnAAAAToSAOwAAABRUCrav1B7Gxp+2hZUonRRuTyF36+oBoHmW7q4Hh3eh96zWYQolnQX/6db/E1A2+wPPXy5MOAcCAABwLALuAAAAUGAp2P7PC/8aUFZpXf3Xy+9q8QOAJlhaFnA/qqGB8wFF8vlCTYs7pTU80FMfeJ6avBQAAABwFALuAAAAUHAp2DB9YzGgrLT4AUBzpDBsan7m8Pp7zwYUzeWRjwLKbOr6pXrQ/YJrLAAAAIck4A4AAAAlsFp7IKxE6WnxA4DGSveLGp+PZniwJ6Bo0kavOzYzUHJpyDlt9fp07k0DzwAAAByYgDsAAACUQAo2vHP9i4Aq2G/xE24AgJO3dPeb4PDa205pGKaQrox/YtiZSnh9pK8edB978o8AAADwIgLuAAAAUBKfL9Ri9ta9gCpI4fYUcr85MxrtbacDADgZt5/cM3I0/b3nAoomhdsNO1MV6Rz42dyb2twBAAB4IQF3AAAAKJHpmcV6mztUxcT4xbhf+4PGVAA4ISkMu7G5HRxef5+AO8WUhp1Xag8DqiK1ud+v/bF+HgQAAICnEXAHAACAEkmBpSvjH1tRT6Wk5r60ql6bOwCcjKW768HhpYE79yIUlXMgVdPedqp+BkxnQW3uAAAA/DUBdwAAACiZ1Nx3e34toGq0uQPAyVitPQiOZmjgfEARpU1el0c+CqiadP7T5g4AAMBfE3AHAACAEro2OW9FPZWkzR0Aji/dJ2p6Ppp+g3YUWPpsz966F1A12twBAAD4awLuAAAAUFJW1FNl+23uwg0AcDRLd9eDwxse7AkosumZxXqbO1TRfpv72EhfAAAAkDcBdwAAACipFGqYvvFlQFWlcPu/bX4YU5OXAgA4nFXbfo4ktQhf0OJOgaUh58sjHxl2prLSdfizuTfj0ycvA88AAAD5EnAHAACAEpud+yruLGvnpNqmrl+qB92FGwDg5571/ege8ej6e88FFNnG5rZhZyrv9ZG++Hr5XW3uAAAAmRJwBwAAgJK7Mv6JFfVUXgrvpVX1E+MXAwB4sdTuvKLF/Uj6+wTcKT7DzuQgnQNTm/vNmdEAAAAgLwLuAAAAUHJW1JOLtKo+BRusqgeAg1ldexAc3oXes0/uO04HFJ1hZ3KRBp1t9QIAAMiLgDsAAABUgBX15GR/VX0KnwEAz7ak3fnIxkZ6A4rOsDM5SeH2FHK31QsAACAPAu4AAABQEWlF/eytewE5SOGGFHKfmrwUAMDTpSFIwdejMUhHWaTP+TvXvwjIha1eAAAAeRBwBwAAgAq5NjkfG5tbAbmYun6pHnQXbgCAp7s9vxYcXn/fuTiund0fAprh84WaYWeysr/VyzkQAACgugTcAQAAoGIuj8zGo+3vA3KRGlZTuKG7qyMAgJ9aWl4PDq+97dSxW9x3d7Tn0zzTM4txx+edjKRw+79tfhgT4xcDAACA6hFwBwAAgIpJ4fbLIx/Fzq5ADflI4Yb7tT/G1OSlAAD+YmNz233hEQ0N9ASURfqcv3N93rAz2bk5M1p/tbedDgAAAKpDwB0AAAAqKAWZ3rn+RUBupq5fik/n3hRuAID/lkKv6d6QwxsaFHCnXFK4/bWBD4TcyU5qcb9f+0N98BkAAIBqEHAHAACAivp8oRbXhNzJ0OsjfcINAPAjS3e/CQ4v3Uu4n6Bs9jd6QW72t3oN274BAABQCQLuAAAAUGGzc1/F7K17AbkRbgCAv1havh8czZB7CUoobW24Mv5xQG7a207FlwsTMTV5KQAAACg3AXcAAACouGuT83F7YS0gN8INALAnNTqnwCuHNzQo4E45pY1e0zcWA3I0df1S/SzY3nY6AAAAKCcBdwAAAMjAtevzsVJ7GJCjFG64OTMq3ABA1lbXHgSH193V4R6C0pqeWRRyJ1tpm9f92h/q270AAAAoHwF3AAAAyMDO7uO4PPJRbGxuBeRoYvyicAMAWVtaXg8OL22E6e56JaCsUsjdRi9ylc5/Xy+/Wx9WAgAAoFx+GQAAAAWUfoAaG+kLOIzZua9iZ/eH4On2Qu6z9R93hXzJ0X644bWBD+LR9vcBADlJ23zS/WAKbHM4QwM9tiFRam+Mf1L/R89ZyFE6B96v/bG+2W527l4AAABQDgLuAABAIaUfn6YmLwUcRmqlE3B/vhTqTeFeIXdytR9uuDL+SdzRZAtAZpbursfYqIDrYQ0N9sS1yfmAMkvh3s4n98IXes8F5OjmzGi0t5+K6RuLAQAAQPH9IgAAAICs7IfcNViTq9Rc++XChEEqALKzqoX8SNKAnOFQym5/o9fG5lZArqauX6oH3QEAACg+AXcAAADIkJA77IUbhNwByIntJUc3NNATUHYp5P7awA0hd7I2MX6xPvDc3nY6AAAAKC4BdwAAAMiUkDto8AMgLyncuqLF/UiGBgXcqQYhd4gYHuiJr5cnbecAAAAoMAF3AAAAyJiQO+w1+H0692YAQA5W1x4Eh9fd1aHtl8oQcoe96/rXy+8KuQMAABSUgDsAAABkTsgdIl4f6Yv7tT8KrgFQeas1AfejaG87Fd1drwRURQq5n+/9RyF3spbC7ULuAAAAxSTgDgAAAAi5Q+w3+FlTD0C1rdQe1oOtHN7QQE9A1aSQ++2FtYBcCbkDAAAUk4A7AAAAULcfctfgR86sqQcgB7fnhVmPYmhQwJ1qemP8k5i9dS8gV/sh93QeBAAAoBgE3AEAAIA/2wu536g3e0KuNPgBUHVLy+vB4aV7A/cHVNW1yfmYvrEYkCshdwAAgGIRcAcAAAB+Ymf3cVwe+UiDH1kTcgegyjY2t+v3fBze0IAWd6premZRyJ2stbedEnIHAAAoCAF3AAAA4GdS4EmDH7kTcgegqtK9Xgq5c3hDgwLuVFsKuV+7/kVAroTcAQAAikHAHQAAAHgmDX7kTsgdgKpauvtNcHgp8Njedjqgymbnvorzve/Fo+3vA3KUQu5fLrztHAgAANBCAu4AAADAc6WQ++WRj+pNn5CjFGpI4QZhNgCKKIXwjmJp+X5weOk/7wu9fxdQdWnLw2sDHwi5ky3DzgAAAK0l4A4AAAC80J3l+xr8yFpqa/16eVLIHYDCOWrAPd3Xubc7mv7ecwE5SNeIFHLf2NwKyJGQOwAAQOsIuAMAAAAHItxA7lLI/cOZkQCAqli6ux4c3thoX0Au0jnwfO8/xuytewE5EnIHAABoDQF3AAAA4MCEG8jd6yN9cXNmNACgCpaWBdyPIrXmp8E3yMm1yfmYvrEYkKMUbv9y4W0bvQAAAJpIwB0AAAA4NOEGcjYxfjGmJi8FAJTdSu1h7Ow+Dg6vv/dcQG6mZxbrW71cN8iRjV4AAADNJeAOAAAAHEkKN5zvfa/e6g65mbp+KcZGegMAym7prhb3oxga7AnIURqMcQ4kVzZ6AQAANI+AOwAAAHBkG5vb9Qa/jc2tgNx8NvdWvcUPAMpstfYwOLwLvWejve10QI5SuP1vu96J2Vv3AnKTNnqlFwAAAI0l4A4AAAAcSwo3nO/9x5i+sRiQm6+X340zHS8FAJTVnWUN7kc1NHA+IGfXJufjyvjHsbP7OCAnqcU9DToBAADQOALuAAAAwImYnlmshxusqicn7W2n6iF3Da4AlFUKpq5ocT+SfuFGiM8XanG+9z3nQLLz5cLbhp0BAAAaSMAdAAAAODEp3PDawAexsbkVkIsUavhwZiQAoKxW1x4Ehzc82BPA/lav92L21r2AXBh2BgAAaCwBdwAAAOBE7YUb/jGmbywG5OL1kb6YmrwUAFBGqzUB96NI4cYLWtyhLm2DuDY5X9/qlf4MOUjDzp/O/e8AAADg5Am4AwAAAA0xPbNoVT1Zmbp+ScgNgFJaqT0USD2i/t5zAfxF2uqVzoG2epGL4YGemBi/GAAAAJwsAXcAAACgYTY2t+O1gQ/i9vxaQA4+nXur3uIHAGXjfu1o+vsE3OGv2epFbm7OjBp2BgAAOGEC7gAAAEBDpXDDG1c/qa+q1+ZO1e2tqH8rAKBsUos7h5cCje1tpwP4ubTV62+73nEOJAvpHOj7AAAA4OQIuAMAAABNkVbVa3MnBynoZkU9AGWzWnsQO7uPg8MbGjgfwNOlcHsKuWtzp+r2hp3/dwAAAHAyBNwBAACAptlvc792/QstflSaFfUAlE0Kt29sbgeH1+87H15Imzs5GB7oMewMAABwQgTcAQAAgKabnftKmzuVZ0U9AGWzdPeb4PCGB3sCeLEUbj/f+17M3roXUFVTk5fqbe4AAAAcj4A7AAAA0BL7be5Xxj/W4kclpVDD1ORwAEBZLC3fDw6vve2UzS1wQGlbxLXJeW3uVFb6TkjDzgAAAByPgDsAAADQUp8v1LS5U1lpPb3AGwBlkcKmAqdH0997LoCDS9eaFHKfvrEYUDXpDJjOggAAABydgDsAAADQcvtt7inoLlRF1aT2vva20wEAZbB0dz04vP4+AXc4iumZxXrQ3cAzVTM1eam+1QsAAICjEXAHAAAACmOl9lCLH5WTQg1Tk8MBAGWwtCzgfhSprddAGxzN/sDzlfGPDTxTGe1tp+rDzgAAAByNgDsAAABQOFr8qJq0nj4F3wCg6DY2t2Nn93FweEMD5wM4us8XavWtXrO37gVUQToDprMgAAAAhyfgDgAAABSSFj+q5sOZ3wYAFF0Kt6/UHgSH12+YDY4tnf2uTc7XB57Thi8ou6nJSzZ8AAAAHIGAOwAAAFBoqcUvhRuuXf9C0J1S6+7q0N4HQCmsrgm4H8XwYE8AJyOd/VKbu4Fnyq697VR8ODMSAAAAHI6AOwAAAFAKs3Nf1QMOt+fXAspKex8AZXB7oRYcXgoxXtDiDidqf+B5+sZifcMElNHrI32+HwAAAA5JwB0AAAAojdTc98bVT+oBBy1+lFEKvk1NDgcAFFkKka7UHgaHNzSgxR0aYXpmMc73vmfgmdJ6f/JyAAAAcHAC7gAAAEDppHD7fosflM3E+EXtfQAU3urag+Dw+vvOBdAY+wPPV8Y/NvBM6aQzYDoLAgAAcDAC7gAAAEBppRa/FHTX4kfZaO8D4KR0drwcjbBaE3A/iu6ujmhvOx1A43y+UIvXBj5wDqR0piYv+Y4AAAA4IAF3AAAAoNS0+FFGqb1PizsARbZSexg7u4+Dwxsb6Q2gsfbPgWng2TmQsmhvOxUT478JAAAAXkzAHQAAAKgELX6UjRZ3AIpu6e56cHiG2KB5Urg9hdynbywGlMHE1Yta3AEAAA5AwB0AAACojP0WvxR01+JH0WlxB6DoVmsPg8Pr7zsnvAhNNj2zWA+63zGYQ8FpcQcAADgYAXcAAACgclZqD7X4UQpa3AEosjvLgqJHkcKL3V2vBNBcacj58uhsXBn/2MAzhabFHQAA4MUE3AEAAIDK2m/x29jcDigiLe4AFNnO7uP64CCHNzTQU//PD2i+zxdq9a1et+fXAopIizsAAMCLCbgDAAAAlZaa+873vqfFj8LS4g5AkS3d/SY4vKFBAXdopXT2e+PqJ3F55CPnQApJizsAAMDzCbgDAAAAWdDiR1FpcQegyJaW7weHd6bjpeh88gJa686Ta1ja6jV9YzGgSLS4AwAAPJ+AOwAAAJCN/RY/be4UjRZ3AIoq3TO5bzqa4cGeAIphemaxHnR3PaNItLgDAAA8m4A7AAAAkJ3U5q7FjyLR4g5AkS3dXQ8OL7XzAsWRwu3pHGjgmaJI3xNjI70BAADAz/0yAAAAADKVWvxuL6zF18vvxpmOlwJaaWigJ1ZqDwOaIb3XHm1/FxTft5tbAa22tLxeb5kFqII08JzuhaauX4qx0b6AVhoa7InZuXsBzZCGe1ZqD4Li2zKIBQAg4A4AAADkbb/Fb2L8NzE1eVnTJi2TwjXTM3diZ/eHgEa7Pb9WH/ABOIiNze0n30+P3ScBlZHOgW9c/SRWaw/i/SfnQAPPtMr+Ni/DzjTDytqDuPLk2gcAAGXwiwAAAAAgZue+ivO979VDn9AKKTSYBi0AoGhSuD2F3AGqJrW5p3Pg7C0N2rROGrIAAADgpwTcAQAAAP7bfovflfGP63+GZkvr6QGgiJbufhMAVZSGeK5Nztc3ezkH0gqpwb297XQAAADwFwLuAAAAAH8ltfi9NvCBFj+arrurox5uAICiuf3k/gigylK4PYXcp28s1kPv0Ey2eQEAAPyUgDsAAADAU6RwgxY/WuF/jfQFABRNCnuu1B4GQNVNzyzG+d734vb8WkCz2OYFAADwUwLuAAAAAM+hxY9mGx7ssZ4egEJaXXsQADlI58A3rn4SV8Y/NvBMU9jmBQAA8FMC7gAAAAAHoMWPZmlvOxVDA+cDAIpmtSbgDuTl84Va/RyYBp6h0WzzAgAA+AsBdwAAAIAD2m/xuzzykRY/GmpsVLABgOJZqT200QbITrrupYHntNnrzt31gEaxzQsAAOAvBNwBAAAADunO8v16uCG1+Al50QhpNb1gAwBFtCTcCWQqDTlfHp2NK+MfG3imIdI2rwu9fxcAAAAIuAMAAAAcWWrxS+vqtfjRCBPjvwkAKJrV2sMAyNnnC7V4beCD+sAznLR/GOgJAAAABNwBAAAAjkWLH43y6q87AgCK5s6ywT6AdPZLA89ps5dzICdpeLDHNi8AAIAQcAcAAAA4EfstfrO37gWchOEBwQYAimdn93GsaHEHqEvh9hRyT23ugu6chPa2U9Hd9UoAAADkTsAdAAAA4ISkQMO1yfm4PPKRcAMnYmjgfABA0Szd/SYA+IvU5p4Gng0AcRL6e88FAABA7gTcAQAAAE7YneX7cb73PW3uHFt/79kAgKJZFeAE+Jk05JxC7teufxFwHEODPQEAAJA7AXcAAACABtjZfazNnWMbFmwAoIA2Nrfd3wA8w+zcV/G3Xe+4TnJk3V0dcabjpQAAAMiZgDsAAABAA6U299Tid2d5PeCw2ttOxQUt7gAU0NJd9zYAz5LC7SnkPn1jMeAo+nvPBQAAQM4E3AEAAAAaLIUbLo/M1lfVp2Z3OAzBBgCep1UNr0uG9wBeaHpm0VYvjmR44HwAAADkTMAdAAAAoEnSqvrzve8JN3Ao/X0C7gAUz8bmtsE9gANIW73SOXD21r2Ag3IOBAAAcifgDgAAANBEVtVzWN1dHdHedjoAoEhSuD2F3AF4sXTNvDY5H1fGPw44iPa2U/WzIAAAQK4E3AEAAABaYH9VveZTXmQv2PBKAEDRLN39JgA4uM8XavWBZ1u9OIhXuzoDAAAgVwLuAAAAAC2yv6p+Y3Mr4HkEGwAootsLtQDgcFK4PZ0D79xdD3ie/t6zAQAAkCsBdwAAAIAW2gs3/GPcXlgLeJZXraYHoIDSJpqNze0A4HDS9fPy6GxM31i01YtnutB3LgAAAHIl4A4AAABQAG+Mf1IPN8DTCDYAUFRLGogBjmx6ZjEuj3xUH3yGv3am46VobzsdAAAAORJwBwAAACiIFG54beADDX78jGADAEW1WnsQABzdSu1h/Rwo5M7TDA2cDwAAgBwJuAMAAAAUSAo3nO99T7iBn7nQ+3cBAEWT7l0M5wEcTzr/CbnzNGnYGQAAIEcC7gAAAAAFsx9u2NjcCtjX2fFyAEARLd1dDwCOZ/8cuGIzBj/S33cuAAAAciTgDgAAAFBAe+GGG8IN/NmrXR0BAEW0WnsYABzf/jlw9ta9gESDOwAAkCsBdwAAAICC2tl9XA833F5YC7iguQ+AgrqzrMEd4CRdm5wXcqcuBdzb204HAABAbgTcAQAAAArujfFPhNzR3AdAYaWhvBUt7gAnKoXcp28sBpzp+JsAAADIjYA7AAAAQAkIuZN0d3UEABTR6tqDAOBkTc8sanInXu3qDAAAgNwIuAMAAACUhJA7gg0AFNXS8noAcPI0udPfezYAAAByI+AOAAAAUCIp5H5HgCxbZzpeCgAooo3N7djZfRwAnLzU5H573rBzrs50vhwAAAC5EXAHAAAAKJl3rs/Ho+3vg/x0CrgDUGDClwCN88bVT2Kl9iDIj0FnAAAgRwLuAAAAACWTwu2vDXygJTVDmvsAKLIlW2YAGuryyKxh5wylgHt72+kAAADIiYA7AAAAQAmlUMM7178I8tLd1REAUFQbm9sG8AAaKF1jDTvnqb3tVwEAAJATAXcAAACAkvp8oRazt+4F+WhvO6W5D4DCSoHLFHIHoHEMO+cpnQUBAAByIuAOAAAAUGLXJuetqM+M5j4Aimzp7jcBQGMZds7PmY6XAgAAICcC7gAAAAAld2X84yAf3V0dAQBFtbR8PwBovOmZRcPOGenseDkAAAByIuAOAAAAUHIrtYcxfWMxyENb2+kAgKJKYUuBS4DG29l9HO9c/yLIgwZ3AAAgNwLuAAAAABUwO3dPmCwTgg0AFN3S3fUAoPHuLN+vDzxTfW1tpwIAACAnAu4AAAAAFZDa+35/48ug+toFGwAouKVlAXeAZrky/nFQfWc6Xw4AAICcCLgDAAAAVMTnC7XY2NwKqk1zHwBFl9qE0/AdAI2XNnndnl8Lqs0mLwAAIDe/DAAAAKAhurs64ndXLwblcmX8kyiz399YjC8X3g4AgFZaurseY6N9AblJ23Y+nBkNyiWdo1JQvKymZxZdcytOwB0AAMiNgDsAAAA0SAo2vD7iB+ayKXvA/c7y/Xoww4/f1dX9684AgH2dBf3OX609FLYkW86B5fPP82ulDrinv/c7d9djeLAnAAAAoAp+EQAAAABUivX01ZaGZwCg6O4srwfkaGf3cUAr/NPcvaDa2ttOBwAAQC4E3AEAAAAqZnbunmBNhQm4A1AG6V5kpfYwAGiOdM113a229rZfBQAAQC4E3AEAAAAqJgXKlu5qTQUAWmt17UEA0DxLd78JAAAAqAIBdwAAAIAKur2wFlSTBncAymK1JuAO0Ey3F2q2eVWYsyAAAJATAXcAAACACkqr6QUbqutMx0sBAEXnfgSgudI1d2NzO6gm50AAACAnAu4AAAAAFbV0dz0AAFrp9rytMgDN9M+uu5XV1nY6AAAAcvHLAAAAKKDU9PeLtv8VUGaPtr8PaKU7y/djbLQvAABaZWl5PSauXgwAmuPOk+vup/FmAAAAQJlpcAcAAACoqNXagwAAaKWNze3Y2X0cADRHuuamay8AAACUmYA7AAAAQEUJNgAAreZ+BKD5vv3TVgAAAECZCbgDAAAAVNjqmhZ3AKC1lu5+E5CTR9vfB7TSau1hAAAAQJkJuAMAAABU2LcaUwGAFltavh8ANM9KzaAzAAAA5SbgDgAAAFBhgg0AQKulNmuN1gDNk665O7uPAwAAAMpKwB0AAACgwoQaAIAiWLq7HgA0j7MgAAAAZSbgDgABAADVlUINGlMBgFZbWhZwB2im1TXbvAAAACgvAXcAAACAitvY3AoAgFZaqT3UJgzQRK65AAAAlJmAOwAAAEDF7e4INgAArbdS0yYM0Czfbm4HAAAAlJWAOwAAADTIo+3vA4rAexEAKIJ/uXs/AGiO/9TgDgAAQIkJuAMAAABU3M7uDwEA0Gp3ltcDgObYdQ4EAACgxATcAQAAACpud/e/AgCg1XZ2H8dK7WEA0Hg2eQEAAFBmAu4AAAAAFWc1PQBQFKtrDwKqTrAYAAAA4HgE3AEAAAAqzmp6AKAoVmsC7gAAAADA8wm4AwAAAAAA0BQrtYexY7sMAAAAAPAcAu4AAAAAAAA0zdLd9QAAAAAAeBYBdwAAAAAAAJrmzvL9AAAAAAB4FgF3AAAAAAAAmma19iAAAAAAAJ5FwB0AAAAa6NH29wEAAPzFzu7jWKk9DKiqnd0fAuCk7bq2AAAAGRFwBwAAAAAAKKkznS9HGS3d/SagqnZ3HgfASUsDYgAAALkQcAcAAACAkrEdAoCyW1q+HwAAAAAATyPgDgAAAPAj7W2nAwCAxkrDWga2AAAAAICnEXAHAAAA+JH2tl8FAACNt3R3PaCKdnYfB+XS2fFyQNG5tgAAADkRcAcAAIAG0kpZPu1tpwKKzHUFgKpYWhZwB4CDEnAHAAByIuAOAAAADbSz+0NQLmc6XgoAABpvY3NbWI9K8r4uH+dAymBn978CAAAgFwLuAAAA0EC7O4INZdPWdjqgyDS4A1AVKQS8UnsQUDVb7tdKp1PAnRJQogAAAOREwB0AAADgR7q7OgIAgOZYXRNwB1qv+9edAUVmMwQAAJAbAXcAAABoIE3L5WM1PUX3aOu7AICquL1QC6iajc2toFycAyk6AXcAACA3Au4AAADQQFbTl09/37momjMdLwfVsSvYAECFpMDeSu1hQJUIopZPe9spIXcKTYECAACQGwF3AAAAaKD/FGwonSoGG9rafhVUh8AUAFWzuvYgAFqtv7daw84C+9Wyu/NDAAAA5ETAHQAAABpod9cPkGVUvWCDBvcq0dwHQNWs1gTcqRYDieXU3dURVdLWdjqoDudAAAAgNwLuAAAA0EB+gCyn/t6zUSWv/rozqI6t7e8CAKpkpfZQIJhK8X4up6HBnqiSqgX2c+e6AgAA5EbAHQAAABrID5DlNDzYE+0Varuzmr5aXFcAqKKlu+sBVbKxuR2USzo3XajQsPOrvxZwrxIFCgAAQG4E3AEAAKCBBFHLqb3tVHR3vRJVkEIaAu7V8mj7PwIAqma19jCgSh7ZulNK/b3noiq6u2zyqhKbvAAAgNwIuAMAAECDadkqp/cnL0cVXKhQQIO9oZmd3R8CAKrmzrIGd6pld8ewcxlNXL0YVdDd1WHQuWIUKAAAALkRcAcAAIAG29jcCsonraavQiDgHwbPB9WxsbkdAFBFKbi3osWdCnEOLKe0zWtspC/Krv/JeZZqcRYEAAByI+AOAAAADaa5r7zen7wUZZbCGcMDPUF17O5obwegupbufhNQFbu7/xWU09ho+QPuY6P/d1AdNgMCAAA5EnAHAACABtPcV16vj/SVusVduL16tPYBUGVLy/cDqmKl9iAop7TNq8wt7t1dHfUX1SHgDgAA5EjAHQAAABpMc1+5fTr3VpRV2Rvo+blvDcwAUGEpwCfER1Xs7NrkVWY3Z0ajve10lNHE1YtBtXz7J+dAAAAgPwLuAAAA0GAa3MsttfdNjJcvIFD29nmeTlAKgKpburseUAXpvs29W3m1t52KqcnhKJt0Bixz+zxPZ/gLAADIkYA7AAAANJgfIstvavJSqcLi6e9Ve3s1bWz+ewBAlS0tC7hTHc6C5ZYGndPAc5mUeQMZz2aTFwAAkKNfBgAAANBQqbUvBRu0aZdXau/7cuHteG3gxpP/Pn+IoitbIJ+D2WsBLf77j3K4OTNav1ZQTkt378e1yS8Cqmhjc7v+nZfuv6Dsvv3TVnR3dQTllc6B53vfK8WwwsTV35QukM/BGHTmpAwP9sSFvnNBOaXvotcGPggAgFwIuAMAAEATbGxuCRyXXAqmfDgzElfGP4kiS4FVK+mrKQX+4KSk4KjwaHm1tf0qoKpSuD195wlpUgXpHDgW7s3LLN0vfb38bj1QWOSQezqv3rzx26B6DDpzkpwDAQAok18EAAAA0HBbW1bTV8HrI33x6dybUVRjo70xdV0jc1Wtrj0IAMjB0t1vAqrg0fZ/BOWXhtVTyL2oQ+vp7ys1zVNNBp0BAIBcCbgDAABAE3zrB8nKSCH3Lxcmor3tdBRJCrd/duutoLq+3dwKAMjB7YVaQBWs1gwoVkVRQ+6pub3I4XuO79s/OQcCAAB5EnAHAACAJtgQTK2U4YGeuF/7Q2FCBDdnRoXbM/Bo2yYIAH6uve1UVM3O7uNYqT0MKLv0Xk4vqmE/5D420hdFMHH1N8LtGTAoAwAA5ErAHQAAAJrASunqSSGCf9v8MKYmL0WrXOg9G/drf4yJ8YtBtaVglOsIAE9TxYB7srom0Ec1uIerlnQO/Gzuzfj0yatVwfL9oP3NG7+t7HcAf2HQGQAAyJWAOwAAADSJYEM1TV2/VA+6N7PFbz9UkUINaSU91ef6AUBuNNZSFd/+yTavKnr9yfkvncfSwHOzgu4pzJ7+9dKQcxp2pvoMOgMAADkTcAcAAIAmEWyorv3AeQq6pzb1RgUcUoghhSiaHain9bTYApCbldrDerAPyi69l6mmdO5LA8/pjJYa3Rs1fJzOgTdnRvc2iP3/7N0/bJznfcDxJ0GW2EAlFM4qGZmaIXFhdXSawEsLyIhdjXLb1AIKVF4CepKAAAU9WNrqyyACElCQho+jyTN4QOmJzN0oMlQ4iN1MZbQLSIPSseXvpU6irH8kRd793vf9fACClCzb+XPHex7e9/k9O/8+U9vbwz4QAABosx8UAAAAYCw2NrfLr4souckicIjwID5iylpMHl0dbJWVnc+HCbQikPjFWz8pb/zsVHnv7BkhQ4uZYgtAG/WW1sqv37d+pt6s45ov9oEx0T0+vr7zbbX/+3Jpfefrbw41fTv+eb98sA+Mg832ge3lgAwAANBmAncAAAAYk1VvTLZKxOnxERPdw+hq8fh89979sr397WN//vTp3anvr5/6URU0jOuae+phY/NPBQDaJtbPAnfqLtb/ET1b37fD3th9ZLQPjOD9XuwH7z46/Hzy5CvlxIlXyskTr1b7x5PV14J2dt3adBMgAADQXgJ3AAAAGJPRm9rerG6n+P89rpaHg4qpfXEoAgDaZrG/Vv6z/GuBuovbvATu7RXh+i77QfYvfn5kgjsAANBm3y8AAADA2BzmenKg3W790dQ+ANpJ3EdT3PqjfSBwMH5+BAAAtJ3AHQAAAMaot3SzABxEr79WAKCtrJ9pgtXh7QJwEL0l+0AAAKDdBO4AAAAwRrdM4AIOwORaANpu1esgDRDruVjXAeyXgzEAAEDbCdwBAABgjOKKaWEDsF+rA1EDAO0W6+ev73xboO5MYwb2K173NgxIAAAAWk7gDgAAAGMUcbs3KYH9WuwLoQBAGEwTOKgB7NeKg84AAAACdwAAABi33tLNArAfq8OtAgBt13PgiwZYHQpWgf350useAACAwB0AAADG7ZYJ7sA+xG0PJn0CwO5rYtyEBHW2MtyytgP2ZWX43wUAAKDtBO4AAAAwZsIGYD/muoMCAJQqbt9wSJQG6C2Zygw8X3yfuHvvfgEAAGg7gTsAAABMwOrA9fTA8/VcSw8AD/WWbhaoO+s74EUWfZ8AAACoCNwBAABgAubmTWYGni2m1LrpAQAe6fXXC9SdmwiAF+n1/1AAAAAQuAMAAMBERNhw996fC8DTzHUdggGAveLglziYuos94OKS6czA0/V2vj/cvXe/AAAAIHAHAACAiYiwYWVwuwA8Tc+19ADwhFXrZxrgM7d5Ac+waB8IAADwkMAdAAAAJkTYADzNynCrmlILADzOATCaINZ6AN8Ve8C5+WEBAABgl8AdAAAAJiTChpjkDrDXXPf3BQB4kvUzTRCP4cUlhzWAx7nlDwAA4HECdwAAAJiQCBt6wgZgj+r7Qv8PBQB4OutnmuBLtxEA3/G7meUCAADAIwJ3AAAAmKCesAHYI6Z53r13vwAAT7c63CpQd7PzwwIw8vWdb8vG5p0CAADAIwJ3AAAAmKDF/no1sRkgmNoHAM+36IAoDdG5Zt0H7Jq+8kUBAADgcQJ3AAAAmLC57qAArAy3TO0DgBeIw6ErprjTAG7zAkJMb+/1/1AAAAB4nMAdAAAAJmxuXuAOxGGX3xcA4MVWB7cL1J3DjUBY2XlNu3vvfgEAAOBxAncAAACYsIgaTKGEdoupfXPzwwIAvNjqUOBOM/SWTHGHtvv46kIBAADgSQJ3AAAASOAzk5uh1aavfFEAgP2Jw6F37/25QN11ZpYL0F6z3UF12BkAAIAnCdwBAAAggcX+ukgHWiqChlW3OABwSK+feq200Vx3UKDuYg/osQzt9dm85z8AAMCzCNwBAAAggQgbOtdM74M2WhncNrUPAA6o118r0ARzAldopbiNZMVBZwAAgGcSuAMAAEASwgZop4+vLhQA4GA2Nu+4AYlGELlCO3185YsCAADAswncAQAAIImY4Ly4ZBIltMlsd2B6OwAcQsTtEblDEwhdoV1iD+hgCwAAwPMJ3AEAACARk5yhXTznAeDweks3CzRBHNZw6BHa46NL3QIAAMDzCdwBAAAgkQgbTPGCdjC9HQBeTq+/XqAJ4kaCuZ21IdB88TOfxb7b+wAAAF5E4A4AAADJuJ4emi/CdtPbAeDlxOupw2I0RWdmuQrdgWbzMx8AAID9EbgDAABAMjHNyxR3aLY509sB4Ej0lkzBpRkibu9cWy5Ac8UtXn7eAwAAsD8CdwAAAEjIRC9orgjbp01vB4Aj0esL3GkOU9yh2dziBQAAsH8CdwAAAEjIFHdormkHWADgyMSaWRBMU8Rj2VoRmmnWLV4AAAAHInAHAACApC5cvF6AZomgYW5+WACAo9NbMsWd5oi1oggWmiWe06a3AwAAHIzAHQAAAJKKN0A715YL0Bxvn/2kAABHa9XNRzRITHH/2BR3aJS4mcHBFQAAgIMRuAMAAEBi01cXqsABqL84sCJqAICjt9g3wZ1mmZ0flhUHN6AR3OIFAABwOAJ3AAAASCzidlPcof6qGxlmPJcB4DjEmlkMTNOY4g7N4BYvAACAwxG4AwAAQHIRxZriDvXmSnoAOF6rg9sFmiQObTi4AfU22x3YBwIAABySwB0AAACSi7j9o0ufF6CeImpwJT0AHK/VocCd5rlw8brDzlBTEbZf+PBGAQAA4HAE7gAAAFADs/PDsrG5XYB6iajh46sLBQA4XjHpWghM08RasnNtuQD1EwdUAAAAODyBOwAAANTEhYsmf0HdTF/5wpX0ADAmc91BgabpzCxbT0LNxMGUOHgFAADA4QncAQAAoCY2Nu+Y3gc1MtsdlLn5YQEAxkNMSBPFzQQmQUN9xIGUqcvdAgAAwMsRuAMAAECNxJukpvdBfvE8/fjqQgEAxmd1eLuKgaFp4vCGw85QD2+f/aQAAADw8gTuAAAAUDPnzn9agNzieeowCgCMV8TtcesRNNH01QXrS0hu+ornKQAAwFERuAMAAEDNRLRjeh/kFVGDuA4AJqO3dLNAE8UBjgsXrxcgp8WlteogCgAAAEdD4A4AAAA1FG+axjX1QC6iBgCYrF5/vUBTxR7QYWfIJ6a2f3S5WwAAADg6AncAAACoodH0vvgM5CBqAIDJi9fj+ICmmtpZb25sbhcgj7fPfuK1BwAA4IgJ3AEAAKCm4s3T6StfFCAHUQMA5NBbWivQZOfOdxx2hiSmryzYBwIAABwDgTsAAADUWGfmqzI3PyjAZE1d6ooaACCJXl/gTrNVNwdd+rwAk9W5tlymry4UAAAAjp7AHQAAAGouwlpX1MPkxMS+zsxyAYBJOXni1cIjK8Mt061pvNn5YRXXApOxsXmnTF3uFgAAAI6HwB0AAABqLuIdV9TDZMx1Byb2ATBxJ0/8sPC4leHtAk0XcW0c6ADGK25ROHf+0wIAAMDxEbgDAABAA8SbqxcuXi/A+JjYBwB5fbm0XqANYh8Y+0FgPOL59vbZTzzvAAAAjpnAHQAAABpisb9epi59XoDjN5rY5+YEAMhpsb9WoA2sS2F84nkmbgcAABgPgTsAAAA0SGfmq9K5tlyA42NiHwDkFxHiynCrQBvEzUJu9ILj58YEAACA8RG4AwAAQMNMXe6aWAnHRNwOAPWxOrhdoC3c6AXHa+pSt3qeAQAAMB4CdwAAAGigCxdvlI3N7QIcnZgEe+78p+J2AKiJ1aHAnXaJG72mrywU4GhF3N6ZcVseAADAOAncAQAAoIF2Q9yOEBeOSDynYnL7xuadAgDUw8pwq3oNhzaZvrpQOteEuHBU4tCIuB0AAGD8BO4AAADQUBG3R5ArcoeXI24HgPrqLa0VaJupy90yNz8owMuJuD0OjQAAADB+AncAAABoMJE7vBxxOwDU22J/vUAbfXDxhsgdXoK4HQAAYLIE7gAAANBwInc4nHjOvPnWb8XtAFBjq8PbBdpK5A6HM3WpK24HAACYMIE7AAAAtIDIHQ7GcwYAmiFuY1kZbhVoK5E77F+8Zpw7/2npzCwXAAAAJkvgDgAAAC0h2IX9iYntnisA0By9pZsF2iwi9841wS48z+hnJov99QIAAMDkCdwBAACgRUZv2G5sbhfgSTHhVdwOAM3SEytCmbrcLdNXFgrwpEc/K7lTAAAAyEHgDgAAAC2z+8btlbK4tFaAR2KqZUQNcS09ANAcsf51eA1Kmb66IHKH73CDFwAAQE4CdwAAAGihCHjPvd8RN8ADU5e61VRLAKCZeg53QiUi9wsXrzvUCTvmugNxOwAAQFICdwAAAGgxE/xouwh7ImjozCwXAKC5en2BO4zMzg/Lm2/9VtRLq8Uh5w8+vOGwBwAAQFICdwAAAGi5iNzPnf/Um7q0TlxFH2HPynCrAADNFq/71rvwSMTtJlfTRg45AwAA1IPAHQAAACiL/XUT/GiVzrVlQQ8AtEgEjRG5A4/EWvjHP/2oWhtDG8ThZoecAQAA6kHgDgAAAFRGccNcd1CgqSJu++Di9TJ1uWuKKwC0TG/pZgGeFGvjqUufF2iyOMgRt9c55AwAAFAPAncAAADgMR98eKNMX1ko0DQxtTWm9c3NDwsA0D7WAPBsnZmvqgPP4l+aJg42x+1dDjkDAADUi8AdAAAAeML01QVxA40S0/oibveYBoD2irBxZbhVgKeLtXKsmWPtDE0Q3/PjZxu+9wMAANSPwB0AAAB4qogb4o1g09yps3gcj6b1AQCsDm4X4NniIEisnS9cvO5wKLVVPY4vdau9oKntAAAA9SRwBwAAAJ4rprmfO/+puIHaGU1tN60PABhZHQrcYT9m54dVHDzXHRSok9j/VTcRzLiJAAAAoM4E7gAAAMALLfbXq7jBNHfqYGPzzsOp7ab1AQB7RfhofQD7E4ecP/jwhmnu1EJ8b4/D+bEX9HgFAACoP4E7AAAAsC/xBnFMc/dmMVmNrqE3tR0AeJ7e0loB9s80d7Kb3Xls/vinH1WH8wEAAGgGgTsAAABwIBEOm+ZONotLa66hBwD2ZdVBODiw0TR3B57JZHR714Wdx6bbOQAAAJpF4A4AAAAc2Giae0xIM8WPSRoduDj3fkdoAwDsy2LfBHc4rFh/xz5w6tLn1t9MjNu7AAAAmk/gDgAAAByaKX5MyihoiMeeoAGAtnv91GuF/Yt1hPUDvJzOzFfVWtyBZ8Ypvn/HbXJxyMLtXQAAAM0mcAcAAABe2miK34WL14XuHCtBAwBwFHpLNwvwckYHnt3sxTh0ri1Xj7W4TS72hQAAADSbwB0AAAA4MrPzQ6E7x2Jv2C5oAABeVq+/XoCjMQrd33zrt25H4MjF4Ym/PPVvZepy1z4QAACgRQTuAAAAwJETunOUZrsDYTsAcKRijWqdCkdrY/NOefvsJ9WH0J2Xtdhfqw5NxOEJ+0AAAID2EbgDAAAAx0bozmFFwDA3vxu2XxA0AADHoLe0VoCjF3F7RO4RJ0f0DgcxevycO9/x+AEAAGgxgTsAAABw7Eahe7xJHVPY4FlGYXs8Vj64eMPBCADg2PSsS+FYRZwckXt8LDpQwgu4AQAAAIC9flAAAAAAxiTepI6P10+9Vv790j+UX/z8J9XXtNtoOntEZp1ry6b0AQBjEWuOWIecPPFKAY5PPNfOvd+pnmuxD3z3nTP2gVTiQHN8/O7af5XF/noBAACAEYE7AAAAMHbxBvYHH96ovv6X82+Vf37/b8sv3/qrQrtEULYbNHxTPr6yIGwHAMYq1iKx/rAOhfGI59zU5W71EfvAX509U95750yhfWIfOH3li7K989m0dgAAAJ5G4A4AAABM1Oz8sPow1b09RjHZrc3tMtcdCNsBgInpLd0UuMME7N0Hvnv2zfKbD//ePrAFVoa3q8PNo8ntAAAA8CwCdwAAACCFvVPdIzL69fmfi90bZBS1b9/5pqwOtspif+3h7wMATMrc/LD8x9V/LMBkxD6wM/NV9fHXPz1VfnPx78q775wpJ0+8UmiGxaW10tvZ/60Ot0TtAAAA7JvAHQAAAEgnrigfXVMudq+3CNjn5gelt7RWBe6CdgAgk9EhvAhrgcmK52J16Hnn472zb5Z3z56xD6yh+L4aUfuX/Ud7QPtAAAAADup73/uLf/q/AgAA3xFTkt7beROJ5tjY3K7eVAKos4jdR5GDCCm3CBo+mx9Wk9pjXSFoqLeIin751k8KkMPXd755eBBsknxvyGNleNtU3JcQa8zXT/2o0EyL/fWdtej9Qn3Fc/QXO683sQ+Mr8knXoPio/dgWrvXpGbwHgHkUh0genAjIgBAGwjcAQAAgFrajeoehQ6m+k1WHKKKmCGiS1fPAwAAx8E+MIfR7RdxeGR1sFVF7cE+EAAAgKMicAcAAAAaYW/o8MbPTpvwfsx2g/ab5dbmn6qo3S0hAADAuMW+Lz5+9c6Znc+nBe/HZBS0h8+6g2oPGDF7/L7bugAAADgOAncAAACgkeIq7QgdRpP94uv4PfYnIoX432tlsFX9eruK2Ld3Pv+PoB0AAEgpAvd3z765s5d5tbz7zpnq1/aBh7P4YCr7l0vr1V7QHhAAAIBxErgDAAAArTGK3t+I8L26zv5HgocHYvre19vflpMnXymfdX9f/ToCBlfMAwAAdffe2TfL6Yjf3/mbh/tCHulcW344ib3XX3s4nR0AAAAmReAOAAAAtN5ounuE7xG9nz79WiPj9+pa+T/e2fl8v5poGFPZ5+YHVbwQ/z3jrwvaAQCANoj9XuwFT1f7vlfLGz87tfPr09XvN1EcYF4d3K72frHvu/VgKrs9IAAAABkJ3AEAAACeI978H4XuVfz+4OuI4COCiK9Hf2acRtP0RmH63ul6ESjshgvxn++HZXV4uwoX9v450/gAAACebjTlffcg9Onq84mTu3vCMPprWcR+b7Q3XdnZC8Ye8NbO7+396/aAAAAA1InAHQAAAOAIjUL3vcH7bmjw6sNfnzjxw8d+vVdMV9/9e159+Ot79/734d8XX29sbj/8549ChVFcYfoeAADAeI0ORY/2ZU/bA448ay/4LKMbuMJo6vro3xf7v1HcLmAHAACgSQTuAAAAAAAAAAAAAACk8P0CAAAAAAAAAAAAAAAJCNwBAAAAAAAAAAAAAEhB4A4AAAAAAAAAAAAAQAoCdwAAAAAAAAAAAAAAUhC4AwAAAAAAAAAAAACQgsAdAAAAAAAAAAAAAIAUBO4AAAAAAAAAAAAAAKQgcAcAAAAAAAAAAAAAIAWBOwAAAAAAAAAAAAAAKQjcAQAAAAAAAAAAAABIQeAOAAAAAAAAAAAAAEAKAncAAAAAAAAAAAAAAFIQuAMAAAAAAAAAAAAAkILAHQAAAAAAAAAAAACAFATuAAAAAAAAAAAAAACkIHAHAAAAAAAAAAAAACAFgTsAAAAAAAAAAAAAACkI3AEAAAAAgAIAAAAAABkI3AEAAAAAAAAAAAAASEHgDgAAAAAAAAAAAABACgJ3AAAAAAAAAAAAAABSELgDAAAAAAAAAAAAAJCCwB0AAAAAAAAAAAAAgBQE7gAAAAAAAAAAAAAApCBwBwAAAAAAAAAAAAAgBYE7AAAAAAAAAAAAAAApCNwBAAAAAAAAAAAAAEhB4A4AAAAAAAAAAAAAQAoCdwAAAAAAAAAAAAAAUhC4AwAAAAAAAAAAAACQgsAdAAAAAAAAAAAAAIAUBO4AAAAAAAAAAAAAAKQgcAcAAAAAAAAAAAAAIAWBOwAAAAAAAAAAAAAAKQjcAQAAAAAAAAAAAABIQeAOAAAAAAAAAAAAAEAKAncAAAAAAAAAAAAAAFIQuAMAAAAAAAAAAAAAkILAHQAAAAAAAAAAAACAFATuAAAAAAAAAAAAAACkIHAHAAAAAAAAAAAAACAFgTsAAAAAAAAAAAAAACkI3AEAAAAAAAAAAAAASEHgDgAAAAAAAAAAAABACgJ3AAAAAAAAAAAAAABSELgDAAAAAAAAAAAAAJCCwB0AAAAAAAAAAAAAgBQE7gAAAAAAAAAAAAAApCBwBwAAAAAAAAAAAAAgBYE7AAAAAAAAAAAAAAApCNwBAAAAAAAAAAAAAEhB4A4AAAAAAAAAAAAAQAoCdwAAAAAAAAAAAAAAUhC4AwAAAAAAAAAAAACQgsAdAAAAAAAAAAAAAIAUBO4AAAAAAAAAAAAAAKQgcAcAAAAAAAAAAAAAIAWBOwAAAAAAAAAAAAAAKQjcAQAAAAAAAAAAAABIQeAOAAAAAAAAAAAAAEAKAncAAAAAAAAAAAAAAFIQuAMAAAAAAAAAAAAAkILAHQAAAAAAAAAAAACAFATuAAAAAAAAAAAAAACkIHAHAAAAAAAAAAAAACAFgTsAAAAAAAAAAAAAACkI3AEAAAAAAAAAAAAASEHgDgAAAAAAAAAAAABACgJ3AAAAAAAAAAAAAABSELgDAAAAAAAAAAAAAJCCwB0AAAAAAAAAAAAAgBQE7gAAAAAAAAAAAAAApCBwBwAAAAAAAAAAAAAgBYE7AAAAAAAAAAAAAAApCNwBAAAAAAAAAAAAAEhB4A4AAAAAAAAAAAAAQAoCdwAAAAAAAAAAAAAAUhC4AwAAAAAAAAAAAACQgsAdAAAAAAAAAAAAAIAUBO4AAAAAAAAAAAAAAKQgcAcAAAAAAAAAAAAAIAWBOwAAAAAAAAAAAAAAKQjcAQAAAAAAAAAAAABIQeAOAAAAAAAAAAAAAEAKAncAAAAAAAAAAAAAAFIQuAMAAAAAAAAAAAAAkILAHQAAAAAAAAAAAACAFATuAAAAAAAAAAAAAACkIHAHAAAAAAAAAAAAACAFgTsAAAAAAAAAAAAAACkI3AEAAAAAAAAAAAAASEHgDgAAAAAAAAAAAABACgJ3AAAAAAAAAAAAAABSELgDAAAAAAAAAAAAAJCCwB0AAAAAAAAAAAAAgBQE7gAAAAAAAAAAAAAApCBwBwAAAAAAAAAAAAAgBYE7AAAAAAAAAAAAAAApCNwBAAAAAAAAAAAAAEhB4A4AAAAAAAAAAAAAQAoCdwAAAAAAAAAAAAAAUhC4AwAAAAAAAAAAAACQgsAdAAAAAAAAAAAAAIAUBO4AAAAAAAAAAAAAAKQgcAcAAAAAAAAAAAAAIAWBOwAAAAAAAAAAAAAAKQjcAQAAAAAAAAAAAABIQeAOAAAAAAAAAAAAAEAKAncAAAAAAAAAAAAAAFIQuAMAAAAAAAAAAAAAkILAHQAAAAAAAAAAAACAFATuAAAAAAAAAAAAAACkIHAHAAAAAAAAAAAAACAFgTsAAAAAAAAAAAAAACkI3AEAAAAAAAAAAAAASEHgDgAAAAAAAAAAAABACgJ3AAAAAAAAAAAAAABSELgDAAAAAAAAAAAAAJCCwB0AAAAAAAAAAAAAgBQE7gAAAAAAAAAAAAAApCBwBwAAAAAAAAAAAAAgBYE7AAAAAAAAAAAAAAApCNwBAAAAAAAAAAAAAEhB4A4AAAAAAAAAAAAAQAoCdwAAAAAAAAAAAAAAUhC4AwAAAAAAAAAAAACQgsAdAAAAAAAAAAAAAIAUBO4AAAAAAAAAAAAAAKQgcAcAAAAAAAAAAAAAIAWBOwAAAAAAAAAAAAAAKQjcAQAAAAAAAAAAAABIQeAOAAAAAAAAAAAAAEAKAncAAAAAAAAAAAAAAFIQuAMAAAAAAAAAAAAAkILAHQAAAAAAAAAAAACAFATuAAAAAAAAAAAAAACkIHAHAAAAAAAAAAAAACAFgTsAAAAAAAAAAAAAACkI3AEAAAAAAAAAAAAASEHgDgAAAAAAAAAAAABACgJ3AAAAAAAAAAAAAABSELgDAAAAAAAAAAAAAJCCwB0AAAAAAAAAAAAAgBQE7gAAAAAAAAAAAAAApCBwBwAAAAAAAAAAAAAgBYE7AAAAAAAAAAAAAAApCNwBAAAAAAAAAAAAAEhB4A4AAAAAAAAAAAAAQAoCdwAAAAAAAAAAAAAAUhC4AwAAAAAAAAAAAACQgsAdAAAAAAAAAAAAAIAUBO4AAAAAAAAAAAAAAKQgcAcAAAAAAAAAAAAAIAWBOwAAAAAAAAAAAAAAKQjcAQAAAAAAAAAAAABIQeAOAAAAAAAAAAAAAEAKAncAAAAAAAAAAAAAAFIQuAMAAAAAAAAAAAAAkILAHQAAAAAAAAAAAACAFATuAAAAAAAAAAAAAACkIHAHAAAAAAAAAAAAACAFgTsAAAAAAAAAAAAAACkI3AEAAAAAAAAAAAAASEHgDgAAAAAAAAAAAABACgJ3AAAAAAAAAAAAAABSELgDAAAAAAAAAAAAAJCCwB0AAAAAAAAAAAAAgBQE7gAAAAAAAAAAAAAApCBwBwAAAAAAAAAAAAAgBYE7AAAAAAAAAAAAAAApCNwBAAAAAAAAAAAAAEhB4A4AAAAAAAAAAAAAQAoCdwAAAAAAAAAAAAAAUhC4AwAAAAAAAAAAAACQgsAdAAAAAAAAAAAAAIAUBO4AAAAAAAAAAAAABYAMBO4AAAAAAAAAAAAAAKQgcAcAAAAAAAAAAAAAIAWBOwAAAAAAAAAAAAAAKQjcAQAAAAAAAAAAAABIQeAOAAAAAAAAAAAAAEAKAncAAAAAAAAAAAAAAFIQuAMAAAAAAAAAAAAAkILAHQAAAAAAAAAAAACAFATuAAAAAAAAAAAAAACkIHAHAAAAAAAAAAAAACAFgTsAAAAAAAAAAAAAACkI3AEAAAAAAAAAAAAASEHgDgAAAAAAAAAAAABACgJ3AAAAAAAAAAAAAABSELgDAAAAAAAAAAAAAJCCwB0AAAAAAAAAAAAAgBQE7gAAAAAAAAAAAAAApCBwBwAAAAAAAAAAAAAgBYE7AAAAAAAAAAAAAAApCNwBAAAAAAAAAAAAAEhB4A4AAAAAAAAAAAAAQAoCdwAAAAAAAAAAAAAAUhC4AwAAAAAAAAAAAACQgsAdAAAAAAAAAAAAAIAUBO4AAAAAAAAAAAAAAKQgcAcAAAAAAAAAAAAAIAWBOwAAAAAAAAAAAAAAKQjcAQAAAAAAAAAAAABIQeAOAAAAAAAAAAAAAEAKAncAAAAAAAAAAAAAAFIQuAMAAAAAAAAAAAAAkILAHQAAAAAAAAAAAACAFATuAAAAAAAAAAAAAACkIHAHAAAAAAAAAAAAACAFgTsAAAAAAAAAAAAAACkI3AEAAAAAAAAAAAAASEHgDgAAAAAAAAAAAABACgJ3AAAAAAAAAAAAAABSELgDAAAAAAAAAAAAAJCCwB0AAAAAAAAAAAAAgBQE7gAAAAAAAAAAAAAApCBwBwAAAAAAAAAAAAAgBYE7AAAAAAAAAAAAAAApCNwBAAAAAAAAAAAAAEhB4A4AAAAAAAAAAAAAQAoCdwAAAAAAAAAAAAAAUhC4AwAAAAAAAAAAAACQgsAdAAAAAAAAAAAAAIAUBO4AAAAAAAAAAAAAAKQgcAcAAAAAAAAAAAAAIAWBOwAAAAAAAAAAAAAAKQjcAQAAAAAAAAAAAABIQeAOAAAAAAAAAAAAAEAKAncAAAAAAAAAAAAAAFIQuAMAAAAAAAAAAAAAkILAHQAAAAAAAAAAAACAFATuAAAAAAAAAAAAAACkIHAHAAAAAAAAAAAAACAFgTsAAAAAAAAAAAAAACkI3AEAAAAAAAAAAAAASEHgDgAAAAAAAAAAAABACgJ3AAAAAAAAAAAAAABSELgDAAAAAAAAAAAAAJCCwB0AAAAAAAAAAAAAgBQE7gAAAAAAAAAAAAAApCBwBwAAAAAAAAAAAAAgBYE7AAAAAAAAAAAAAAApCNwBAAAAAAAAAAAAAEhB4A4AAAAAAAAAAAAAQAoCdwAAAAAAAAAAAAAAUhC4AwAAAAAAAAAAAACQgsAdAAAAAAAAAAAAAIAUBO4AAAAAAAAAAAAAAKQgcAcAAAAAAAAAAAAAIAWBOwAAAAAAAAAAAAAAKQjcAQAAAAAAAAAAAABIQeAOAAAAAAAAAAAAAEAKAncAAAAAAAAAAAAAAFIQuAMAAAAAAAAAAAAAkILAHQAAAAAAAAAAAACAFATuAAAAAAAAAAAAAACkIHAHAAAAAAAAAAAAACAFgTsAAAAAAAAAAAAAACkI3AEAAAAAAAAAAAAASEHgDgAAAAAAAAAAAABACgJ3AAAAAAAAAAAAAABSELgDAAAAAAAAAAAAAJCCwB0AAAAAAAAAAAAAgBQE7gAAAAAAAAAAAAAApCBwBwAAAAAAAAAAAAAgBYE7AAAAAAAAAAAAAAApCNwBAAAAAAAAAAAAAEhB4A4AAAAAAAAAAAAAQAoCdwAAAAAAAAAAAAAAUhC4AwAAAAAAAAAAAACQgsAdAAAAAAAAAAAAAIAUBO4AAAAAAAAAAAAAAKQgcAcAAAAAAAAAAAAAIAWBOwAAAAAAAAAAAAAAKQjcAQAAAAAAAAAAAABIQeAOAAAAAAAAAAAAAEAKAncAAAAAAAAAAAAAAFIQuAMAAAAAAAAAAAAAkILAHQAAAAAAAAAAAACAFATuAAAAAAAAAAAAAACkIHAHAAAAAAAAAAAAACAFgTsAAAAAAAAAAAAAACkI3AEAAAAAAAAAAAAASEHgDgAAAAAAAAAAAABACgJ3AAAAAAAAAAAAAABSELgDAAAAAAAAAAAAAJCCwB0AAAAAAAAAAAAAgBQE7gAAAAAAAAAAAAAApCBwBwAAAAAAAAAAAAAgBYE7AAAAAAAAAAAAAAApCNwBAAAAAAAAAAAAAEhB4A4AAAAAAAAAAAAAQAoCdwAAAAAAAAAAAAAAUhC4AwAAAAAAAAAAAACQgsAdAAAAAAAAAAAAAIAUBO4AAAAAAAAAAAAAAKQgcAcAAAAAAAAAAAAAIAWBOwAAAAAAAAAAAAAAKQjcAQAAAAAAAAAAAABIQeAOAAAAAAAAAAAAAEAKAncAAAAAAAAAAAAAAFIQuAMAAAAAAAAAAAAAkILAHQAAAAAAAAAAAACAFATuAAAAAAAAAAAAAACkIHAHAAAAAAAAAAAAACAFgTsAAAAAAAAAAAAAACkI3AEAAAAAAAAAAAAASEHgDgAAAAAAAAAAAABACgJ3AAAAAAAAAAAAAABSELgDAAAAAAAAAAAAAJCCwB0AAAAAAAAAAAAAgBQE7gAAAAAAAAAAAAAApCBwBwAAAAAAAAAAAAAgBYE7AAAAAAAAAAAAAAApCNwBAAAAAAAAAAAAAEhB4A4AAAAAAAAAAAAAQAoCdwAAAAAAAAAAAAAAUhC4AwAAAAAAAAAAAACQgsAdAAAAAAAAAAAAAIAUBO4AAAAAAAAAAAAAAKQgcAcAAAAAAAAAAAAAIAWBOwAAAAAAAAAAAAAAKQjcAQAAAAD4f3btWAAAAABgkL/1NHYURwAAAAAAAAuCOwAAAAAAAAAAAAAAC4I7AAAAAAAAAAAAAAALgjsAAAAAAAAAAAAAAAuCOwAAAAAAAAAAAAAAC4I7AAAAAAAAAAAAAAALgjsAAAAAAAAAAAAAAAuCOwAAAAAAAAAAAAAAC4I7AAAAAAAAAAAAAAALgjsAAAAAAAAAAAAAAAuCOwAAAAAAAAAAAAAAC4I7AAAAAAAAAAAAAAALgjsAAAAAAAAAAAAAAAuCOwAAAAAAAAAAAAAAC4I7AAAAAAAAAAAAAAALgjsAAAAAAAAAAAAAAAuCOwAAAAAAAAAAAAAAC4I7AAAAAAAAAAAAAAALgjsAAAAAAAAAAAAAAAuCOwAAAAAAAAAAAAAAC4I7AAAAAAAAAAAAAAALgjsAAAAAAAAAAAAAAAuCOwAAAAAAAAAAAAAAC4I7AAAAAAAAAAAAAAALgjsAAAAAAAAAAAAAAAuCOwAAAAAAAAAAAAAAC4I7AAAAAAAAAAAAAAALgjsAAAAAAAAAAAAAAAuCOwAAAAAAAAAAAAAAC4I7AAAAAAAAAAAAAAALgjsAAAAAAAAAAAAAAAuCOwAAAAAAAAAAAAAAC4I7AAAAAAAAAAAAAAALgjsAAAAAAAAAAAAAAAuCOwAAAAAAAAAAAAAAC4I7AAAAAAAAAAAAAAALgjsAAAAAAAAAAAAAAAuCOwAAAAAAAAAAAAAAC4I7AAAAAAAAAAAAAAALgjsAAAAAAAAAAAAAAAuCOwAAAAAAAAAAAAAAC4I7AAAAAAAAAAAAAAALgjsAAAAAAAAAAAAAAAuCOwAAAAAAAAAAAAAAC4I7AAAAAAAAAAAAAAALgjsAAAAAAAAAAAAAAAuCOwAAAAAAAAAAAAAAC4I7AAAAAAAAAAAAAAALgjsAAAAAAAAAAAAAAAuCOwAAAAAAAAAAAAAAC4I7AAAAAAAAAAAAAAALgjsAAAAAAAAAAAAAAAuCOwAAAAAAAAAAAAAAC4I7AAAAAAAAAAAAAAALgjsAAAAAAAAAAAAAAAuCOwAAAAAAAAAAAAAAC4I7AAAAAAAAAAAAAAALgjsAAAAAAAAAAAAAAAuCOwAAAAAAAAAAAAAAC4I7AAAAAAAAAAAAAAALgjsAAAAAAAAAAAAAAAuCOwAAAAAAAAAAAAAAC4I7AAAAAAAAAAAAAAALgjsAAAAAAAAAAAAAAAuCOwAAAAAAAAAAAAAAC4I7AAAAAAAAAAAAAAALgjsAAAAAAAAAAAAAAAuCOwAAAAAAAAAAAAAAC4I7AAAAAAAAAAAAAAALgjsAAAAAAAAAAAAAAAuCOwAAAAAAAAAAAAAAC4I7AAAAAAAAAAAAAAALgjsAAAAAAAAAAAAAAAuCOwAAAAAAAAAAAAAAC4I7AAAAAAAAAAAAAAALgjsAAAAAAAAAAAAAAAuCOwAAAAAAAAAAAAAAC4I7AAAAAAAAAAAAAAALgjsAAAAAAAAAAAAAAAuCOwAAAAAAAAAAAAAAC4I7AAAAAAAAAAAAAAALgjsAAAAAAAAAAAAAAAuCOwAAAAAAAAAAAAAAC4I7AAAAAAAAAAAAAAALgjsAAAAAAAAAAAAAAAuCOwAAAAAAAAAAAAAAC4I7AAAAAAAAAAAAAAALgjsAAAAAAAAAAAAAAAuCOwAAAAAAAAAAAAAAC4I7AAAAAAAAAAAAAAALgjsAAAAAAAAAAAAAAAuCOwAAAAAAAAAAAAAAC4I7AAAAAAAAAAAAAAALgjsAAAAAAAAAAAAAAAuCOwAAAAAAAAAAAAAAC4I7AAAAAAAAAAAAAAALgjsAAAAAAAAAAAAAAAuCOwAAAAAAAAAAAAAAC4I7AAAAAAAAAAAAAAALgjsAAAAAAAAAAAAAAAuCOwAAAAAAAAAAAAAAC4I7AAAAAAAAAAAAAAALgjsAAAAAAAAAAAAAAAuCOwAAAAAAAAAAAAAAC4I7AAAAAAAAAAAAAAALgjsAAAAAAAAAAAAAAAuCOwAAAAAAAAAAAAAAC4I7AAAAAAAAAAAAAAALgjsAAAAAAAAAAAAAAAuCOwAAAAAAAAAAAAAAC4I7AAAAAAAAAAAAAAALgjsAAAAAAAAAAAAAAAuCOwAAAAAAAAAAAAAAC4I7AAAAAAAAAAAAAAALgjsAAAAAAAAAAAAAAAuCOwAAAAAAAAAAAAAAC4I7AAAAAAAAAAAAAAALgjsAAAAAAAAAAAAAAAuCOwAAAAAAAAAAAAAAC4I7AAAAAAAAAAAAAAALgjsAAAAAAAAAAAAAAAuCOwAAAAAAAAAAAAAAC4I7AAAAAAAAAAAAAAALgjsAAAAAAAAAAAAAAAuCOwAAAAAAAAAAAAAAC4I7AAAAAAAAAAAAAAALgjsAAAAAAAAAAAAAAAuCOwAAAAAAAAAAAAAAC4I7AAAAAAAAAAAAAAALgjsAAAAAAAAAAAAAAAuCOwAAAAAAAAAAAAAAC4I7AAAAAAAAAAAAAAALgjsAAAAAAAAAAAAAAAuCOwAAAAAAAAAAAAAAC4I7AAAAAAAAAAAAAAALgjsAAAAAAAAAAAAAAAuCOwAAAAAAAAAAAAAAC4I7AAAAAAAAAAAAAAALgjsAAAAAAAAAAAAAAAuCOwAAAAAAAAAAAAAAC4I7AAAAAAAAAAAAAAALgjsAAAAAAAAAAAAAAAuCOwAAAAAAAAAAAAAAC4I7AAAAAAAAAAAAAAALgjsAAAAAAAAAAAAAAAuCOwAAAAAAAAAAAAAAC4I7AAAAAAAAAAAAAAALgjsAAAAAAAAAAAAAAAuCOwAAAAAAAAAAAAAAC4I7AAAAAAAAAAAAAAALgjsAAAAAAAAAAAAAAAuCOwAAAAAAAAAAAAAAC4I7AAAAAAAAAAAAAAALgjsAAAAAAAAAAAAAAAuCOwAAAAAAAAAAAAAAC4I7AAAAAAAAAAAAAAALgjsAAAAAAAAAAAAAAAuCOwAAAAAAAAAAAAAAC4I7AAAAAAAAAAAAAAALgjsAAAAAAAAAAAAAAAuCOwAAAAAAAAAAAAAAC4I7AAAAAAAAAAAAAAALgjsAAAAAAAAAAAAAAAuCOwAAAAAAAAAAAAAAC4I7AAAAAAAAAAAAAAALgjsAAAAAAAAAAAAAAAuCOwAAAAAAAAAAAAAAC4I7AAAAAAAAAAAAAAALgjsAAAAAAAAAAAAAAAuCOwAAAAAAAAAAAAAAC4I7AAAAAAAAAAAAAAALgjsAAAAAAAAAAAAAAAuCOwAAAAAAAAAAAAAAC4I7AAAAAAAAAAAAAAALgjsAAAAAAAAAAAAAAAuCOwAAAAAAAAAAAAAAC4I7AAAAAAAAAAAAAAALgjsAAAAAAAAAAAAAAAuCOwAAAAAAAAAAAAAAC4I7AAAAAAAAAAAAAAALgjsAAAAAAAAAAAAAAAuCOwAAAAAAAAAAAAAAC4I7AAAAAAAAAAAAAAALgjsAAAAAAAAAAAAAAAuCOwAAAAAAAAAAAAAAC4I7AAAAAAAAAAAAAAALgjsAAAAAAAAAAAAAAAuCOwAAAAAAAAAAAAAAC4I7AAAAAAAAAAAAAAALgjsAAAAAAAAAAAAAAAuCOwAAAAAAAAAAAAAAC4I7AAAAAAAAAAAAAAALgjsAAAAAAAAAAAAAAAuCOwAAAAAAAAAAAAAAC4I7AAAAAAAAAAAAAAALgjsAAAAAAAAAAAAAAAuCOwAAAAAAAAAAAAAAC4I7AAAAAAAAAAAAAAALgjsAAAAAAAAAAAAAAAuCOwAAAAAAAAAAAAAAC4I7AAAAAAAAAAAAAAALgjsAAAAAAAAAAAAAAAuCOwAAAAAAAAAAAAAAC4I7AAAAAAAAAAAAAAALgjsAAAAAAAAAAAAAAAuCOwAAAAAAAAAAAAAAC4I7AAAAAAAAAAAAAAALgjsAAAAAAAAAAAAAAAuCOwAAAAAAAAAAAAAAC4I7AAAAAAAAAAAAAAALgjsAAAAAAAAAAAAAAAuCOwAAAAAAAAAAAAAAC4I7AAAAAAAAAAAAAAALgjsAAAAAAAAAAAAAAAuCOwAAAAAAAAAAAAAAC4I7AAAAAAAAAAAAAAALgjsAAAAAAAAAAAAAAAuCOwAAAAAAAAAAAAAAC4I7AAAAAAAAAAAAAAALgjsAAAAAAAAAAAAAAAuCOwAAAAAAAAAAAAAAC4I7AAAAAAAAAAAAAAALgjsAAAAAAAAAAAAAAAuCOwAAAAAAAAAAAAAAC4I7AAAAAAAAAAAAAAALgjsAAAAAAAAAAAAAAAuCOwAAAAAAAAAAAAAAC4I7AAAAAAAAAAAAAAALgjsAAAAAAAAAAAAAAAuCOwAAAAAAAAAAAAAAC4I7AAAAAAAAAAAAAAALgjsAAAAAAAAAAAAAAAuCOwAAAAAAAAAAAAAAC4I7AAAAAAAAAAAAAAALgjsAAAAAAAAAAAAAAAuCOwAAAAAAAAAAAAAAC4I7AAAAAAAAAAAAAAALgjsAAAAAAAAAAAAAAAuCOwAAAAAAAAAAAAAAC4I7AAAAAAAAAAAAAAALgjsAAAAAAAAAAAAAAAuCOwAAAAAAAAAAAAAAC4I7AAAAAAAAAAAAAAALgjsAAAAAAAAAAAAAAAuCOwAAAAAAAAAAAAAAC4I7AAAAAAAAAAAAAAALgjsAAAAAAAAAAAAAAAuCOwAAAAAAAAAAAAAAC4I7AAAAAAAAAAAAAAALgjsAAAAAAAAAAAAAAAuCOwAAAAAAAAAAAAAAC4I7AAAAAAAAAAAAAAALgjsAAAAAAAAAAAAAAAuCOwAAAAAAAAAAAAAAC4I7AAAAAAAAAAAAAAALgjsAAAAAAAAAAAAAAAuCOwAAAAAAAAAAAAAAC4I7AAAAAAAAAAAAAAALgjsAAAAAAAAAAAAAAAuCOwAAAAAAAAAAAAAAC4I7AAAAAAAAAAAAAAALgjsAAAAAAAAAAAAAAAuCOwAAAAAAAAAAAAAAC4I7AAAAAAAAAAAAAAALgjsAAAAAAAAAAAAAAAuCOwAAAAAAAAAAAAAAC4I7AAAAAAAAAAAAAAALgjsAAAAAAAAAAAAAAAuCOwAAAAAAAAAAAAAAC4I7AAAAAAAAAAAAAAALgjsAAAAAAAAAAAAAAAuCOwAAAAAAAAAAAAAAC4I7AAAAAAAAAAAAAAALgjsAAAAAAAAAAAAAAAuCOwAAAAAAAAAAAAAAC4I7AAAAAAAAAAAAAAALgjsAAAAAAAAAAAAAAAuCOwAAAAAAAAAAAAAAC4I7AAAAAAAAAAAAAAALgjsAAAAAAAAAAAAAAAuCOwAAAAAAAAAAAAAAC4I7AAAAAAAAAAAAAAALgjsAAAAAAAAAAAAAAAuCOwAAAAAAAAAAAAAAC4I7AAAAAAAAAAAAAAALgjsAAAAAAAAAAAAAAAuCOwAAAAAAAAAAAAAAC4I7AAAAAAAAAAAAAAALgjsAAAAAAAAAAAAAAAuCOwAAAAAAAAAAAAAAC4I7AAAAAAAAAAAAAAALgjsAAAAAAAAAAAAAAAuCOwAAAAAAAAAAAAAAC4I7AAAAAAAAAAAAAAALgjsAAAAAAAAAAAAAAAuCOwAAAAAAAAAAAAAAC4I7AAAAAAAAAAAAAAALgjsAAAAAAAAAAAAAAAuCOwAAAAAAAAAAAAAAC4I7AAAAAAAAAAAAAAALgjsAAAAAAAAAAAAAAAuCOwAAAAAAAAAAAAAAC4I7AAAAAAAAAAAAAAALgjsAAAAAAAAAAAAAAAuCOwAAAAAAAAAAAAAAC4I7AAAAAAAAAAAAAAALgjsAAAAAAAAAAAAAAAuCOwAAAAAAAAAAAAAAC4I7AAAAAAAAAAAAAAALgjsAAAAAAAAAAAAAAAuCOwAAAAAAAAAAAAAAC4I7AAAAAAAAAAAAAAALgjsAAAAAAAAAAAAAAAuCOwAAAAAAAAAAAAAAC4I7AAAAAAAAAAAAAAALgjsAAAAAAAAAAAAAAAuCOwAAAAAAAAAAAAAAC4I7AAAAAAAAAAAAAAALgjsAAAAAAAAAAAAAAAuCOwAAAAAAAAAAAAAAC4I7AAAAAAAAAAAAAAALgjsAAAAAAAAAAAAAAAuCOwAAAAAAAAAAAAAAC4I7AAAAAAAAAAAAAAALgjsAAAAAAAAAAAAAAAuCOwAAAAAAAAAAAAAAC4I7AAAAAAAAAAAAAAALgjsAAAAAAAAAAAAAAAuCOwAAAAAAAAAAAAAAC4I7AAAAAAAAAAAAAAALgjsAAAAAAAAAAAAAAAuCOwAAAAAAAAAAAAAAC4I7AAAAAAAAAAAAAAALgjsAAAAAAAAAAAAAAAuCOwAAAAAAAAAAAAAAC4I7AAAAAAAAAAAAAAALgjsAAAAAAAAAAAAAAAuCOwAAAAAAAAAAAAAAC4I7AAAAAAAAAAAAAAALgjsAAAAAAAAAAAAAAAuCOwAAAAAAAAAAAAAAC4I7AAAAAAAAAAAAAAALgjsAAAAAAAAAAAAAAAuCOwAAAAAAAAAAAAAAC4I7AAAAAAAAAAAAAAALgjsAAAAAAAAAAAAAAAuCOwAAAAAAAAAAAAAAC4I7AAAAAAAAAAAAAAALgjsAAAAAAAAAAAAAAAuCOwAAAAAAAAAAAAAAC4I7AAAAAAAAAAAAAAALgjsAAAAAAAAAAAAAAAuCOwAAAAAAAAAAAAAAC4I7AAAAAAAAAAAAAAALgjsAAAAAAAAAAAAAAAuCOwAAAAAAAAAAAAAAC4I7AAAAAAAAAAAAAAALgjsAAAAAAAAAAAAAAAuCOwAAAAAAAAAAAAAAC4I7AAAAAAAAAAAAAAALgjsAAAAAAAAAAAAAAAuCOwAAAAAAAAAAAAAAC4I7AAAAAAAAAAAAAAALgjsAAAAAAAAAAAAAAAuCOwAAAAAAAAAAAAAAC4I7AAAAAAAAAAAAAAALgjsAAAAAAAAAAAAAAAuCOwAAAAAAAAAAAAAAC4I7AAAAAAAAAAAAAAALgjsAAAAAAAAAAAAAAAuCOwAAAAAAAAAAAAAAC4I7AAAAAAAAAAAAAAALgjsAAAAAAAAAAAAAAAuCOwAAAAAAAAAAAAAAC4I7AAAAAAAAAAAAAAALgjsAAAAAAAAAAAAAAAuCOwAAAAAAAAAAAAAAC4I7AAAAAAAAAAAAAAALgjsAAAAAAAAAAAAAAAuCOwAAAAAAAAAAAAAAC4I7AAAAAAAAAAAAAAALgjsAAAAAAAAAAAAAAAuCOwAAAAAAAAAAAAAAC4I7AAAAAAAAAAAAAAALgjsAAAAAAAAAAAAAAAuCOwAAAAAAAAAAAAAAC4I7AAAAAAAAAAAAAAALgjsAAAAAAAAAAAAAAAuCOwAAAAAAAAAAAAAAC4I7AAAAAAAAAAAAAAALgjsAAAAAAAAAAAAAAAuCOwAAAAAAAAAAAAAAC4I7AAAAAAAAAAAAAAALgjsAAAAAAAAAAAAAAAuCOwAAAAAAAAAAAAAAC4I7AAAAAAAAAAAAAAALgjsAAAAAAAAAAAAAAAuCOwAAAAAAAAAAAAAAC4I7AAAAAAAAAAAAAAALgjsAAAAAAAAAAAAAAAuCOwAAAAAAAAAAAAAAC4I7AAAAAAAAAAAAAAALgjsAAAAAAAAAAAAAAAuCOwAAAAAAAAAAAAAAC4I7AAAAAAAAAAAAAAALgjsAAAAAAAAAAAAAAAuCOwAAAAAAAAAAAAAAC4I7AAAAAAAAAAAAAAALgjsAAAAAAAAAAAAAAAuCOwAAAAAAAAAAAAAAC4I7AAAAAAAAAAAAAAALgjsAAAAAAAAAAAAAAAuCOwAAAAAAAAAAAAAAC4I7AAAAAAAAAAAAAAALgjsAAAAAAAAAAAAAAAuCOwAAAAAAAAAAAAAAC4I7AAAAAAAAAAAAAAALgjsAAAAAAAAAAAAAAAuCOwAAAAAAAAAAAAAAC4I7AAAAAAAAAAAAAAALgjsAAAAAAAAAAAAAAAuCOwAAAAAAAAAAAAAAC4I7AAAAAAAAAAAAAAALgjsAAAAAAAAAAAAAAAuCOwAAAAAAAAAAAAAAC4I7AAAAAAAAAAAAAAALgjsAAAAAAAAAAAAAAAuCOwAAAAAAAAAAAAAAC4I7AAAAAAAAAAAAAAALgjsAAAAAAAAAAAAAAAuCOwAAAAAAAAAAAAAAC4I7AAAAAAAAAAAAAAALgjsAAAAAAAAAAAAAAAuCOwAAAAAAAAAAAAAAC4I7AAAAAAAAAAAAAAALgjsAAAAAAAAAAAAAAAuCOwAAAAAAAAAAAAAAC4I7AAAAAAAAAAAAAAALgjsAAAAAAAAAAAAAAAuCOwAAAAAAAAAAAAAAC4I7AAAAAAAAAAAAAAALgjsAAAAAAAAAAAAAAAuCOwAAAAAAAAAAAAAAC4I7AAAAAAAAAAAAAAALgjsAAAAAAAAAAAAAAAuCOwAAAAAAAAAAAAAAC4I7AAAAAAAAQOzasQAAAADAIH/raewojgAAAABYENwBAAAAAAAAAAAAAFgQ3AEAAAAAAAAAAAAAWBDcAQAAAAAAAAAAAABYENwBAAAAAAAAAAAAAFgQ3AEAAAAAAAAAAAAAWBDcAQAAAAAAAAAAAABYENwBAAAAAAAAAAAAAFgQ3AEAAAAAAAAAAAAAWBDcAQAAAAAAAAAAAABYENwBAAAAAAAAAAAAAFgQ3AEAAAAAAAAAAAAAWBDcAQAAAAAAAAAAAABYENwBAAAAAAAAAAAAAFgQ3AEAAAAAAAAAAAAAWBDcAQAAAAAAAAAAAABYENwBAAAAAAAAAAAAAFgQ3AEAAAAAAAAAAAAAWBDcAQAAAAAAAAAAAABYENwBAAAAAAAAAAAAAFgQ3AEAAAAAAAAAAAAAWBDcAQAAAAAAAAAAAABYENwBAAAAAAAAAAAAAFgQ3AEAAAAAAAAAAAAAWBDcAQAAAAAAAAAAAABYENwBAAAAAAAAAAAAAFgQ3AEAAAAAAAAAAAAAWBDcAQAAAAAAAAAAAABYENwBAAAAAAAAAAAAAFgQ3AEAAAAAAAAAAAAAWBDcAQAAAAAAAAAAAABYENwBAAAAAAAAAAAAAFgQ3AEAAAAAAAAAAAAAWBDcAQAAAAAAAAAAAABYENwBAAAAAAAAAAAAAFgQ3AEAAAAAAAAAAAAAWBDcAQAAAAAAAAAAAABYENwBAAAAAAAAAAAAAFgQ3AEAAAAAAAAAAAAAWBDcAQAAAAAAAAAAAABYENwBAAAAAAAAAAAAAFgQ3AEAAAAAAAAAAAAAWBDcAQAAAAAAAAAAAABYENwBAAAAAAAAAAAAAFgQ3AEAAAAAAAAAAAAAWBDcAQAAAAAAAAAAAABYENwBAAAAAAAAAAAAAFgQ3AEAAAAAAAAAAAAAWBDcAQAAAAAAAAAAAABYENwBAAAAAAAAAAAAAFgQ3AEAAAAAAAAAAAAAWBDcAQAAAAAAAAAAAABYENwBAAAAAAAAAAAAAFgQ3AEAAAAAAAAAAAAAWBDcAQAAAAAAAAAAAABYENwBAAAAAAAAAAAAAFgQ3AEAAAAAAAAAAAAAWBDcAQAAAAAAAAAAAABYENwBAAAAAAAAAAAAAFgQ3AEAAAAAAAAAAAAAWBDcAQAAAAAAAAAAAABYENwBAAAAAAAAAAAAAFgQ3AEAAAAAAAAAAAAAWBDcAQAAAAAAAAAAAABYENwBAAAAAAAAAAAAAFgQ3AEAAAAAAAAAAAAAWBDcAQAAAAAAAAAAAABYENwBAAAAAAAAAAAAAFgQ3AEAAAAAAAAAAAAAWBDcAQAAAAAAAAAAAABYENwBAAAAAAAAAAAAAFgQ3AEAAAAAAAAAAAAAWBDcAQAAAAAAAAAAAABYENwBAAAAAAAAAAAAAFgQ3AEAAAAAAAAAAAAAWBDcAQAAAAAAAAAAAABYENwBAAAAAAAAAAAAAFgQ3AEAAAAAAAAAAAAAWBDcAQAAAAAAAAAAAABYENwBAAAAAAAAAAAAAFgQ3AEAAAAAAAAAAAAAWBDcAQAAAAAAAAAAAABYENwBAAAAAAAAAAAAAFgQ3AEAAAAAAAAAAAAAWBDcAQAAAAAAAAAAAABYENwBAAAAAAAAAAAAAFgQ3AEAAAAAAAAAAAAAWBDcAQAAAAAAAAAAAABYENwBAAAAAAAAAAAAAFgQ3AEAAAAAAAAAAAAAWBDcAQAAAAAAAAAAAABYENwBAAAAAAAAAAAAAFgQ3AEAAAAAAAAAAAAAWBDcAQAAAAAAAAAAAABYENwBAAAAAAAAAAAAAFgQ3AEAAAAAAAAAAAAAWBDcAQAAAAAAAAAAAABYENwBAAAAAAAAAAAAAFgQ3AEAAAAAAAAAAAAAWBDcAQAAAAAAAAAAAABYENwBAAAAAAAAAAAAAFgQ3AEAAAAAAAAAAAAAWBDcAQAAAAAAAAAAAABYENwBAAAAAAAAAAAAAFgQ3AEAAAAAAAAAAAAAWBDcAQAAAAAAAAAAAABYENwBAAAAAAAAAAAAAFgQ3AEAAAAAAAAAAAAAWBDcAQAAAAAAAAAAAABYENwBAAAAAAAAAAAAAFgQ3AEAAAAAAAAAAAAAWBDcAQAAAAAAAAAAAABYENwBAAAAAAAAAAAAAFgQ3AEAAAAAAAAAAAAAWBDcAQAAAAAAAAAAAABYENwBAAAAAAAAAAAAAFgQ3AEAAAAAAAAAAAAAWBDcAQAAAAAAAAAAAABYENwBAAAAAAAAAAAAAFgQ3AEAAAAAAAAAAAAAWBDcAQAAAAAAAAAAAABYENwBAAAAAAAAAAAAAFgQ3AEAAAAAAAAAAAAAWBDcAQAAAAAAAAAAAABYENwBAAAAAAAAAAAAAFgQ3AEAAAAAAAAAAAAAWBDcAQAAAAAAAAAAAABYENwBAAAAAAAAAAAAAFgQ3AEAAAAAAAAAAAAAWBDcAQAAAAAAAAAAAABYENwBAAAAAAAAAAAAAFgQ3AEAAAAAAAAAAAAAWBDcAQAAAAAAAAAAAABYENwBAAAAAAAAAAAAAFgQ3AEAAAAAAAAAAAAAWBDcAQAAAAAAAAAAAABYENwBAAAAAAAAAAAAAFgQ3AEAAAAAAAAAAAAAWBDcAQAAAAAAAAAAAABYENwBAAAAAAAAAAAAAFgQ3AEAAAAAAAAAAAAAWBDcAQAAAAAAAAAAAABYENwBAAAAAAAAAAAAAFgQ3AEAAAAAAAAAAAAAWBDcAQAAAAAAAAAAAABYENwBAAAAAAAAAAAAAFgQ3AEAAAAAAAAAAAAAWBDcAQAAAAAAAAAAAABYENwBAAAAAAAAAAAAAFgQ3AEAAAAAAAAAAAAAWBDcAQAAAAAAAAAAAABYENwBAAAAAAAAAAAAAFgQ3AEAAAAAAAAAAAAAWBDcAQAAAAAAAAAAAABYENwBAAAAAAAAAAAAAFgQ3AEAAAAAAAAAAAAAWBDcAQAAAAAAAAAAAABYENwBAAAAAAAAAAAAAFgQ3AEAAAAAAAAAAAAAWBDcAQAAAAAAAAAAAABYENwBAAAAAAAAAAAAAFgQ3AEAAAAAAAAAAAAAWBDcAQAAAAAAAAAAAABYENwBAAAAAAAAAAAAAFgQ3AEAAAAAAAAAAAAAWBDcAQAAAAAAAAAAAABYENwBAAAAAAAAAAAAAFgQ3AEAAAAAAAAAAAAAWBDcAQAAAAAAAAAAAABYENwBAAAAAAAAAAAAAFgQ3AEAAAAAAAAAAAAAWBDcAQAAAAAAAAAAAABYENwBAAAAAAAAAAAAAFgQ3AEAAAAAAAAAAAAAWBDcAQAAAAAAAAAAAABYENwBAAAAAAAAAAAAAFgQ3AEAAAAAAAAAAAAAWBDcAQAAAAAAAAAAAABYENwBAAAAAAAAAAAAAFgQ3AEAAAAAAAAAAAAAWBDcAQAAAAAAAAAAAABYENwBAAAAAAAAAAAAAFgQ3AEAAAAAAAAAAAAAWBDcAQAAAAAAAAAAAABYENwBAAAAAAAAAAAAAFgQ3AEAAAAAAAAAAAAAWBDcAQAAAAAAAAAAAABYENwBAAAAAAAAAAAAAFgQ3AEAAAAAAAAAAAAAWBDcAQAAAAAAAAAAAABYENwBAAAAAAAAAAAAAFgQ3AEAAAAAAAAAAAAAWBDcAQAAAAAAAAAAAABYENwBAAAAAAAAAAAAAFgQ3AEAAAAAAAAAAAAAWBDcAQAAAAAAAAAAAABYENwBAAAAAAAAAAAAAFgQ3AEAAAAAAAAAAAAAWBDcAQAAAAAAAAAAAABYENwBAAAAAAAAAAAAAFgQ3AEAAAAAAAAAAAAAWBDcAQAAAAAAAAAAAABYENwBAAAAAAAAAAAAAFgQ3AEAAAAAAAAAAAAAWBDcAQAAAAAAAAAAAABYENwBAAAAAAAAAAAAAFgQ3AEAAAAAAAAAAAAAWBDcAQAAAAAAAAAAAABYENwBAAAAAAAAAAAAAFgQ3AEAAAAAAAAAAAAAWBDcAQAAAAAAAAAAAABYENwBAAAAAAAAAAAAAFgQ3AEAAAAAAAAAAAAAWBDcAQAAAAAAAAAAAABYENwBAAAAAAAAAAAAAFgQ3AEAAAAAAAAAAAAAWBDcAQAAAAAAAAAAAABYENwBAAAAAAAAAAAAAFgQ3AEAAAAAAAAAAAAAWBDcAQAAAAAAAAAAAABYENwBAAAAAAAAAAAAAFgQ3AEAAAAAAAAAAAAAWBDcAQAAAAAAAAAAAABYENwBAAAAAAAAAAAAAFgQ3AEAAAAAAAAAAAAAWBDcAQAAAAAAAAAAAABYENwBAAAAAAAAAAAAAFgQ3AEAAAAAAAAAAAAAWBDcAQAAAAAAAAAAAABYENwBAAAAAAAAAAAAAFgQ3AEAAAAAAAAAAAAAWBDcAQAAAAAAAAAAAABYENwBAAAAAAAAAAAAAFgQ3AEAAAAAAAAAAAAAWBDcAQAAAAAAAAAAAABYENwBAAAAAAAAAAAAAFgQ3AEAAAAAAAAAAAAAWBDcAQAAAAAAAAAAAABYENwBAAAAAAAAAAAAAFgQ3AEAAAAAAAAAAAAAWBDcAQAAAAAAAAAAAABYENwBAAAAAAAAAAAAAFgQ3AEAAAAAAAAAAAAAWBDcAQAAAAAAAAAAAABYENwBAAAAAAAAAAAAAFgQ3AEAAAAAAAAAAAAAWBDcAQAAAAAAAAAAAABYENwBAAAAAAAAAAAAAFgQ3AEAAAAAAAAAAAAAWBDcAQAAAAAAAAAAAABYENwBAAAAAAAAAAAAAFgQ3AEAAAAAAAAAAAAAWBDcAQAAAAAAAAAAAABYENwBAAAAAAAAAAAAAFgQ3AEAAAAAAAAAAAAAWBDcAQAAAAAAAAAAAABYENwBAAAAAAAAAAAAAFgQ3AEAAAAAAAAAAAAAWBDcAQAAAAAAAAAAAABYENwBAAAAAAAAAAAAAFgQ3AEAAAAAAAAAAAAAWBDcAQAAAAAAAAAAAABYENwBAAAAAAAAAAAAAFgQ3AEAAAAAAAAAAAAAWBDcAQAAAAAAAAAAAABYENwBAAAAAAAAAAAAAFgQ3AEAAAAAAAAAAAAAWBDcAQAAAAAAAAAAAABYENwBAAAAAAAAAAAAAFgQ3AEAAAAAAAAAAAAAWBDcAQAAAAAAAAAAAABYENwBAAAAAAAAAAAAAFgQ3AEAAAAAAAAAAAAAWBDcAQAAAAAAAAAAAABYENwBAAAAAAAAAAAAAFgQ3AEAAAAAAAAAAAAAWBDcAQAAAAAAAAAAAABYENwBAAAAAAAAAAAAAFgQ3AEAAAAAAAAAAAAAWBDcAQAAAAAAAAAAAABYENwBAAAAAAAAAAAAAFgQ3AEAAAAAAAAAAAAAWBDcAQAAAAAAAAAAAABYENwBAAAAAAAAAAAAAFgQ3AEAAAAAAAAAAAAAWBDcAQAAAAAAAAAAAABYENwBAAAAAAAAAAAAAFgQ3AEAAAAAAAAAAAAAWBDcAQAAAAAAAAAAAABYENwBAAAAAAAAAAAAAFgQ3AEAAAAAAAAAAAAAWBDcAQAAAAAAAAAAAABYENwBAAAAAAAAAAAAAFgQ3AEAAAAAAAAAAAAAWBDcAQAAAAAAAAAAAABYENwBAAAAAAAAAAAAAFgQ3AEAAAAAAAAAAAAAWBDcAQAAAAAAAAAAAABYENwBAAAAAAAAAAAAAFgQ3AEAAAAAAAAAAAAAWBDcAQAAAAAAAAAAAABYENwBAAAAAAAAAAAAAFgQ3AEAAAAAAAAAAAAAWBDcAQAAAAAAAAAAAABYENwBAAAAAAAAAAAAAFgQ3AEAAAAAAAAAAAAAWBDcAQAAAAAAAAAAAABYENwBAAAAAAAAAAAAAFgQ3AEAAAAAAAAAAAAAWBDcAQAAAAAAAAAAAABYENwBAAAAAAAAAAAAAFgQ3AEAAAAAAAAAAAAAWBDcAQAAAAAAAAAAAABYENwBAAAAAAAAAAAAAFgQ3AEAAAAAAAAAAAAAWBDcAQAAAAAAAAAAAABYENwBAAAAAAAAAAAAAFgQ3AEAAAAAAAAAAAAAWBDcAQAAAAAAAAAAAABYENwBAAAAAAAAAAAAAFgQ3AEAAAAAAAAAAAAAWBDcAQAAAAAAAAAAAABYENwBAAAAAAAAAAAAAFgQ3AEAAAAAAAAAAAAAWBDcAQAAAAAAAAAAAABYENwBAAAAAAAAAAAAAFgQ3AEAAAAAAAAAAAAAWBDcAQAAAAAAAAAAAABYENwBAAAAAAAAAAAAAFgQ3AEAAAAAAAAAAAAAWBDcAQAAAAAAAAAAAABYENwBAAAAAAAAAAAAAFgQ3AEAAAAAAAAAAAAAWBDcAQAAAAAAAAAAAABYENwBAAAAAAAAAAAAAFgQ3AEAAAAAAAAAAAAAWBDcAQAAAAAAAAAAAABYENwBAAAAAAAAAAAAAFgQ3AEAAAAAAAAAAAAAWBDcAQAAAAAAAAAAAABYENwBAAAAAAAAAAAAAFgQ3AEAAAAAAAAAAAAAWBDcAQAAAAAAAAAAAABYENwBAAAAAAAAAAAAAFgQ3AEAAAAAAAAAAAAAWBDcAQAAAAAAAAAAAABYENwBAAAAAAAAAAAAAFgQ3AEAAAAAAAAAAAAAWBDcAQAAAAAAAAAAAABYENwBAAAAAAAAAAAAAFgQ3AEAAAAAAAAAAAAAWBDcAQAAAAAAAAAAAABYENwBAAAAAAAAAAAAAFgQ3AEAAAAAAAAAAAAAWBDcAQAAAAAAAAAAAABYENwBAAAAAAAAAAAAAFgQ3AEAAAAAAAAAAAAAWBDcAQAAAAAAAAAAAABYENwBAAAAAAAAAAAAAFgQ3AEAAAAAAAAAAAAAWBDcAQAAAAAAAAAAAABYENwBAAAAAAAAAAAAAFgQ3AEAAAAAAAAAAAAAWBDcAQAAAAAAAAAAAABYENwBAAAAAAAAAAAAAFgQ3AEAAAAAAAAAAAAAWBDcAQAAAAAAAAAAAABYENwBAAAAAAAAAAAAAFgQ3AEAAAAAAAAAAAAAWBDcAQAAAAAAAAAAAABYENwBAAAAAAAAAAAAAFgQ3AEAAAAAAAAAAAAAWBDcAQAAAAAAAAAAAABYENwBAAAAAAAAAAAAAFgQ3AEAAAAAAAAAAAAAWBDcAQAAAAAAAAAAAABYENwBAAAAAAAAAAAAAFgQ3AEAAAAAAAAAAAAAWBDcAQAAAAAAAAAAAABYENwBAAAAAAAAAAAAAFgQ3AEAAAAAAAAAAAAAWBDcAQAAAAAAAAAAAABYENwBAAAAAAAAAAAAAFgQ3AEAAAAAAAAAAAAAWBDcAQAAAAAAAAAAAABYENwBAAAAAAAAAAAAAFgQ3AEAAAAAAAAAAAAAWBDcAQAAAAAAAAAAAABYENwBAAAAAAAAAAAAAFgQ3AEAAAAAAAAAAAAAWBDcAQAAAAAAAAAAAABYENwBAAAAAAAAAAAAAFgQ3AEAAAAAAAAAAAAAWBDcAQAAAAAAAAAAAABYENwBAAAAAAAAAAAAAFgQ3AEAAAAAAAAAAAAAWBDcAQAAAAAAAAAAAABYENwBAAAAAAAAAAAAAFgQ3AEAAAAAAAAAAAAAWBDcAQAAAAAAAAAAAABYENwBAAAAAAAAAAAAAFgQ3AEAAAAAAAAAAAAAWBDcAQAAAAAAAAAAAABYENwBAAAAAAAAAAAAAFgQ3AEAAAAAAAAAAAAAWBDcAQAAAAAAAAAAAABYENwBAAAAAAAAAAAAAFgQ3AEAAAAAAAAAAAAAWBDcAQAAAAAAAAAAAABYENwBAAAAAAAAAAAAAFgQ3AEAAAAAAAAAAAAAWBDcAQAAAAAAAAAAAABYENwBAAAAAAAAAAAAAFgQ3AEAAAAAAAAAAAAAWBDcAQAAAAAAAAAAAABYENwBAAAAAAAAAAAAAFgQ3AEAAAAAAAAAAAAAWBDcAQAAAAAAAAAAAABYENwBAAAAAAAAAAAAAFgQ3AEAAAAAAAAAAAAAWBDcAQAAAAAAAAAAAABYENwBAAAAAAAAAAAAAFgQ3AEAAAAAAAAAAAAAWBDcAQAAAAAAAAAAAABYENwBAAAAAAAAAAAAAFgQ3AEAAAAAAAAAAAAAWBDcAQAAAAAAAAAAAABYENwBAAAAAAAAAAAAAFgQ3AEAAAAAAAAAAAAAWBDcAQAAAAAAAAAAAABYENwBAAAAAAAAAAAAAFgQ3AEAAAAAAAAAAAAAWBDcAQAAAAAAAAAAAABYENwBAAAAAAAAAAAAAFgQ3AEAAAAAAAAAAAAAWBDcAQAAAAAAAAAAAABYENwBAAAAAAAAAAAAAFgQ3AEAAAAAAAAAAAAAWBDcAQAAAAAAAAAAAABYENwBAAAAAAAAAAAAAFgQ3AEAAAAAAAAAAAAAWBDcAQAAAAAAAAAAAABYENwBAAAAAAAAAAAAAFgQ3AEAAAAAAAAAAAAAWBDcAQAAAAAAAAAAAABYENwBAAAAAAAAAAAAAFgQ3AEAAAAAAAAAgNq1YwEAAACAQf7W09hRHAEAwILgDgAAAAAAAAAAAADAguAOAAAAAAAAAAAAAMCC4A4AAAAAAAAAAAAAwILgDgAAAAAAAAAAAADAguAOAAAAAAAAAAAAAMCC4A4AAAAAAAAAAAAAwILgDgAAAAAAAAAAAADAguAOAAAAAAAAAAAAAMCC4A4AAAAAAAAAAAAAwILgDgAAAAAAAAAAAADAguAOAAAAAAAAAAAAAMCC4A4AAAAAAAAAAAAAwILgDgAAAAAAAAAAAADAguAOAAAAAAAAAAAAAMCC4A4AAAAAAAAAAAAAwILgDgAAAAAAAAAAAADAguAOAAAAAAAAAAAAAMCC4A4AAAAAAAAAAAAAwILgDgAAAAAAAAAAAADAguAOAAAAAAAAAAAAAMCC4A4AAAAAAAAAAAAAwILgDgAAAAAAAAAAAADAguAOAAAAAAAAAAAAAMCC4A4AAAAAAAAAAAAAwEJbzSGSpnmGOgAAAABJRU5ErkJggg==;" vertex="1" parent="1">
          <mxGeometry x="-470" y="20" width="100" height="100" as="geometry" />
        </mxCell>
        <mxCell id="z0Dh-hGaxNwlBLqKizht-9" style="edgeStyle=orthogonalEdgeStyle;rounded=0;orthogonalLoop=1;jettySize=auto;html=1;entryX=0.5;entryY=0;entryDx=0;entryDy=0;" edge="1" parent="1" source="z0Dh-hGaxNwlBLqKizht-5">
          <mxGeometry relative="1" as="geometry">
            <mxPoint x="-652.5" y="320" as="targetPoint" />
          </mxGeometry>
        </mxCell>
        <mxCell id="z0Dh-hGaxNwlBLqKizht-10" style="edgeStyle=orthogonalEdgeStyle;rounded=0;orthogonalLoop=1;jettySize=auto;html=1;entryX=0.5;entryY=0;entryDx=0;entryDy=0;" edge="1" parent="1" source="z0Dh-hGaxNwlBLqKizht-5">
          <mxGeometry relative="1" as="geometry">
            <mxPoint x="-170" y="320" as="targetPoint" />
          </mxGeometry>
        </mxCell>
        <mxCell id="z0Dh-hGaxNwlBLqKizht-11" style="edgeStyle=orthogonalEdgeStyle;rounded=0;orthogonalLoop=1;jettySize=auto;html=1;entryX=0.5;entryY=0;entryDx=0;entryDy=0;" edge="1" parent="1" source="z0Dh-hGaxNwlBLqKizht-5">
          <mxGeometry relative="1" as="geometry">
            <mxPoint x="-420" y="440" as="targetPoint" />
          </mxGeometry>
        </mxCell>
        <mxCell id="z0Dh-hGaxNwlBLqKizht-5" value="AssetMangerCoupling" style="rounded=1;whiteSpace=wrap;html=1;" vertex="1" parent="1">
          <mxGeometry x="-517.5" y="210" width="195" height="100" as="geometry" />
        </mxCell>
        <mxCell id="z0Dh-hGaxNwlBLqKizht-13" value="" style="sketch=0;html=1;aspect=fixed;strokeColor=none;shadow=0;fillColor=#3B8DF1;verticalAlign=top;labelPosition=center;verticalLabelPosition=bottom;shape=mxgraph.gcp2.enhance_ui_2" vertex="1" parent="1">
          <mxGeometry x="-400" y="140" width="43.96" height="40" as="geometry" />
        </mxCell>
        <mxCell id="z0Dh-hGaxNwlBLqKizht-20" value="&lt;div&gt;CouplingList&lt;br&gt;&lt;/div&gt;" style="html=1;dropTarget=0;whiteSpace=wrap;" vertex="1" parent="1">
          <mxGeometry x="-710" y="320" width="120" height="90" as="geometry" />
        </mxCell>
        <mxCell id="z0Dh-hGaxNwlBLqKizht-21" value="" style="shape=module;jettyWidth=8;jettyHeight=4;" vertex="1" parent="z0Dh-hGaxNwlBLqKizht-20">
          <mxGeometry x="1" width="20" height="20" relative="1" as="geometry">
            <mxPoint x="-27" y="7" as="offset" />
          </mxGeometry>
        </mxCell>
        <mxCell id="z0Dh-hGaxNwlBLqKizht-24" value="&lt;div&gt;SubAsset&lt;br&gt;&lt;/div&gt;" style="html=1;dropTarget=0;whiteSpace=wrap;" vertex="1" parent="1">
          <mxGeometry x="-230" y="320" width="120" height="90" as="geometry" />
        </mxCell>
        <mxCell id="z0Dh-hGaxNwlBLqKizht-25" value="" style="shape=module;jettyWidth=8;jettyHeight=4;" vertex="1" parent="z0Dh-hGaxNwlBLqKizht-24">
          <mxGeometry x="1" width="20" height="20" relative="1" as="geometry">
            <mxPoint x="-27" y="7" as="offset" />
          </mxGeometry>
        </mxCell>
        <mxCell id="z0Dh-hGaxNwlBLqKizht-35" style="edgeStyle=orthogonalEdgeStyle;rounded=0;orthogonalLoop=1;jettySize=auto;html=1;entryX=0.5;entryY=0;entryDx=0;entryDy=0;" edge="1" parent="1" source="z0Dh-hGaxNwlBLqKizht-27" target="z0Dh-hGaxNwlBLqKizht-33">
          <mxGeometry relative="1" as="geometry" />
        </mxCell>
        <mxCell id="z0Dh-hGaxNwlBLqKizht-27" value="AssetInfo" style="html=1;dropTarget=0;whiteSpace=wrap;" vertex="1" parent="1">
          <mxGeometry x="-495" y="390" width="150" height="60" as="geometry" />
        </mxCell>
        <mxCell id="z0Dh-hGaxNwlBLqKizht-28" value="" style="shape=module;jettyWidth=8;jettyHeight=4;" vertex="1" parent="z0Dh-hGaxNwlBLqKizht-27">
          <mxGeometry x="1" width="20" height="20" relative="1" as="geometry">
            <mxPoint x="-27" y="7" as="offset" />
          </mxGeometry>
        </mxCell>
        <mxCell id="z0Dh-hGaxNwlBLqKizht-30" value="" style="sketch=0;outlineConnect=0;fontColor=#232F3E;gradientColor=none;fillColor=#7AA116;strokeColor=none;dashed=0;verticalLabelPosition=bottom;verticalAlign=top;align=center;html=1;fontSize=12;fontStyle=0;aspect=fixed;pointerEvents=1;shape=mxgraph.aws4.iot_device_jobs_resource;" vertex="1" parent="1">
          <mxGeometry x="-160" y="270" width="24.62" height="30" as="geometry" />
        </mxCell>
        <mxCell id="z0Dh-hGaxNwlBLqKizht-31" value="" style="sketch=0;outlineConnect=0;fontColor=#232F3E;gradientColor=none;fillColor=#7AA116;strokeColor=none;dashed=0;verticalLabelPosition=bottom;verticalAlign=top;align=center;html=1;fontSize=12;fontStyle=0;aspect=fixed;pointerEvents=1;shape=mxgraph.aws4.iot_device_jobs_resource;" vertex="1" parent="1">
          <mxGeometry x="-413" y="350" width="24.62" height="30" as="geometry" />
        </mxCell>
        <mxCell id="z0Dh-hGaxNwlBLqKizht-32" value="" style="sketch=0;outlineConnect=0;fontColor=#232F3E;gradientColor=none;fillColor=#7AA116;strokeColor=none;dashed=0;verticalLabelPosition=bottom;verticalAlign=top;align=center;html=1;fontSize=12;fontStyle=0;aspect=fixed;pointerEvents=1;shape=mxgraph.aws4.iot_device_jobs_resource;" vertex="1" parent="1">
          <mxGeometry x="-640" y="270" width="24.62" height="30" as="geometry" />
        </mxCell>
        <mxCell id="z0Dh-hGaxNwlBLqKizht-33" value="DropzoneAsset" style="shape=hexagon;perimeter=hexagonPerimeter2;whiteSpace=wrap;html=1;fixedSize=1;" vertex="1" parent="1">
          <mxGeometry x="-610" y="490" width="115" height="40" as="geometry" />
        </mxCell>
        <mxCell id="z0Dh-hGaxNwlBLqKizht-34" value="ToggleButton" style="shape=hexagon;perimeter=hexagonPerimeter2;whiteSpace=wrap;html=1;fixedSize=1;" vertex="1" parent="1">
          <mxGeometry x="-356.03999999999996" y="490" width="115" height="40" as="geometry" />
        </mxCell>
        <mxCell id="z0Dh-hGaxNwlBLqKizht-36" style="edgeStyle=orthogonalEdgeStyle;rounded=0;orthogonalLoop=1;jettySize=auto;html=1;entryX=0.547;entryY=0.038;entryDx=0;entryDy=0;entryPerimeter=0;" edge="1" parent="1" source="z0Dh-hGaxNwlBLqKizht-27" target="z0Dh-hGaxNwlBLqKizht-34">
          <mxGeometry relative="1" as="geometry" />
        </mxCell>
        <mxCell id="z0Dh-hGaxNwlBLqKizht-40" style="edgeStyle=orthogonalEdgeStyle;rounded=0;orthogonalLoop=1;jettySize=auto;html=1;entryX=1;entryY=0.5;entryDx=0;entryDy=0;" edge="1" parent="1" source="z0Dh-hGaxNwlBLqKizht-37" target="z0Dh-hGaxNwlBLqKizht-33">
          <mxGeometry relative="1" as="geometry" />
        </mxCell>
        <mxCell id="z0Dh-hGaxNwlBLqKizht-41" style="edgeStyle=orthogonalEdgeStyle;rounded=0;orthogonalLoop=1;jettySize=auto;html=1;entryX=0;entryY=0.5;entryDx=0;entryDy=0;" edge="1" parent="1" source="z0Dh-hGaxNwlBLqKizht-37" target="z0Dh-hGaxNwlBLqKizht-34">
          <mxGeometry relative="1" as="geometry" />
        </mxCell>
        <mxCell id="z0Dh-hGaxNwlBLqKizht-37" value="" style="shape=image;html=1;verticalAlign=top;verticalLabelPosition=bottom;labelBackgroundColor=#ffffff;imageAspect=0;aspect=fixed;image=https://cdn0.iconfinder.com/data/icons/file-names-26/512/27-128.png" vertex="1" parent="1">
          <mxGeometry x="-440" y="490" width="40" height="40" as="geometry" />
        </mxCell>
      </root>
    </mxGraphModel>
  </diagram>
</mxfile>
